<?xml version="1.0" standalone="no"?>
<!DOCTYPE svg PUBLIC "-//W3C//DTD SVG 1.1//EN" "http://www.w3.org/Graphics/SVG/1.1/DTD/svg11.dtd" >
<svg>
<metadata>
Created by FontForge 20090914 at Wed Mar 27 12:47:22 2013
 By www-data
Footlight &#194;&#169; The Monotype Corporation plc. Data &#194;&#169; The Monotype Corporation plc/Type Solutions Inc. 1990 - 1992 All rights reserved.
</metadata>
<defs>
<font id="FootlightMTLight" horiz-adv-x="1131" >
  <font-face 
    font-family="Footlight MT Light"
    font-weight="300"
    font-stretch="normal"
    units-per-em="2048"
    panose-1="2 4 6 2 6 3 10 2 3 4"
    ascent="1638"
    descent="-410"
    x-height="916"
    cap-height="1279"
    bbox="-360 -460.002 2060 1869"
    underline-thickness="102"
    underline-position="-154"
    unicode-range="U+0020-U+F002"
  />
<missing-glyph horiz-adv-x="1536" 
d="M256 0v1280h1024v-1280h-1024zM288 32h960v1216h-960v-1216z" />
    <glyph glyph-name=".notdef" horiz-adv-x="1536" 
d="M256 0v1280h1024v-1280h-1024zM288 32h960v1216h-960v-1216z" />
    <glyph glyph-name="space" unicode=" " horiz-adv-x="512" 
 />
    <glyph glyph-name="exclam" unicode="!" horiz-adv-x="619" 
d="M60 1279l508.998 -0.00195312v-48c-59.333 -1.33301 -98.666 -11.666 -117.999 -30.999s-30.666 -64.666 -33.999 -135.999l-40 -756h-141l-26 756c-2 70 -14 115.167 -36 135.5s-60 30.833 -114 31.5v48zM299.998 212.998c35.333 0 64.666 -12 87.999 -36
s35 -52.333 35 -85s-11.833 -61 -35.5 -85s-52.167 -36 -85.5 -36s-61.666 12 -84.999 36s-35 52.333 -35 85c0 34 12 62.667 36 86s51.333 35 82 35z" />
    <glyph glyph-name="quotedbl" unicode="&#x22;" horiz-adv-x="661" 
d="M207 778h-38.999l-49 325c-8 53.333 -12 90 -12 110c0 24 7.16699 45.833 21.5 65.5s35.5 29.5 63.5 29.5c25.333 0 45.166 -9.5 59.499 -28.5s21.5 -41.167 21.5 -66.5c0 -31.333 -4 -69.333 -12 -114zM537.001 778h-38.999l-49 325c-8 53.333 -12 90 -12 110
c0 24 7.16699 45.833 21.5 65.5s35.166 29.5 62.499 29.5c25.333 0 45.333 -9.5 60 -28.5s22 -41.167 22 -66.5c0 -31.333 -4 -69.333 -12 -114z" />
    <glyph glyph-name="numbersign" unicode="#" horiz-adv-x="1365" 
d="M91 945h329l88 411h104l-88 -411h440l86 411h104l-86 -411h205v-104h-225l-81 -389h306v-104h-327l-87 -409h-104l87 409h-443l-85 -409h-104l85 409h-204v104h226l82 389h-308v104zM503 841l-82 -387h442l81 387h-441z" />
    <glyph glyph-name="dollar" unicode="$" horiz-adv-x="939" 
d="M475 1462l71.999 -0.00195312v-155h39c56.667 0.666992 133.334 -15.666 230.001 -48.999v-312h-69c-20 166 -86.667 263 -200 291v-481c32 -24.667 68.333 -50.667 109 -78c104 -70 167.5 -126.333 190.5 -169s34.5 -87 34.5 -133c0 -83.333 -32 -159.5 -96 -228.5
s-143.333 -122.833 -238 -161.5v-168h-72v156l-63 -2c-89.333 0 -188 22.667 -296 68v352h67c28 -223.333 125.333 -340.666 292 -351.999v540c-162.667 106 -258.5 183.167 -287.5 231.5s-43.5 96.5 -43.5 144.5c0 76.667 33.5 147.667 100.5 213
s143.833 108.333 230.5 129v164zM474.999 804.998v435c-52 -4.66699 -95.167 -23.5 -129.5 -56.5s-51.5 -75.167 -51.5 -126.5c0 -45.333 15.167 -89 45.5 -131s75.5 -82.333 135.5 -121zM546.999 526.998l-0.000976562 -479c118 29.333 177 103 177 221
c0 49.333 -14.667 95.5 -44 138.5s-73.666 82.833 -132.999 119.5z" />
    <glyph glyph-name="percent" unicode="%" horiz-adv-x="1472" 
d="M1137 1335h85l-887 -1396h-85zM417 1295c79.333 0 144.499 -28.3311 195.499 -84.998s76.5 -130.334 76.5 -221.001c0 -104 -33.333 -193.667 -100 -269s-146 -113 -238 -113c-77.333 0 -141.166 28.167 -191.499 84.5s-75.5 128.166 -75.5 215.499
c0 106.667 33.5 198 100.5 274s144.5 114 232.5 114zM356.999 1229c-48.667 0 -86.668 -19.333 -114.001 -58s-41 -91 -41 -157c0 -88 20.167 -167.167 60.5 -237.5s92.5 -105.5 156.5 -105.5c48.667 0 86 20.333 112 61s39 95.667 39 165
c0 83.333 -20.167 159.5 -60.5 228.5s-91.166 103.5 -152.499 103.5zM1118 670.002c82 0 147.666 -29.333 196.999 -88s74 -131 74 -217c0 -105.333 -32.667 -195.833 -98 -271.5s-143.666 -113.5 -234.999 -113.5c-82 0 -147.833 29.167 -197.5 87.5
s-74.5 128.5 -74.5 210.5c0 101.333 31.333 192 94 272s142.667 120 240 120zM1057 604.002c-50.667 0 -88.833 -20.334 -114.5 -61.001s-38.5 -90 -38.5 -148c0 -86.667 19.667 -166 59 -238s89.666 -108 150.999 -108c52 0 91.5 20 118.5 60s40.5 92 40.5 156
c0 94.667 -21.667 174.834 -65 240.501s-93.666 98.5 -150.999 98.5z" />
    <glyph glyph-name="ampersand" unicode="&#x26;" horiz-adv-x="1301" 
d="M406 711c-72.667 137.333 -109.005 244.668 -109.005 322.001c0 92 45.833 160.833 137.5 206.5s181.834 68.5 270.501 68.5c60 0 112.667 -14.5 158 -43.5s68 -71.167 68 -126.5c0 -39.333 -13.5 -77 -40.5 -113s-90.167 -85.333 -189.5 -148
c-51.333 -32.667 -92.666 -60.334 -123.999 -83.001l213 -336c62 96 102 208 120 336h358v-51c-165.333 0 -313.333 -109.667 -444 -329c134.667 -180.667 232.334 -271 293.001 -271c41.333 0 94.333 53 159 159l42 -20c-68 -128.667 -121.667 -212.667 -161 -252
s-74.666 -59 -105.999 -59c-78.667 0 -192.667 92.667 -342 278c-87.333 -110.667 -157.5 -184.667 -210.5 -222s-107.167 -56 -162.5 -56c-73.333 0 -135.666 29 -186.999 87s-77 123.667 -77 197c0 134 111.333 286 334 456zM555.995 835.002
c85.333 78.667 141.499 137.834 168.499 177.501s40.5 80.167 40.5 121.5c0 33.333 -11.833 61.666 -35.5 84.999s-56.5 35 -98.5 35c-49.333 0 -88.666 -16.333 -117.999 -49s-44 -73 -44 -121c0 -56 29 -139 87 -249zM425.994 671.002
c-109.333 -113.333 -164.001 -223.667 -164.001 -331c0 -64 16.833 -116.5 50.5 -157.5s75.834 -61.5 126.501 -61.5c73.333 0 154 54.667 242 164c-110.667 149.333 -195.667 278 -255 386z" />
    <glyph glyph-name="quotesingle" unicode="'" horiz-adv-x="320" 
d="M201 778h-38.999l-49 325c-8 53.333 -12 90 -12 110c0 24 7.16699 45.833 21.5 65.5s35.5 29.5 63.5 29.5c25.333 0 45.166 -9.5 59.499 -28.5s21.5 -41.167 21.5 -66.5c0 -31.333 -4 -69.333 -12 -114z" />
    <glyph glyph-name="parenleft" unicode="(" horiz-adv-x="725" 
d="M676 1413v-61.001c-97.333 -106 -166 -213.667 -206 -323s-60 -254 -60 -434c0 -184 20.167 -331.5 60.5 -442.5s108.833 -218.5 205.5 -322.5v-61c-313.333 212.667 -470 486.334 -470 821.001c0 129.333 18.167 240 54.5 332s89.333 179.667 159 263
s155.167 159.333 256.5 228z" />
    <glyph glyph-name="parenright" unicode=")" horiz-adv-x="725" 
d="M48 1350v60.998c88 -57.333 164.5 -123.333 229.5 -198s121.333 -160.334 169 -257.001s71.5 -216.667 71.5 -360c0 -189.333 -44.667 -352.666 -134 -489.999s-201.333 -250.333 -336 -339v62c102.667 112 172.667 224.667 210 338s56 257.333 56 432
s-19.667 316.834 -59 426.501s-108.333 217.834 -207 324.501z" />
    <glyph glyph-name="asterisk" unicode="*" horiz-adv-x="725" 
d="M91 1234c0 34.667 17.002 52.002 51.002 52.002c21.333 0 54.666 -24 99.999 -72c40.667 -43.333 69 -65 85 -65c12 0 18 6.66699 18 20c0 20.667 -7.33301 59.667 -22 117c-10.667 40 -16 66 -16 78c0 12.667 5.16699 24.5 15.5 35.5s23.166 16.5 38.499 16.5
c35.333 0 53 -18.667 53 -56c0 -10.667 -6 -40.334 -18 -89.001c-14 -55.333 -21 -90 -21 -104c0 -12.667 6 -19 18 -19c16 0 42 19.333 78 58c48.667 52 85.667 78 111 78c34 0 51 -17.333 51 -52c0 -19.333 -9.66699 -34.333 -29 -45s-55 -22.667 -107 -36
c-57.333 -14.667 -86 -29 -86 -43c0 -15.333 32.667 -31.333 98 -48c48.667 -12.667 81.5 -24.167 98.5 -34.5s25.5 -24.166 25.5 -41.499c0 -14 -4.83301 -26.5 -14.5 -37.5s-21.834 -16.5 -36.501 -16.5c-24 0 -59.667 25.333 -107 76c-40.667 43.333 -68.667 65 -84 65
c-10.667 0 -16 -7.66699 -16 -23c0 -18.667 6.66699 -54.334 20 -107.001c10.667 -43.333 16 -71.333 16 -84c0 -13.333 -4.83301 -25.666 -14.5 -36.999s-22.167 -17 -37.5 -17s-28.166 5.66699 -38.499 17s-15.5 22.666 -15.5 33.999c0 16 8 52.667 24 110
c12 45.333 18 73.666 18 84.999c0 14.667 -5.33301 22 -16 22c-14.667 0 -42.667 -21 -84 -63c-50.667 -50.667 -87 -76 -109 -76c-33.333 0 -50 16.667 -50 50c0 20.667 9 36 27 46s50.667 21 98 33c65.333 16.667 98 32.334 98 47.001c0 15.333 -35 32 -105 50
c-46.667 12.667 -77.5 23.667 -92.5 33s-22.5 23.666 -22.5 42.999z" />
    <glyph glyph-name="plus" unicode="+" horiz-adv-x="1365" 
d="M142 697h486v486h108v-486h486v-108h-486v-486h-108v486h-486v108z" />
    <glyph glyph-name="comma" unicode="," horiz-adv-x="491" 
d="M122 -446l-0.000976562 56.999c62.667 37.333 115.834 87.5 159.501 150.5s65.5 124.5 65.5 184.5c0 34 -9.66699 68 -29 102c-11.333 -16 -24.666 -28 -39.999 -36s-32.666 -12 -51.999 -12c-30 0 -54.333 9.66699 -73 29s-28 43 -28 71
c0 34.667 14.167 63.334 42.5 86.001s65.166 34 110.499 34c55.333 0 99.166 -16.667 131.499 -50s48.5 -77.333 48.5 -132c0 -87.333 -29.5 -174.333 -88.5 -261s-141.5 -161 -247.5 -223z" />
    <glyph glyph-name="hyphen" unicode="-" horiz-adv-x="832" 
d="M674 557l40.002 -22c-52 -96.667 -106.333 -145 -163 -145c-29.333 0 -82.333 11.667 -159 35c-64.667 19.333 -107.334 29 -128.001 29c-36.667 0 -69.667 -24.667 -99 -74l-39 22c49.333 98 102.666 147 159.999 147c26 0 74.333 -11 145 -33
c70 -21.333 117.333 -32 142 -32c35.333 0 69 24.333 101 73z" />
    <glyph glyph-name="hyphen" unicode="&#xad;" horiz-adv-x="832" 
d="M674 557l40.002 -22c-52 -96.667 -106.333 -145 -163 -145c-29.333 0 -82.333 11.667 -159 35c-64.667 19.333 -107.334 29 -128.001 29c-36.667 0 -69.667 -24.667 -99 -74l-39 22c49.333 98 102.666 147 159.999 147c26 0 74.333 -11 145 -33
c70 -21.333 117.333 -32 142 -32c35.333 0 69 24.333 101 73z" />
    <glyph glyph-name="period" unicode="." horiz-adv-x="491" 
d="M246 209c35.333 0 64.668 -11.833 88.001 -35.5s35 -51.5 35 -83.5c0 -32.667 -11.833 -60.667 -35.5 -84s-52.167 -35 -85.5 -35c-32.667 0 -60.834 11.667 -84.501 35s-35.5 51.333 -35.5 84c0 34 12.167 62.333 36.5 85s51.5 34 81.5 34z" />
    <glyph glyph-name="slash" unicode="/" horiz-adv-x="1045" 
d="M821 1426h110l-708 -1463h-110z" />
    <glyph glyph-name="zero" unicode="0" 
d="M615 1315c121.333 0 224.831 -51.501 310.498 -154.501s128.5 -241.167 128.5 -414.5c0 -217.333 -59.167 -400.833 -177.5 -550.5s-244.166 -224.5 -377.499 -224.5c-71.333 0 -141.166 23.333 -209.499 70s-120.666 111.334 -156.999 194.001s-54.5 182 -54.5 298
c0 220 58.167 405.333 174.5 556s237.166 226 362.499 226zM525.998 1205c-101.333 0 -178.332 -48.832 -230.999 -146.499s-79 -221.5 -79 -371.5c0 -164 38.833 -304.833 116.5 -422.5s168.5 -176.5 272.5 -176.5c89.333 0 162.166 43.167 218.499 129.5
s84.5 210.833 84.5 373.5c0 114 -17 218.667 -51 314s-83.5 169.166 -148.5 221.499s-125.833 78.5 -182.5 78.5z" />
    <glyph glyph-name="one" unicode="1" 
d="M288 1155l487 169.999v-40c-21.333 -6 -40.5 -19.167 -57.5 -39.5s-25.5 -45.833 -25.5 -76.5v-977c0 -49.333 10.167 -85.666 30.5 -108.999s55.166 -35 104.499 -35h49v-48h-528v48h49c88.667 0 133 42.333 133 127v890c0 58 -25.333 87 -76 87
c-23.333 0 -78.666 -15.333 -165.999 -46v49z" />
    <glyph glyph-name="two" unicode="2" 
d="M219 1159c80.667 50 158.5 87.334 233.5 112.001s147.167 37 216.5 37c91.333 0 166.5 -22.833 225.5 -68.5s88.5 -106.5 88.5 -182.5c0 -68 -20 -134.167 -60 -198.5s-124 -158.833 -252 -283.5l-425 -420h564c58 0 99.667 12.833 125 38.5s42.333 63.5 51 113.5h48
l-72 -354h-47v12c0 23.333 -12 35 -36 35h-781v48l292 352c44.667 53.333 110 137.5 196 252.5s141.333 203.167 166 264.5s37 112.666 37 153.999c0 49.333 -16.167 92.666 -48.5 129.999s-75.833 56 -130.5 56c-80 0 -151.333 -39.167 -214 -117.5
s-98.667 -173.166 -108 -284.499h-69v304z" />
    <glyph glyph-name="three" unicode="3" 
d="M226 1159c79.333 50 155.004 87.334 227.004 112.001s140.333 37 205 37c73.333 0 137.166 -17.833 191.499 -53.5s81.5 -87.834 81.5 -156.501c0 -74.667 -34.167 -141.834 -102.5 -201.501s-173.833 -118.167 -316.5 -175.5c46.667 2 81 3 103 3
c135.333 0 236.666 -21.167 303.999 -63.5s101 -106.166 101 -191.499c0 -127.333 -58.5 -242.166 -175.5 -344.499s-245.167 -153.5 -384.5 -153.5c-87.333 0 -186.333 21.333 -297 64v333h69c11.333 -103.333 48.166 -183.5 110.499 -240.5s133.5 -85.5 213.5 -85.5
c80.667 0 147.5 28.5 200.5 85.5s79.5 131.833 79.5 224.5c0 102 -27.833 181.167 -83.5 237.5s-135.834 84.5 -240.501 84.5h-165v47c108.667 11.333 202.667 57.166 282 137.499s119 160.5 119 240.5c0 42 -14.167 78.5 -42.5 109.5s-67.833 46.5 -118.5 46.5
c-78.667 0 -146.167 -38.667 -202.5 -116s-86.5 -171.333 -90.5 -282h-68v302z" />
    <glyph glyph-name="four" unicode="4" 
d="M753 1318h50v-852h204v-101h-204v-190c0 -84.667 42 -127 126 -127h29v-48h-502v48h42c94 0 141 42.333 141 127v190h-576v46l393 496c130 164.667 229 301.667 297 411zM639 995c-90.667 -86 -174 -177 -250 -273l-202 -256h452v529z" />
    <glyph glyph-name="five" unicode="5" 
d="M915 1330l47.002 -0.000976562v-352h-47c0 66 -14.333 107.667 -43 125s-62.667 26 -102 26h-454l-19 -399c43.333 34.667 92.666 60.667 147.999 78s117 26 185 26c116.667 0 211.667 -30 285 -90s110 -138.667 110 -236c0 -136 -55.833 -259.5 -167.5 -370.5
s-238.5 -166.5 -380.5 -166.5c-95.333 0 -188.333 22 -279 66v331h70c14 -100.667 48 -179.5 102 -236.5s119 -85.5 195 -85.5c86 0 152.667 32.5 200 97.5s71 147.833 71 248.5c0 114 -27.667 205.833 -83 275.5s-125 104.5 -209 104.5
c-52.667 0 -100.334 -13.167 -143.001 -39.5s-80.667 -66.166 -114 -119.499h-59l31 666h595c40 0 60.333 17 61 51z" />
    <glyph glyph-name="six" unicode="6" 
d="M311 507c56 65.333 115.334 114.169 178.001 146.502s128.667 48.5 198 48.5c99.333 0 183.666 -26.333 252.999 -79s104 -131 104 -235c0 -108 -46.167 -204.5 -138.5 -289.5s-202.166 -127.5 -329.499 -127.5c-144 0 -255.167 55.667 -333.5 167
s-117.5 245.666 -117.5 402.999c0 196.667 55.833 373.667 167.5 531s254.834 236 429.501 236c75.333 0 153.666 -16.333 234.999 -49v-344h-74c-1.33301 103.333 -22.833 185.666 -64.5 246.999s-95.5 92 -161.5 92s-127.333 -30.667 -184 -92
s-99.334 -143.5 -128.001 -246.5s-43 -196.833 -43 -281.5c0 -28.667 3 -71 9 -127zM617.001 624.003c-77.333 0 -138.333 -28.5 -183 -85.5s-67 -127.5 -67 -211.5c0 -86.667 22.667 -158.667 68 -216s103.333 -86 174 -86c71.333 0 129.833 28.833 175.5 86.5
s68.5 130.167 68.5 217.5c0 89.333 -22.667 160.833 -68 214.5s-101.333 80.5 -168 80.5z" />
    <glyph glyph-name="seven" unicode="7" 
d="M190 1325l47 0.000976562v-7c0 -26 18.333 -39 55 -39h756v-62c-183.333 -234.667 -305.333 -446.5 -366 -635.5s-93.667 -382.833 -99 -581.5h-181c7.33301 155.333 27.5 287.333 60.5 396s88 220.5 165 335.5s131.5 192.5 163.5 232.5l131 164h-530
c-62 0 -103 -11.833 -123 -35.5s-30.667 -62.834 -32 -117.501h-47v350z" />
    <glyph glyph-name="eight" unicode="8" 
d="M476 659l-57.999 31.0039c-87.333 45.333 -148.833 87.333 -184.5 126s-53.5 90.667 -53.5 156c0 88 47.667 166 143 234s204 102 326 102c87.333 0 163.333 -19.167 228 -57.5s97 -90.833 97 -157.5c0 -47.333 -19.333 -95.333 -58 -144s-122 -118.334 -250 -209.001
c35.333 -20 67.666 -37.333 96.999 -52c116.667 -61.333 196.5 -114.833 239.5 -160.5s64.5 -101.167 64.5 -166.5c0 -71.333 -24 -133.333 -72 -186s-113.667 -99.834 -197 -141.501s-180 -62.5 -290 -62.5c-134.667 0 -237.5 29 -308.5 87s-106.5 126 -106.5 204
c0 53.333 19 106.166 57 158.499s122.333 117.166 253 194.499zM622.001 765.004c68.667 60 117.167 112.166 145.5 156.499s42.5 90.5 42.5 138.5c0 58.667 -21.667 105.334 -65 140.001s-100.333 52 -171 52c-73.333 0 -132.333 -19.667 -177 -59s-67 -87 -67 -143
c0 -38.667 14.833 -79.5 44.5 -122.5s112.167 -97.167 247.5 -162.5zM524.001 635.003c-87.333 -58 -150.667 -111.832 -190 -161.499s-59 -107.167 -59 -172.5c0 -82.667 29.667 -148.334 89 -197.001s132 -73 218 -73c94 0 169.5 27.833 226.5 83.5
s85.5 118.167 85.5 187.5c0 51.333 -14 94 -42 128s-68 64.167 -120 90.5s-121.333 64.5 -208 114.5z" />
    <glyph glyph-name="nine" unicode="9" 
d="M845 769c-61.333 -63.333 -124.167 -110.834 -188.5 -142.501s-130.166 -47.5 -197.499 -47.5c-112 0 -197.667 31.833 -257 95.5s-89 138.167 -89 223.5c0 108 47.833 203.333 143.5 286s202.167 124 319.5 124c131.333 0 239.666 -50.667 324.999 -152
s128 -241.666 128 -420.999c0 -139.333 -26.667 -267 -80 -383s-124.5 -208.5 -213.5 -277.5s-187.833 -103.5 -296.5 -103.5c-82.667 0 -161.667 17 -237 51v341h72c2 -101.333 23.333 -182.833 64 -244.5s92.667 -92.5 156 -92.5c104.667 0 190.167 61.167 256.5 183.5
s99.5 272.833 99.5 451.5c0 22.667 -1.66699 58.667 -5 108zM550.999 1259c-80.667 0 -142.667 -30.5 -186 -91.5s-65 -133.833 -65 -218.5c0 -88 23.5 -159.167 70.5 -213.5s106.167 -81.5 177.5 -81.5c70.667 0 128.167 28.833 172.5 86.5s66.5 129.167 66.5 214.5
c0 94 -24.5 168.167 -73.5 222.5s-103.167 81.5 -162.5 81.5z" />
    <glyph glyph-name="colon" unicode=":" horiz-adv-x="491" 
d="M254 943c35.333 0 64.667 -12 88 -36s35 -52.333 35 -85c0 -34 -11.833 -62.667 -35.5 -86s-52.167 -35 -85.5 -35s-61.833 11.667 -85.5 35s-35.5 52 -35.5 86s12.167 62.667 36.5 86s51.833 35 82.5 35zM246.001 210c36 0 65.5 -11.833 88.5 -35.5
s34.5 -51.5 34.5 -83.5c0 -33.333 -11.667 -61.666 -35 -84.999s-52 -35 -86 -35c-33.333 0 -61.833 11.667 -85.5 35s-35.5 51.666 -35.5 84.999c0 34.667 12.167 63.167 36.5 85.5s51.833 33.5 82.5 33.5z" />
    <glyph glyph-name="semicolon" unicode=";" horiz-adv-x="491" 
d="M246 941c35.333 0 64.667 -12 88 -36s35 -52.333 35 -85c0 -33.333 -11.833 -61.833 -35.5 -85.5s-52.167 -35.5 -85.5 -35.5s-61.833 11.833 -85.5 35.5s-35.5 52.167 -35.5 85.5c0 34.667 12.167 63.5 36.5 86.5s51.833 34.5 82.5 34.5zM124.001 -447v58.001
c74 53.333 129.5 108.333 166.5 165s55.5 115 55.5 175c0 29.333 -10.333 61.666 -31 96.999c-10.667 -16 -23.667 -28 -39 -36s-33 -12 -53 -12c-32.667 -0 -57.167 10.333 -73.5 31s-24.5 43 -24.5 67c0 34 14.167 63 42.5 87s64.833 36 109.5 36
c54 0 97.667 -16.833 131 -50.5s50 -79.167 50 -136.5c0 -88.667 -27.833 -173 -83.5 -253s-139.167 -156 -250.5 -228z" />
    <glyph glyph-name="less" unicode="&#x3c;" horiz-adv-x="1365" 
d="M1222 141l-1080 456v97l1080 455v-118l-936 -385l936 -387v-118z" />
    <glyph glyph-name="equal" unicode="=" horiz-adv-x="1365" 
d="M142 935h1080v-108h-1080v108zM142 469h1080v-108h-1080v108z" />
    <glyph glyph-name="greater" unicode="&#x3e;" horiz-adv-x="1365" 
d="M142 1149l1080 -457v-97l-1080 -454v117l937 386l-937 387v118z" />
    <glyph glyph-name="question" unicode="?" horiz-adv-x="917" 
d="M95 1156c184.667 101.333 350.667 151.997 498 151.997c94 0 166.5 -20.167 217.5 -60.5s76.5 -94.833 76.5 -163.5c0 -102.667 -63.333 -210.667 -190 -324c-74.667 -66.667 -129 -124.667 -163 -174s-56.667 -94.166 -68 -134.499s-17.666 -88.166 -18.999 -143.499
h-99c1.33301 102 13.333 184.167 36 246.5s69 140.5 139 234.5c56 76 93.833 134.333 113.5 175s29.5 79.334 29.5 116.001c0 51.333 -16.333 92.333 -49 123s-76.334 46 -131.001 46c-85.333 0 -159.333 -37.5 -222 -112.5s-97 -169.167 -103 -282.5h-66v302zM394 212.997
c34.667 0 63.6689 -11.833 87.002 -35.5s35 -52.167 35 -85.5s-11.833 -61.833 -35.5 -85.5s-51.834 -35.5 -84.501 -35.5s-60.834 11.833 -84.501 35.5s-35.5 52.167 -35.5 85.5c0 34.667 12.167 63.5 36.5 86.5s51.5 34.5 81.5 34.5z" />
    <glyph glyph-name="at" unicode="@" horiz-adv-x="1877" 
d="M1396 951l-138.997 -469.001c-49.333 -165.333 -74 -270.666 -74 -315.999c0 -27.333 9.83301 -47.833 29.5 -61.5s40.834 -20.5 63.501 -20.5c93.333 0 187.833 64.167 283.5 192.5s143.5 279.833 143.5 454.5c0 194 -61.333 348.833 -184 464.5s-280 173.5 -472 173.5
c-158.667 0 -305.5 -42.333 -440.5 -127s-239.333 -205.834 -313 -363.501s-110.5 -317.834 -110.5 -480.501c0 -140.667 34.833 -275.167 104.5 -403.5s165.834 -225 288.501 -290s256 -97.5 400 -97.5c190 0 357.667 53.667 503 161s246.666 239.333 303.999 396h54
c-62 -180 -172 -326.667 -330 -440s-335.667 -170 -533 -170c-166.667 0 -318.5 39 -455.5 117s-240.667 187.167 -311 327.5s-105.5 291.833 -105.5 454.5c0 265.333 89.667 492.833 269 682.5s405.333 284.5 678 284.5c209.333 0 379.333 -62.5 510 -187.5
s196 -290.5 196 -496.5c0 -150 -28.333 -277 -85 -381s-121.834 -186.333 -195.501 -247s-159.834 -91 -258.501 -91c-54.667 0 -94.5 13.667 -119.5 41s-37.5 60.333 -37.5 99c0 26.667 8.33301 78.334 25 155.001c-106 -128.667 -185.667 -208.167 -239 -238.5
s-101 -45.5 -143 -45.5c-55.333 0 -101.5 19.833 -138.5 59.5s-55.5 96.5 -55.5 170.5c0 112.667 32.833 223 98.5 331s140.167 196.5 223.5 265.5s161.666 103.5 234.999 103.5c42.667 0 78.167 -11.667 106.5 -35s49.166 -58.666 62.499 -105.999l31 115zM774.003 134.999
c55.333 0 118.501 34.5 189.501 103.5s127.667 154.5 170 256.5s63.5 189.333 63.5 262c0 41.333 -11 77.5 -33 108.5s-56.667 46.5 -104 46.5c-92.667 0 -184.5 -75.333 -275.5 -226s-136.5 -287 -136.5 -409c0 -42.667 11.167 -77 33.5 -103s53.166 -39 92.499 -39z" />
    <glyph glyph-name="A" unicode="A" horiz-adv-x="1237" 
d="M623 1332l59 -0.00195312l354 -1022c26 -76 54.5 -138.167 85.5 -186.5s68.833 -73.5 113.5 -75.5v-48h-359v48h23c11.333 0 17 11 17 33c0 6.66699 -1.33301 14 -4 22l-120 348h-437c-46 -129.333 -69 -225.666 -69 -288.999c0 -33.333 10.833 -60.666 32.5 -81.999
s50.167 -32 85.5 -32h53v-48h-448v48c74.667 4 142.667 83.667 204 239zM588 1044l-210 -532h392z" />
    <glyph glyph-name="B" unicode="B" horiz-adv-x="1109" 
d="M58 1279l605 -0.00195312c130.667 0 216.167 -21.667 256.5 -65s60.5 -97 60.5 -161c0 -68 -23.5 -133.167 -70.5 -195.5s-117.833 -121.5 -212.5 -177.5c116 -1.33301 202 -18.5 258 -51.5s84 -92.5 84 -178.5c0 -119.333 -51.667 -224.166 -155 -314.499
s-222.333 -135.5 -357 -135.5h-469v48c58.667 0.666992 98.667 12 120 34s32 63.667 32 125v866c0 64.667 -11.333 106.834 -34 126.501s-62 30.167 -118 31.5v48zM395 1184v-465h195c62 0 112.667 16.333 152 49s59 83 59 151c0 92 -23.833 167.167 -71.5 225.5
s-106.5 87.5 -176.5 87.5c-66 0 -118.667 -16 -158 -48zM395 672.998v-527.001c68.667 -54 140.334 -81 215.001 -81c71.333 0 128.666 23.833 171.999 71.5s65 111.5 65 191.5c0 96.667 -30.167 178.334 -90.5 245.001s-146.833 100 -259.5 100h-102z" />
    <glyph glyph-name="C" unicode="C" horiz-adv-x="1259" 
d="M1206 244c-211.333 -182 -403.999 -273.001 -577.999 -273.001c-142 0 -269.5 54.167 -382.5 162.5s-169.5 257.5 -169.5 447.5c0 132.667 29.333 251.334 88 356.001s141.834 192.667 249.501 264s237.167 107 388.5 107c132 0 256.667 -20.667 374 -62v-302h-71
c-8.66699 94.667 -50.334 168.5 -125.001 221.5s-163.667 79.5 -267 79.5c-144.667 0 -258.334 -53 -341.001 -159s-124 -236 -124 -390c0 -166.667 47 -305 141 -415s214.667 -165 362 -165s299 63 455 189v-61z" />
    <glyph glyph-name="D" unicode="D" horiz-adv-x="1451" 
d="M64 1279h785.999c176 0 307.833 -42 395.5 -126s131.5 -210.333 131.5 -379c0 -214.667 -71.167 -397.334 -213.5 -548.001s-334.166 -226 -575.499 -226h-524v48c60 0.666992 100.333 12.167 121 34.5s31 63.833 31 124.5v866c0 64.667 -11.333 106.834 -34 126.501
s-62 30.167 -118 31.5v48zM400.999 1157v-998.999c106.667 -62 210.667 -93 312 -93c142.667 0 257.667 53.667 345 161s131 246.666 131 417.999c0 172 -38.167 313.333 -114.5 424s-204.166 166 -383.499 166c-116.667 0 -213.334 -25.667 -290.001 -77z" />
    <glyph glyph-name="E" unicode="E" horiz-adv-x="981" 
d="M845 1329h47.002v-382h-73c-1.33301 100 -30 172.333 -86 217s-141.333 67 -256 67h-76c-8 -72.667 -12 -137.667 -12 -195c0 -114 22.167 -198 66.5 -252s115.833 -81 214.5 -81h98v-70l-367 -10v-575h106c224 0 352.333 106.667 385 320h71l-82 -412h-50
c-0.666992 29.333 -13.334 44 -38.001 44h-729v48c60 0.666992 100.333 12 121 34s31 63.667 31 125v865c0 65.333 -11.5 107.833 -34.5 127.5s-62.167 30.167 -117.5 31.5v48h714c43.333 0 65.666 16.667 66.999 50z" />
    <glyph glyph-name="F" unicode="F" horiz-adv-x="875" 
d="M846 1323l44.001 -0.00195312v-380h-72c0 104 -28.833 178 -86.5 222s-143.5 66 -257.5 66h-76c-7.33301 -72.667 -11 -138 -11 -196c0 -127.333 22 -218.666 66 -273.999s120.667 -83 230 -83h83v-69l-368 -8v-394c0 -102.667 50.667 -155.667 152 -159v-48h-489v48
c59.333 0.666992 99.5 12.167 120.5 34.5s31.5 63.833 31.5 124.5v866c0 64.667 -11.333 106.834 -34 126.501s-62 30.167 -118 31.5v48h757c4.66699 0 10.167 4.5 16.5 13.5s10.166 19.167 11.499 30.5z" />
    <glyph glyph-name="G" unicode="G" horiz-adv-x="1365" 
d="M848 48c-90 -51.333 -174.665 -76.998 -253.998 -76.998c-86 0 -171 26.833 -255 80.5s-148 125.167 -192 214.5s-66 190 -66 302c0 140 33.333 267 100 381s154.667 202.333 264 265s232.666 94 369.999 94c106.667 0 227.667 -20.333 363 -61v-303h-73
c-11.333 95.333 -53.333 168.833 -126 220.5s-158.334 77.5 -257.001 77.5c-130.667 0 -241.834 -47 -333.501 -141s-137.5 -223.333 -137.5 -388c0 -176 46.667 -322.167 140 -438.5s206.333 -174.5 339 -174.5c87.333 0 160.333 24.667 219 74s88 108.666 88 177.999
c0 100.667 -63 151 -189 151h-36v47h499v-47c-31.333 -0.666992 -56 -14.334 -74 -41.001s-27 -58.667 -27 -96v-412h-50c-3.33301 117.333 -47.666 176 -132.999 176c-38.667 0 -85 -18.667 -139 -56z" />
    <glyph glyph-name="H" unicode="H" horiz-adv-x="1408" 
d="M61 1279l489 -0.00195312v-48c-60 -1.33301 -100.333 -13 -121 -35s-31 -63 -31 -123v-343h610v343c0 64.667 -11.5 106.834 -34.5 126.501s-62.167 30.167 -117.5 31.5v48h489v-48c-60 -1.33301 -100.333 -13 -121 -35s-31 -63 -31 -123v-866
c0 -65.333 11.5 -108 34.5 -128s62.167 -30.333 117.5 -31v-48h-489v48c58.667 0.666992 98.667 12.167 120 34.5s32 63.833 32 124.5v461h-610v-461c0 -103.333 50.667 -156.333 152 -159v-48h-489v48c59.333 0.666992 99.5 12.167 120.5 34.5s31.5 63.833 31.5 124.5v866
c0 64.667 -11.5 106.834 -34.5 126.501s-62.167 30.167 -117.5 31.5v48z" />
    <glyph glyph-name="I" unicode="I" horiz-adv-x="619" 
d="M562 1231c-60 -1.33301 -100.333 -12.833 -121 -34.5s-31 -62.834 -31 -123.501v-866c0 -102.667 50.667 -155.667 152 -159v-48h-489v48c60 0.666992 100.333 12.167 121 34.5s31 63.833 31 124.5v866c0 64.667 -11.333 106.834 -34 126.501s-62 30.167 -118 31.5v48
h489v-48z" />
    <glyph glyph-name="J" unicode="J" horiz-adv-x="597" 
d="M-80 -117c5.33301 -66.667 21.667 -119.167 49 -157.5s60.333 -57.5 99 -57.5c45.333 0 81.833 26.167 109.5 78.5s41.5 136.833 41.5 253.5v1072c0 65.333 -11.333 107.833 -34 127.5s-62 30.167 -118 31.5v48h489v-48c-59.333 -1.33301 -99.5 -13 -120.5 -35
s-31.5 -63.333 -31.5 -124v-839c0 -111.333 -22 -217.833 -66 -319.5s-100.5 -188 -169.5 -259s-140.167 -106.5 -213.5 -106.5c-30.667 0 -65.667 6 -105 18v317h70z" />
    <glyph glyph-name="K" unicode="K" horiz-adv-x="1195" 
d="M59 1279l489.001 -0.000976562v-48c-60 -1.33301 -100.333 -12.833 -121 -34.5s-31 -63.167 -31 -124.5v-404l247 242c39.333 38.667 76.5 82.834 111.5 132.501s52.5 90.167 52.5 121.5c0 42.667 -34.333 65 -103 67v48h460v-48
c-86.667 -10.667 -179.334 -63.667 -278.001 -159l-324 -313l351 -469c120 -161.333 223 -242 309 -242v-48h-323l-503 675v-468c0 -102.667 50.667 -155.667 152 -159v-48h-489v48c60 0.666992 100.333 12.167 121 34.5s31 63.833 31 124.5v865
c0 65.333 -11.333 107.833 -34 127.5s-62 30.167 -118 31.5v48z" />
    <glyph glyph-name="L" unicode="L" horiz-adv-x="960" 
d="M65 1279l491.001 -0.000976562v-48c-60.667 -1.33301 -101.334 -12.666 -122.001 -33.999s-31 -63 -31 -125v-1024h130c202 0 322 106 360 318h72l-86 -413h-47c-0.666992 31.333 -15 47 -43 47h-724v48c59.333 0.666992 99.5 12.167 120.5 34.5s31.5 63.833 31.5 124.5
v865c0 64.667 -11.333 107 -34 127s-62 30.667 -118 32v48z" />
    <glyph glyph-name="M" unicode="M" horiz-adv-x="1813" 
d="M159 1279l327.001 0.000976562l429 -1058l246 581c92.667 218.667 153.667 377.667 183 477h357v-48c-58 -1.33301 -98.5 -11 -121.5 -29s-34.5 -51 -34.5 -99c0 -6.66699 0.333008 -14.334 1 -23.001l76 -798c9.33301 -98 24.833 -161 46.5 -189s65.5 -43 131.5 -45v-48
h-492v48c50 1.33301 85.333 11.333 106 30s31 55 31 109c0 10.667 -0.666992 22 -2 34l-78 795c-114 -202.667 -195.333 -361 -244 -475l-251 -588h-45l-468 1164l-34 -359c-15.333 -162 -23 -290.333 -23 -385c0 -210.667 52.667 -319 158 -325v-48h-452v48
c46.667 10.667 83.667 40.5 111 89.5s55.5 136.333 84.5 262s50.167 259.834 63.5 402.501l25 266c0.666992 12.667 1 26.334 1 41.001c0 47.333 -9.33301 79.166 -28 95.499s-53.334 25.166 -104.001 26.499v48z" />
    <glyph glyph-name="N" unicode="N" horiz-adv-x="1387" 
d="M66 1279h328l727 -977v297c0 190.667 -14.5 342 -43.5 454s-75.167 171.333 -138.5 178v48h437v-48c-122 -11.333 -183 -211.666 -183 -600.999v-676h-47l-863 1166v-372c0 -235.333 14.5 -408.833 43.5 -520.5s76.167 -171.5 141.5 -179.5v-48h-434v48
c121.333 18.667 182 248.334 182 689.001v345c0 59.333 -11.5 98.666 -34.5 117.999s-61.5 29.666 -115.5 30.999v48z" />
    <glyph glyph-name="O" unicode="O" horiz-adv-x="1493" 
d="M798 1308c112 0 211 -22 297 -66s161.333 -112.667 226 -206s97 -205.333 97 -336c0 -142 -40.167 -271.833 -120.5 -389.5s-174 -203.667 -281 -258s-219.167 -81.5 -336.5 -81.5c-168 0 -310.667 57.833 -428 173.5s-176 259.167 -176 430.5
c0 198 73.333 369.667 220 515s314 218 502 218zM673 1215c-123.333 0 -225.502 -43.167 -306.502 -129.5s-121.5 -200.5 -121.5 -342.5c0 -208.667 60.833 -374.667 182.5 -498s254.834 -185 399.501 -185c115.333 0 214.5 43.333 297.5 130s124.5 198 124.5 334
c0 127.333 -27.667 246.833 -83 358.5s-130.666 195 -225.999 250s-184.333 82.5 -267 82.5z" />
    <glyph glyph-name="P" unicode="P" horiz-adv-x="981" 
d="M59 1279l632.998 -0.000976562c110 0 190.667 -21.167 242 -63.5s77 -97.5 77 -165.5c0 -108.667 -50.5 -211.5 -151.5 -308.5s-204.833 -145.5 -311.5 -145.5c-23.333 0 -47.666 3.16699 -72.999 9.5s-51.666 15.5 -78.999 27.5v-426
c0 -102.667 50.667 -155.667 152 -159v-48h-489v48c60 0.666992 100.333 12 121 34s31 63.667 31 125v866c0 64.667 -11.333 106.834 -34 126.501s-62 30.167 -118 31.5v48zM395.998 1166l0.000976562 -399c42.667 -32 83.167 -56 121.5 -72s74.166 -24 107.499 -24
c62.667 0 109.667 21 141 63s47 105 47 189c0 86.667 -20.167 159.5 -60.5 218.5s-98.833 88.5 -175.5 88.5c-62 0 -122.333 -21.333 -181 -64z" />
    <glyph glyph-name="Q" unicode="Q" horiz-adv-x="1493" 
d="M420 41c-107.333 44.667 -190.664 115.999 -249.997 213.999s-89 207 -89 327c0 136.667 33.833 257.667 101.5 363s155.167 192.166 262.5 260.499s228 102.5 362 102.5c116 0 217.833 -24.333 305.5 -73s160.667 -118.167 219 -208.5s87.5 -197.833 87.5 -322.5
c0 -182 -59.333 -338.333 -178 -469s-255.667 -211.667 -411 -243c50 -12 123.333 -58.333 220 -139c99.333 -82 172.333 -123 219 -123c30 0 59.667 10 89 30s70.666 56 123.999 108v-64c-72 -82 -128 -138.833 -168 -170.5s-80.667 -47.5 -122 -47.5
c-28.667 0 -61.834 9.66699 -99.501 29s-102.167 67 -193.5 143c-40 32.667 -97.667 76.834 -173 132.501s-122.5 87.834 -141.5 96.501s-37.833 13 -56.5 13c-52 0 -121.333 -44 -208 -132v62c31.333 44 64.666 81 99.999 111zM676.002 1221
c-124.667 0 -227.334 -45.333 -308.001 -136s-121 -203.667 -121 -339c0 -130.667 25.833 -244.667 77.5 -342s121.834 -178 210.501 -242s186.667 -96 294 -96c118.667 0 219.334 44.167 302.001 132.5s124 199.833 124 334.5c0 125.333 -28.833 243 -86.5 353
s-132.834 193.333 -225.501 250s-181.667 85 -267 85z" />
    <glyph glyph-name="R" unicode="R" horiz-adv-x="1109" 
d="M56 1279h636c94.667 0 165.5 -18.333 212.5 -55s70.5 -91.667 70.5 -165c0 -82 -26.5 -158.5 -79.5 -229.5s-132.5 -136.833 -238.5 -197.5l223 -345c100 -154.667 192.333 -234.334 277 -239.001v-48h-240c-48 0 -90.667 28.667 -128 86l-396 616v-495
c0 -102.667 51.333 -155.667 154 -159v-48h-491v48c60 0.666992 100.333 12.167 121 34.5s31 63.833 31 124.5v866c0 64.667 -11.333 106.834 -34 126.501s-62 30.167 -118 31.5v48zM393 1182v-417.001c78 -56.667 145 -85 201 -85c58.667 0 102.667 19.833 132 59.5
s44 98.834 44 177.501c0 96 -21.667 172.5 -65 229.5s-96 85.5 -158 85.5c-54.667 0 -106 -16.667 -154 -50z" />
    <glyph glyph-name="S" unicode="S" horiz-adv-x="917" 
d="M220 749c-30.667 29.333 -53.8359 60.6709 -69.5029 94.0039s-23.5 68.333 -23.5 105c0 96 44 180 132 252s191 108 309 108c59.333 0 138.333 -17 237 -51v-314h-73c-5.33301 87.333 -32 158.666 -80 213.999s-106.667 83 -176 83c-56.667 0 -103.5 -17.5 -140.5 -52.5
s-55.5 -79.167 -55.5 -132.5c0 -51.333 18.333 -99.333 55 -144c36 -44.667 123 -113.334 261 -206.001c104.667 -70 175.334 -126.667 212.001 -170c36 -44 54 -98 54 -162c0 -104.667 -48.167 -197.834 -144.5 -279.501s-205.5 -122.5 -327.5 -122.5
c-87.333 0 -185.333 21 -294 63v360h71c0 -101.333 29.333 -186 88 -254s128.334 -102 209.001 -102c74 0 132.5 21.667 175.5 65s64.5 98.333 64.5 165c0 58 -17.667 109 -53 153c-35.333 43.333 -115.666 106.666 -240.999 189.999c-68.667 45.333 -132 91.333 -190 138z
" />
    <glyph glyph-name="T" unicode="T" horiz-adv-x="1067" 
d="M22 1324h44c8.66699 -30 21.667 -45 39 -45h874c22.667 0 34 15 34 45h48v-380h-71c-2 191.333 -103.333 287 -304 287h-54v-1024c0 -103.333 50.667 -156.333 152 -159v-48h-489v48c60 0.666992 100.333 12.167 121 34.5s31 63.833 31 124.5v1024h-69
c-184.667 0 -280 -95.667 -286 -287h-70v380z" />
    <glyph glyph-name="U" unicode="U" horiz-adv-x="1387" 
d="M925 1279h441v-48c-124.667 -18.667 -187 -227 -187 -625c0 -138 -2.83301 -236.5 -8.5 -295.5s-25.834 -114.333 -60.501 -166s-87.667 -93.5 -159 -125.5s-157 -48 -257 -48c-104.667 0 -193.834 15.333 -267.501 46s-130 74.834 -169 132.501s-58.5 128.5 -58.5 212.5
v710c0 65.333 -11.5 107.833 -34.5 127.5s-62.167 30.167 -117.5 31.5v48h489v-48c-59.333 -1.33301 -99.5 -12.833 -120.5 -34.5s-31.5 -63.167 -31.5 -124.5v-702c0 -66.667 10.333 -121.834 31 -165.501s58.834 -83 114.501 -118s124.834 -52.5 207.501 -52.5
s152.5 15 209.5 45s98.333 74.833 124 134.5s38.5 149.5 38.5 269.5c0 263.333 -13.833 452.333 -41.5 567s-75.167 175 -142.5 181v48z" />
    <glyph glyph-name="V" unicode="V" horiz-adv-x="1259" 
d="M38 1279l354 0.000976562v-48c-26 -0.666992 -39 -10.334 -39 -29.001c0 -10 3.66699 -26 11 -48l317 -914l203 515c56 142.667 84 256.667 84 342c0 44.667 -11.167 78 -33.5 100s-63.833 33.333 -124.5 34v48h449v-48c-72.667 -0.666992 -141.667 -83 -207 -247
l-408 -1028h-59l-360 1045c-52.667 152 -115 228.667 -187 230v48z" />
    <glyph glyph-name="W" unicode="W" horiz-adv-x="1984" 
d="M56 1279l348.999 0.000976562v-48c-24.667 -0.666992 -37 -11.667 -37 -33c0 -6 1.33301 -12.667 4 -20l317 -938l167 420c48.667 122.667 73 239.334 73 350.001c0 141.333 -56 215 -168 221v48h354v-48c-28.667 -0.666992 -43 -11.334 -43 -32.001
c0 -6 1.33301 -13 4 -21l321 -938l204 517c62.667 158.667 94 271.667 94 339c0 52 -12.167 87.167 -36.5 105.5s-66.166 28.166 -125.499 29.499v48h450v-48c-39.333 -0.666992 -76.333 -24 -111 -70s-70.667 -115.333 -108 -208l-400 -1000h-60l-290 845
c-64.667 -115.333 -117.334 -224.333 -158.001 -327l-204 -518h-58l-337 994c-5.33301 14.667 -22.666 55.5 -51.999 122.5s-55.5 110.167 -78.5 129.5s-46.5 30 -70.5 32v48z" />
    <glyph glyph-name="X" unicode="X" horiz-adv-x="1237" 
d="M66 1279l390.001 -0.000976562v-48c-26.667 -1.33301 -40 -9.66602 -40 -24.999c0 -5.33301 1.33301 -10.333 4 -15l240 -400c117.333 164.667 176 278.667 176 342c0 30 -9.83301 53.667 -29.5 71s-60.5 26.333 -122.5 27v48h479v-48
c-90.667 -13.333 -188 -90 -292 -230l-187 -255l258 -424l61 -100c20 -32.667 43.833 -63 71.5 -91s51.667 -47.5 72 -58.5s46.166 -19.167 77.499 -24.5v-48h-398v48c26.667 1.33301 40 11.666 40 30.999c0 6.66699 -2.33301 13.667 -7 21l-288 481
c-152 -198.667 -228 -342.667 -228 -432c0 -66 45 -99.667 135 -101v-48h-475v48c88 7.33301 186 87 294 239l245 343l-222 371c-88 146.667 -172.667 223.334 -254 230.001v48z" />
    <glyph glyph-name="Y" unicode="Y" horiz-adv-x="1195" 
d="M35 1279l363.001 0.000976562v-48c-25.333 -0.666992 -38 -9.66699 -38 -27c0 -5.33301 1.33301 -11.333 4 -18l314 -624c162 253.333 243 438 243 554c0 41.333 -12.167 70.666 -36.5 87.999s-66.5 26.333 -126.5 27v48h478v-48
c-38.667 -0.666992 -76.334 -18 -113.001 -52s-78.667 -91.333 -126 -172l-303 -516v-284c0 -102.667 50.667 -155.667 152 -159v-48h-489v48c59.333 0.666992 99.5 12.167 120.5 34.5s31.5 63.833 31.5 124.5v284l-250 502c-38 76 -74.167 134.5 -108.5 175.5
s-72.833 61.833 -115.5 62.5v48z" />
    <glyph glyph-name="Z" unicode="Z" horiz-adv-x="1216" 
d="M138 1324h46.002c1.33301 -30 14 -45 38 -45h896v-59l-826 -1172h301c170 0 294.167 24.167 372.5 72.5s129.166 130.833 152.499 247.5h72l-82 -412h-48c-1.33301 29.333 -9.33301 44 -24 44h-958v58l823 1173h-296c-141.333 0 -241.833 -22.167 -301.5 -66.5
s-91.834 -117.833 -96.501 -220.5h-69v380z" />
    <glyph glyph-name="bracketleft" unicode="[" horiz-adv-x="640" 
d="M214 1415h325v-62h-182v-1521h182v-62h-325v1645z" />
    <glyph glyph-name="backslash" unicode="\" horiz-adv-x="1045" 
d="M113 1426h110l709 -1463h-110z" />
    <glyph glyph-name="bracketright" unicode="]" horiz-adv-x="640" 
d="M135 1413h284v-1643h-284v62h141v1520h-141v61z" />
    <glyph glyph-name="asciicircum" unicode="^" horiz-adv-x="960" 
d="M498 1279l425 -717h-92l-350 586l-350 -586h-94l431 717h30z" />
    <glyph glyph-name="underscore" unicode="_" horiz-adv-x="1024" 
d="M-12 -154h1048v-102h-1048v102z" />
    <glyph glyph-name="grave" unicode="`" horiz-adv-x="683" 
d="M373 1064l-138.997 156c-30.667 34 -49.334 55.667 -56.001 65s-10 20 -10 32c0 16 5.66699 30.333 17 43s25.666 19 42.999 19c13.333 0 24.166 -3 32.499 -9s19.833 -24 34.5 -54l114 -231z" />
    <glyph glyph-name="a" unicode="a" horiz-adv-x="960" 
d="M155 792c153.333 101.333 297.667 152 433 152c63.333 0 109 -14 137 -42s41.667 -75.333 41 -142v-625c0 -30 13.667 -45 41 -45c26.667 0 73.667 30.667 141 92v-62c-101.333 -99.333 -184 -149 -248 -149c-57.333 0 -86 32 -86 96v148
c-83.333 -85.333 -153.833 -147.333 -211.5 -186s-112.167 -58 -163.5 -58c-50 0 -92.667 19.5 -128 58.5s-53 86.5 -53 142.5c0 144.667 185.333 300.667 556 468v120c0 36.667 -11 67 -33 91s-52.333 36 -91 36c-66 0 -124.667 -32 -176 -96s-82 -143.667 -92 -239h-67
v240zM625.001 559c-123.333 -25.333 -223.333 -68.832 -300 -130.499s-115 -124.834 -115 -189.501c0 -41.333 12.833 -74.333 38.5 -99s59.167 -37 100.5 -37c76.667 0 141.5 40.5 194.5 121.5s80.167 192.5 81.5 334.5z" />
    <glyph glyph-name="b" unicode="b" horiz-adv-x="1045" 
d="M332 1411l0.000976562 -40.9971c-18.667 -10.667 -28 -28.334 -28 -53.001v-685c125.333 144 213.666 231.833 264.999 263.5s103.666 47.5 156.999 47.5c85.333 0 153.5 -33.833 204.5 -101.5s76.5 -153.834 76.5 -258.501c0 -88 -18.667 -173.5 -56 -256.5
s-85.666 -151 -144.999 -204s-115.333 -86.667 -168 -101s-118 -21.5 -196 -21.5h-92c-70 0 -116.167 -4.83301 -138.5 -14.5s-39.166 -25.834 -50.499 -48.501h-67c17.333 31.333 31.166 72.333 41.499 123s15.5 88.667 15.5 114v985c0 58.667 -22.333 88 -67 88
c-20.667 0 -49 -7.66699 -85 -23v49zM304.001 156.003c81.333 -50 167.997 -74.999 259.997 -74.999c66.667 0 121.834 17.5 165.501 52.5s75.834 82.5 96.501 142.5s31 128.333 31 205c0 99.333 -19.333 178.666 -58 237.999s-92 89 -160 89
c-87.333 0 -167.166 -50 -239.499 -150s-108.5 -219.333 -108.5 -358c0 -42.667 4.33301 -90.667 13 -144z" />
    <glyph glyph-name="c" unicode="c" horiz-adv-x="917" 
d="M842 245c-146 -182.667 -287.332 -273.999 -423.999 -273.999c-88 0 -172.167 37.333 -252.5 112s-120.5 181 -120.5 319c0 143.333 48.833 269.666 146.5 378.999s214.834 164 351.501 164c83.333 0 173.666 -22 270.999 -66v-261h-73
c-2 79.333 -27.167 143.5 -75.5 192.5s-108.833 73.5 -181.5 73.5c-92 0 -164.167 -39.167 -216.5 -117.5s-78.5 -168.5 -78.5 -270.5c0 -110.667 28.667 -203.667 86 -279s131.333 -113 222 -113c55.333 0 109.166 16.333 161.499 49s113.5 86.667 183.5 162v-70z" />
    <glyph glyph-name="d" unicode="d" horiz-adv-x="1067" 
d="M595 1279l346.003 132.001v-41c-28.667 -11.333 -43 -34 -43 -68v-1118c0 -55.333 23.667 -83 71 -83c21.333 0 47.666 7.33301 78.999 22v-51l-255 -100h-47v323c-114.667 -146.667 -198.834 -237.334 -252.501 -272.001s-106.5 -52 -158.5 -52
c-87.333 0 -157.666 39.5 -210.999 118.5s-80 169.5 -80 271.5c0 140 51.667 272.167 155 396.5s217.666 186.5 342.999 186.5c28 0 59 -4.33301 93 -13s71 -22 111 -40v269c0 56.667 -21.667 85 -65 85c-22.667 0 -51.334 -7 -86.001 -21v55zM746.003 758.001
c-46.667 38.667 -92.3311 67.501 -136.998 86.501s-88.334 28.5 -131.001 28.5c-84.667 0 -152.834 -43.833 -204.501 -131.5s-77.5 -187.834 -77.5 -300.501c0 -94 22 -173.833 66 -239.5s98 -98.5 162 -98.5c90.667 0 169 59.333 235 178s99 237.334 99 356.001
c0 45.333 -4 85.666 -12 120.999z" />
    <glyph glyph-name="e" unicode="e" horiz-adv-x="896" 
d="M856 251c-148.667 -186.667 -293.667 -280.001 -435 -280.001c-99.333 0 -187 43.167 -263 129.5s-114 188.833 -114 307.5c0 136.667 45.167 259.834 135.5 369.501s196.833 164.5 319.5 164.5c98.667 0 177 -35 235 -105s88.667 -155.333 92 -256h-645
c-1.33301 -26 -2 -45 -2 -57c0 -118 31.333 -216.5 94 -295.5s140 -118.5 232 -118.5c114.667 0 231.667 69 351 207v-66zM662 630.999c-8 78.667 -33 139.667 -75 183s-91.667 65 -149 65c-60 0 -113.667 -23.5 -161 -70.5s-76.333 -106.167 -87 -177.5h472z" />
    <glyph glyph-name="f" unicode="f" horiz-adv-x="640" 
d="M53 839l44.001 0.00195312c16.667 0 36 6.5 58 19.5s42 51.5 60 115.5c36 127.333 88.667 224.666 158 291.999s142.666 101 219.999 101c24.667 0 58.667 -6.66699 102 -20v-253h-72c-3.33301 122.667 -44.333 184 -123 184c-44 0 -80.5 -23.333 -109.5 -70
s-43.5 -107.334 -43.5 -182.001c0 -124.667 57.667 -187 173 -187h83v-47h-245v-588c0 -59.333 12.333 -99.833 37 -121.5s63.334 -33.167 116.001 -34.5v-48h-458v48c57.333 1.33301 97.166 14 119.499 38s33.5 63.333 33.5 118v588h-153v47z" />
    <glyph glyph-name="g" unicode="g" horiz-adv-x="1024" 
d="M518 360c-8 -1.33301 -20.001 -2.99902 -36.001 -4.99902c-48 -8 -84 -12 -108 -12c-81.333 0 -149 22.167 -203 66.5s-81 101.833 -81 172.5c0 92 45.5 175 136.5 249s191.833 111 302.5 111c28.667 0 53 -2.66699 73 -8s57.333 -19 112 -41
c58 -24 99.667 -39.333 125 -46s55.333 -10 90 -10h71v-47h-204c16 -34.667 24 -66.334 24 -95.001c0 -40 -10.667 -81 -32 -123s-72.666 -98 -153.999 -168c-79.333 -68.667 -119 -117 -119 -145c0 -22 14.333 -41.667 43 -59c28 -18 77.667 -38.667 149 -62
c102.667 -34 178 -67.667 226 -101s72 -77.666 72 -132.999c0 -100 -64 -185.167 -192 -255.5s-272.333 -105.5 -433 -105.5c-118.667 0 -217.334 20.833 -296.001 62.5s-118 96.5 -118 164.5c0 67.333 44.167 127.5 132.5 180.5s207.5 94.167 357.5 123.5
c-24 17.333 -42.167 35.166 -54.5 53.499s-18.5 37.5 -18.5 57.5c0 27.333 9.33301 53 28 77s54.334 56.667 107.001 98zM463.999 882.001c-67.333 0 -119.666 -24.001 -156.999 -72.001s-56 -105.333 -56 -172c0 -67.333 18.667 -124.666 56 -171.999
s86.666 -71 147.999 -71c59.333 0 108.833 23.333 148.5 70s59.5 105 59.5 175c0 70.667 -19.167 128.667 -57.5 174s-85.5 68 -141.5 68zM517.999 48c-136.667 -34.667 -239.334 -73.8311 -308.001 -117.498s-103 -91.5 -103 -143.5
c0 -46.667 28.167 -88.834 84.5 -126.501s140.833 -56.5 253.5 -56.5c130 0 232.333 24.667 307 74s112 105.666 112 168.999c0 34.667 -15.167 62 -45.5 82s-92.166 46 -185.499 78z" />
    <glyph glyph-name="h" unicode="h" 
d="M394 1416v-42.999c-27.333 -10.667 -41 -34.667 -41 -72v-688c78 110.667 152 193.667 222 249s136 83 198 83c51.333 0 91.333 -18.333 120 -55c28.667 -37.333 43 -92 43 -164v-522c0 -57.333 11.5 -97.333 34.5 -120s62.5 -34.667 118.5 -36v-48h-349v48
c29.333 1.33301 44 19.333 44 54v597c0 43.333 -8.83301 75.833 -26.5 97.5s-44.167 32.5 -79.5 32.5c-82.667 0 -159.5 -60.5 -230.5 -181.5s-106.5 -253.5 -106.5 -397.5c0 -134.667 41 -202 123 -202h40v-48h-454v48c51.333 1.33301 89.333 12.666 114 33.999
s37 62 37 122v987c0 39.333 -22 59 -66 59c-24.667 0 -53 -6.33301 -85 -19v48z" />
    <glyph glyph-name="i" unicode="i" horiz-adv-x="555" 
d="M286 1360c28.667 0 52.1689 -9.5 70.502 -28.5s27.5 -41.5 27.5 -67.5s-9.33301 -48.333 -28 -67s-41.334 -28 -68.001 -28c-26 0 -48.333 9.16699 -67 27.5s-28 40.833 -28 67.5c0 28 9.66699 51 29 69s40.666 27 63.999 27zM59.002 48
c51.333 1.33301 89.666 12.5 114.999 33.5s38 61.833 38 122.5v547c0 42 -24 63 -72 63c-17.333 0 -36.333 -4.33301 -57 -13c-10.667 -4.66699 -18.667 -7.66699 -24 -9v51l256 101h49v-740c0 -59.333 12.333 -99.833 37 -121.5s63.334 -33.167 116.001 -34.5v-48h-458v48z
" />
    <glyph glyph-name="j" unicode="j" horiz-adv-x="533" 
d="M281 1359c28 0 51.167 -9.33301 69.5 -28s27.5 -41 27.5 -67s-9.33301 -48.333 -28 -67s-41 -28 -67 -28c-26.667 0 -49.167 9.33301 -67.5 28s-27.5 41 -27.5 67c0 26.667 9.5 49.167 28.5 67.5s40.5 27.5 64.5 27.5zM54 838l259.001 104h45v-867
c0 -118 -38 -236.333 -114 -355s-165 -178 -267 -178c-33.333 0 -69 7.66699 -107 23v271h72c0.666992 -66 13.167 -116 37.5 -150s54.166 -51 89.499 -51s67 22.333 95 67s42 99.667 42 165v849c0 62 -23.667 93 -71 93c-22.667 0 -49.667 -7.33301 -81 -22v51z" />
    <glyph glyph-name="k" unicode="k" horiz-adv-x="1024" 
d="M355 489v-284.998l-1 -23c0 -86.667 51.333 -131 154 -133v-48h-457v48c52 1.33301 90.333 12.5 115 33.5s37 61.833 37 122.5v936c0 71.333 -24 107 -72 107c-19.333 0 -46 -5.33301 -80 -16v48l344 137v-41c-26.667 -8.66699 -40 -28.667 -40 -60v-826l175 145l9 10
l45 40c50 44 75 84.667 75 122c0 41.333 -40 62.666 -120 63.999v46h469v-46c-83.333 -1.33301 -185 -52.333 -305 -153l-203 -168l197 -250c130.667 -166.667 248 -250.334 352 -251.001v-48h-308z" />
    <glyph glyph-name="l" unicode="l" horiz-adv-x="555" 
d="M408 1375c-28.667 -14 -42.999 -38.333 -42.999 -73v-1098c0 -58.667 12.167 -99 36.5 -121s63.166 -33.667 116.499 -35v-48h-459v48c54.667 1.33301 94 13.333 118 36s36 62.667 36 120v951c0 61.333 -25.333 92 -76 92c-21.333 0 -47.333 -5.33301 -78 -16v48l349 137
v-41z" />
    <glyph glyph-name="m" unicode="m" horiz-adv-x="1643" 
d="M902 647c103.333 130 181.166 211.998 233.499 245.998s103.833 51 154.5 51c47.333 0 86.666 -16.333 117.999 -49c30.667 -32.667 46 -76.334 46 -131.001v-560c0 -59.333 12.167 -99.833 36.5 -121.5s63.166 -33.167 116.499 -34.5v-48h-348v48
c28.667 0.666992 43 16.334 43 47.001v573c0 54 -8.83301 94.333 -26.5 121s-44.167 40 -79.5 40c-77.333 0 -147.666 -56.667 -210.999 -170s-95 -243.333 -95 -390c0 -83.333 12.667 -140.666 38 -171.999s67.333 -47.666 126 -48.999v-48h-345v48
c28 1.33301 42 13.666 42 36.999v615c0 38 -9.5 68.667 -28.5 92s-42.833 35 -71.5 35c-80 0 -151.333 -56.5 -214 -169.5s-94 -243.833 -94 -392.5c0 -81.333 12.333 -137.833 37 -169.5s66.334 -47.5 125.001 -47.5v-48h-453v48c54 1.33301 92.5 13.333 115.5 36
s34.5 62.667 34.5 120v524c0 55.333 -21.667 83 -65 83c-21.333 0 -49.666 -7.33301 -84.999 -22v50l255 102h47v-304c100.667 134.667 177.667 219.334 231 254.001s105 52 155 52c54.667 0 95.5 -19.333 122.5 -58s40.5 -97 40.5 -175c0 -17.333 -0.333008 -38.333 -1 -63
z" />
    <glyph glyph-name="n" unicode="n" 
d="M52 839l260.001 106.001h42v-329c96 128 175 214.833 237 260.5s120.667 68.5 176 68.5c112.667 0 169 -72.333 169 -217v-524c0 -59.333 12.167 -99.833 36.5 -121.5s63.166 -33.167 116.499 -34.5v-48h-348v48c28 1.33301 42 17.666 42 48.999v618
c0 34.667 -9 62.5 -27 83.5s-41.333 31.5 -70 31.5c-84 0 -162.167 -59.5 -234.5 -178.5s-108.5 -255.5 -108.5 -409.5c0 -78 12 -129.5 36 -154.5s66.667 -38.167 128 -39.5v-48h-455v48c54 1.33301 92.833 13 116.5 35s35.5 62.333 35.5 121v511c0 66 -22 99 -66 99
c-16 0 -44.667 -8.33301 -86 -25v50z" />
    <glyph glyph-name="o" unicode="o" horiz-adv-x="1003" 
d="M542 942c126 0 226.833 -39.499 302.5 -118.499s113.5 -184.167 113.5 -315.5c0 -156 -52.667 -284.5 -158 -385.5s-221.333 -151.5 -348 -151.5s-226.667 40.167 -300 120.5s-110 184.833 -110 313.5c0 153.333 52.167 281.166 156.5 383.499s218.833 153.5 343.5 153.5
zM457 864.001c-90.667 0 -160.003 -32.335 -208.003 -97.002s-72 -145.667 -72 -243c0 -120 37.833 -227.167 113.5 -321.5s163.834 -141.5 264.501 -141.5c74.667 0 137.834 31 189.501 93s77.5 143 77.5 243c0 92.667 -20.667 175.834 -62 249.501
s-88.666 128.334 -141.999 164.001s-107 53.5 -161 53.5z" />
    <glyph glyph-name="p" unicode="p" horiz-adv-x="1088" 
d="M338 18l-0.00195312 -236c0 -58.667 12 -99.5 36 -122.5s63.667 -34.833 119 -35.5v-49h-457v49c56 0.666992 95.333 13 118 37s34 64.333 34 121v956c0 50 -19.667 75 -59 75c-14 0 -45 -8.66699 -93 -26v50l257 105h45v-325c94.667 130 171.834 217 231.501 261
s119.834 66 180.501 66c80 0 148.833 -33.833 206.5 -101.5s86.5 -157.5 86.5 -269.5c0 -157.333 -52.167 -297 -156.5 -419s-221.5 -183 -351.5 -183c-30 0 -61.5 4 -94.5 12s-67.167 19.667 -102.5 35zM337.998 146c46.667 -38 90.667 -66.501 132 -85.501
s80 -28.5 116 -28.5c84 0 156 42.333 216 127s90 192.334 90 323.001c0 102 -19.5 185.333 -58.5 250s-91.5 97 -157.5 97c-86.667 0 -166.5 -56.333 -239.5 -169s-109.5 -242 -109.5 -388c0 -31.333 3.66699 -73.333 11 -126z" />
    <glyph glyph-name="q" unicode="q" horiz-adv-x="1067" 
d="M961 972c-42 -73.333 -63.001 -172.333 -63.001 -297v-896c0 -56.667 11.5 -97 34.5 -121s62.5 -36.333 118.5 -37v-48h-458v48c55.333 0.666992 94.333 13 117 37s34 64.333 34 121v500c-110 -126 -195.667 -208.833 -257 -248.5s-122.333 -59.5 -183 -59.5
c-76.667 0 -139.167 35 -187.5 105s-72.5 157 -72.5 261c0 120 34 228.333 102 325s139.333 162.5 214 197.5s169.667 52.5 285 52.5l96 -1c92.667 0 148.334 20.333 167.001 61h53zM743.999 763c-89.333 52 -173.668 78 -253.001 78
c-83.333 0 -152.166 -38.667 -206.499 -116s-81.5 -178.333 -81.5 -303c0 -112 22.167 -193.667 66.5 -245s92.5 -77 144.5 -77c81.333 0 158.833 51.5 232.5 154.5s110.5 229.167 110.5 378.5c0 38 -4.33301 81.333 -13 130z" />
    <glyph glyph-name="r" unicode="r" horiz-adv-x="811" 
d="M51 837l263.001 107.001h44v-325c68.667 117.333 130 200.5 184 249.5s109.333 73.5 166 73.5c22 0 48.333 -5 79 -15v-308h-71c-0.666992 120.667 -35.667 181 -105 181c-68.667 0 -129.834 -56.167 -183.501 -168.5s-80.5 -239.5 -80.5 -381.5
c0 -84 15.5 -138.667 46.5 -164s90.167 -38 177.5 -38v-48h-520v48c54.667 1.33301 94 13.166 118 35.499s36 62.5 36 120.5v519c0 58.667 -21.667 88 -65 88c-18 0 -47.667 -7.33301 -89 -22v48z" />
    <glyph glyph-name="s" unicode="s" horiz-adv-x="747" 
d="M150 308c5.33301 -86.667 30.167 -154.003 74.5 -202.003s97.5 -72 159.5 -72c51.333 0 93.333 15.667 126 47s49 71 49 119c0 42.667 -12.333 78.667 -37 108c-25.333 28.667 -75 66.334 -149 113.001l-144 93.5c-43.333 29 -73.333 58.5 -90 88.5
c-17.333 30 -26 60.667 -26 92c0 64.667 29.833 122.334 89.5 173.001s138.834 76 237.501 76c60.667 0 126 -13.333 196 -40v-262h-72c-0.666992 74 -21.334 133.333 -62.001 178s-87.334 67 -140.001 67c-37.333 0 -66.5 -11.833 -87.5 -35.5s-31.5 -51.5 -31.5 -83.5
c0 -36 12 -67 36 -93c23.333 -26.667 70.333 -62 141 -106c121.333 -76.667 197.333 -130.667 228 -162c30.667 -32 46 -74.333 46 -127c0 -83.333 -36.833 -155.666 -110.5 -216.999s-158.5 -92 -254.5 -92c-71.333 0 -153.666 20 -246.999 60v277h68z" />
    <glyph glyph-name="t" unicode="t" horiz-adv-x="597" 
d="M396 1231l-0.00292969 -51.998c-42 -10 -63 -57.333 -63 -142c0 -57.333 4.83301 -97.333 14.5 -120s26.667 -41.334 51 -56.001s56.833 -22 97.5 -22h83v-45h-245v-642c0 -20.667 4.16699 -36.334 12.5 -47.001s20.833 -16 37.5 -16c32.667 0 81.334 26.667 146.001 80
c7.33301 6 13 10.333 17 13v-58c-113.333 -102 -203.666 -153 -270.999 -153c-31.333 0 -54.833 12.167 -70.5 36.5s-23.5 60.5 -23.5 108.5v678h-153v45c58.667 0 100.334 11.667 125.001 35s37 64.333 37 123v151z" />
    <glyph glyph-name="u" unicode="u" 
d="M31 880l343 61v-39c-28 -8 -42 -31 -42 -69v-619c0 -40.667 9 -72.667 27 -96s42 -35 72 -35c76.667 0 153 57.667 229 173s114 251 114 407c0 60 -7.83301 104.667 -23.5 134s-43.5 44 -83.5 44c-12.667 0 -31.667 -2.66699 -57 -8v47l348 61v-39
c-29.333 -4.66699 -44 -27.667 -44 -69v-643c0 -62 23 -93 69 -93c27.333 0 62.333 10 105 30v-49l-276 -110h-49v332c-104.667 -142.667 -187.5 -233.167 -248.5 -271.5s-117.5 -57.5 -169.5 -57.5c-110 0 -165 78 -165 234v547c0 58 -31 87 -93 87
c-13.333 0 -32 -2 -56 -6v47z" />
    <glyph glyph-name="v" unicode="v" horiz-adv-x="981" 
d="M13 916l322 -0.000976562v-48c-25.333 0 -38 -12 -38 -36c0 -12 3.33301 -28 10 -48l213 -600l126 313c42 104 63 188 63 252c0 42 -11.333 72.167 -34 90.5s-59.667 27.833 -111 28.5v48h427v-48c-76 -8 -147.667 -91.667 -215 -251l-281 -663h-53l-255 720
c-45.333 128.667 -103.333 193.334 -174 194.001v48z" />
    <glyph glyph-name="w" unicode="w" horiz-adv-x="1536" 
d="M26 916l319.997 -0.000976562v-48c-26 -0.666992 -39 -11 -39 -31c0 -9.33301 2.33301 -20.666 7 -33.999l214 -621l113 272c48 116 72 213.667 72 293c0 78.667 -47.333 119 -142 121v48h325v-48c-28.667 0 -43 -9.66699 -43 -29c0 -9.33301 3.33301 -23.333 10 -42
l214 -615l124 302c44 106.667 66 195.667 66 267c0 38 -11 67 -33 87s-59.667 30 -113 30v48h429v-48c-44 -6.66699 -82.667 -30.5 -116 -71.5s-71.666 -113.167 -114.999 -216.5l-262 -626h-60l-214 616c-31.333 -58.667 -55.666 -106 -72.999 -142l-35 -72
c-13.333 -25.333 -24.666 -50 -33.999 -74l-134 -328h-60l-230 667c-32.667 96.667 -63.167 161.5 -91.5 194.5s-61.5 50.5 -99.5 52.5v48z" />
    <glyph glyph-name="x" unicode="x" horiz-adv-x="1067" 
d="M71 916l365.999 0.00195312v-48c-26.667 -0.666992 -40 -10 -40 -28c0 -8.66699 2.66699 -16.667 8 -24l169 -246c34 39.333 64.167 77.333 90.5 114s39.5 73.334 39.5 110.001c0 48 -33 72.667 -99 74v48h405v-48c-53.333 -2.66699 -107.333 -26.834 -162 -72.501
s-135.667 -136.5 -243 -272.5l202 -285c33.333 -47.333 69.833 -90.333 109.5 -129s84.167 -59 133.5 -61v-48h-358v48c22 0 33 7 33 21c0 12 -5.66699 24.667 -17 38l-202 293c-55.333 -65.333 -94.166 -117.333 -116.499 -156s-33.5 -75.334 -33.5 -110.001
c0 -56 40 -84.667 120 -86v-48h-445v48c83.333 7.33301 186.666 85.333 309.999 234l135 164l-168 238c-40 56.667 -78.667 101.167 -116 133.5s-77.666 49.166 -120.999 50.499v48z" />
    <glyph glyph-name="y" unicode="y" horiz-adv-x="960" 
d="M-2 916l323.998 0.00195312v-48c-25.333 -1.33301 -38 -9.33301 -38 -24c0 -8 2 -16.333 6 -25l248 -617l98 261c44 117.333 66 214.666 66 291.999c0 40.667 -11.167 69.667 -33.5 87s-58.833 26 -109.5 26v48h417v-48c-42.667 -2.66699 -75.5 -16.5 -98.5 -41.5
s-52.5 -79.833 -88.5 -164.5l-343 -890c-52.667 -136.667 -152 -211.334 -298 -224.001l-162 191l54 43c52.667 -65.333 111.334 -98 176.001 -98c34 0 65.333 10.667 94 32s50.334 46.5 65.001 75.5s37 82.833 67 161.5l16 41l-273 679c-29.333 73.333 -57.333 124 -84 152
s-61 42.333 -103 43v48z" />
    <glyph glyph-name="z" unicode="z" horiz-adv-x="917" 
d="M125 961h48v-8c0 -24.667 17.333 -37 52 -37h604v-49l-586 -819h214c212.667 0 322.334 85.333 329.001 256h67v-350h-47c-1.33301 18.667 -7.33301 31 -18 37s-32 9 -64 9h-663v48l584 820h-188c-168.667 0 -257.334 -75 -266.001 -225h-66v318z" />
    <glyph glyph-name="braceleft" unicode="{" horiz-adv-x="981" 
d="M287 462v38c89.333 19.333 151.5 50.166 186.5 92.499s52.5 84.5 52.5 126.5c0 33.333 -5.33301 74 -16 122c-18 86 -27 148.667 -27 188c0 94 31.333 177 94 249s147.667 117 255 135v-40c-68 -10 -122 -36.667 -162 -80s-60 -92.666 -60 -147.999
c0 -32 4.33301 -70.333 13 -115c20 -108 30 -178 30 -210c0 -74 -26 -140 -78 -198s-121.333 -104 -208 -138c188.667 -77.333 283 -194 283 -350c0 -34 -9 -93.667 -27 -179c-11.333 -56 -17 -101 -17 -135c0 -120 75.333 -197.667 226 -233v-36
c-105.333 18.667 -190.333 64.167 -255 136.5s-97 155.5 -97 249.5c0 38 8.66699 97 26 177c12.667 54 19 91.333 19 112c0 68.667 -25.167 123.5 -75.5 164.5s-104.5 64.833 -162.5 71.5z" />
    <glyph glyph-name="bar" unicode="|" horiz-adv-x="1045" 
d="M468 1416h109v-1841h-109v1841z" />
    <glyph glyph-name="braceright" unicode="}" horiz-adv-x="981" 
d="M695 501v-36.998c-89.333 -19.333 -151.5 -50.166 -186.5 -92.499s-52.5 -84.833 -52.5 -127.5c0 -33.333 5 -74 15 -122c18.667 -86 28 -148.333 28 -187c0 -94 -31.5 -177.167 -94.5 -249.5s-147.833 -117.166 -254.5 -134.499v40c67.333 10 121 36.667 161 80
s60 92.666 60 147.999c0 31.333 -4 69.333 -12 114c-20 108.667 -30 179 -30 211c0 73.333 26 139.166 78 197.499s121 104.5 207 138.5c-188 77.333 -282 193.666 -282 348.999c0 34.667 8.66699 94.667 26 180c12 56 18 101 18 135c0 120 -75.333 197.667 -226 233v36
c105.333 -19.333 190.333 -65 255 -137s97 -155 97 -249c0 -38.667 -9 -97.667 -27 -177c-12 -54 -18 -91.667 -18 -113c0 -58.667 21.5 -109.834 64.5 -153.501s100.833 -71.167 173.5 -82.5z" />
    <glyph glyph-name="asciitilde" unicode="~" horiz-adv-x="1365" 
d="M1171 789l47.998 0.000976562c-2 -88 -26.667 -158 -74 -210s-106 -78 -176 -78c-34.667 0 -71.167 6 -109.5 18s-126.5 46.333 -264.5 103c-102 42 -175 63 -219 63c-98 0 -158.667 -60.667 -182 -182h-47c3.33301 97.333 29.333 169.666 78 216.999s102.667 71 162 71
c64 0 191 -40.667 381 -122c101.333 -43.333 174.333 -65 219 -65c50.667 0 92.834 16.333 126.501 49s52.834 78 57.501 136z" />
    <glyph glyph-name="nonbreakingspace" unicode="&#xa0;" horiz-adv-x="512" 
 />
    <glyph glyph-name="exclamdown" unicode="&#xa1;" horiz-adv-x="619" 
d="M310 884c35.333 0 64.499 -11.833 87.499 -35.5s34.5 -51.5 34.5 -83.5c0 -33.333 -11.667 -61.666 -35 -84.999s-51.666 -35 -84.999 -35c-32.667 0 -60.667 11.667 -84 35s-35 51.666 -35 84.999s12 61.5 36 84.5s51 34.5 81 34.5zM238.999 549l141 -0.000976562
l26 -754c2 -70.667 13.5 -116.667 34.5 -138s60.167 -32.666 117.5 -33.999v-49h-509v49h32c74 0 113.333 42.333 118 127z" />
    <glyph glyph-name="cent" unicode="&#xa2;" horiz-adv-x="917" 
d="M445 1279h71.998v-151c102.667 0 201.334 -20.667 296.001 -62v-263h-69c-6 73.333 -30.167 134 -72.5 182s-93.833 75 -154.5 81v-776c92 1.33301 200.333 72.333 325 213v-78c-113.333 -139.333 -221.666 -225.333 -324.999 -258v-167h-72v153
c-62 0 -122 12.667 -180 38s-109.167 73 -153.5 143s-66.5 152.667 -66.5 248c0 134 40.5 251.5 121.5 352.5s173.833 162.833 278.5 185.5v159zM444.998 294v772c-77.333 -13.333 -139.5 -57 -186.5 -131s-70.5 -158.333 -70.5 -253c0 -93.333 22.5 -177.333 67.5 -252
s108.167 -120 189.5 -136z" />
    <glyph glyph-name="sterling" unicode="&#xa3;" horiz-adv-x="1195" 
d="M154 739l106 -0.000976562c37.333 0 56 11.667 56 35c0 7.33301 -3.66699 20.333 -11 39c-20 50.667 -30 96.334 -30 137.001c0 108 51.333 194.667 154 260s206.334 98 311.001 98c72 0 173 -20.667 303 -62v-302h-72c-10 94 -42.833 168.833 -98.5 224.5
s-119.834 83.5 -192.501 83.5c-70 0 -129.167 -23.5 -177.5 -70.5s-72.5 -106.833 -72.5 -179.5c0 -76 28.667 -138.833 86 -188.5s133 -74.5 227 -74.5h145v-69h-287c8.66699 -20 13 -39 13 -57c0 -40 -12.333 -82 -37 -126s-78.667 -121.333 -162 -232
c12 3.33301 23.333 5.83301 34 7.5s21 2.5 31 2.5c36.667 0 114 -19.667 232 -59c146 -49.333 232.667 -74 260 -74c67.333 0 127.333 61.667 180 185l44 -15c-43.333 -114.667 -84.5 -198.5 -123.5 -251.5s-84.833 -79.5 -137.5 -79.5c-48.667 0 -132.667 21.333 -252 64
c-122 43.333 -207 65 -255 65c-41.333 0 -80 -12.667 -116 -38s-69 -63.333 -99 -114h-59c21.333 37.333 64.333 102 129 194c78.667 112.667 127.667 191.167 147 235.5s29 85.5 29 123.5c0 60.667 -21.333 117 -64 169h-241v69z" />
    <glyph glyph-name="currency" unicode="&#xa4;" horiz-adv-x="1387" 
d="M971 995l126.001 126l73 -76l-125 -125c64 -84.667 96 -177 96 -277c0 -100.667 -32 -193 -96 -277l125 -125l-73 -74l-126 125c-42 -32 -86.167 -56.167 -132.5 -72.5s-94.833 -24.5 -145.5 -24.5c-101.333 0 -193.666 32 -276.999 96l-126 -124l-75 74l126 124
c-64 84 -96 176.667 -96 278c0 100 32 192.667 96 278l-126 124l74 76l126 -125c43.333 32 88.166 55.833 134.499 71.5s94.166 23.5 143.499 23.5c99.333 0 192 -32 278 -96zM1034 643c0 94.667 -33.334 175.333 -100.001 242s-147 100 -241 100
s-174.5 -33.5 -241.5 -100.5s-100.5 -147.5 -100.5 -241.5s33.333 -174.333 100 -241s147.334 -100 242.001 -100c94 0 174.333 33.333 241 100s100 147 100 241z" />
    <glyph glyph-name="yen" unicode="&#xa5;" horiz-adv-x="1195" 
d="M735 561l417.001 0.000976562v-72h-458v-145h458v-72h-458v-65c0 -102.667 50.667 -155.667 152 -159v-48h-489v48c59.333 0.666992 99.5 12.167 120.5 34.5s31.5 63.833 31.5 124.5v65h-401v72h401v145h-401v72h366l-215 432c-38 76 -74.167 134.5 -108.5 175.5
s-72.833 61.833 -115.5 62.5v48h363v-48c-25.333 -0.666992 -38 -9.66699 -38 -27c0 -5.33301 1.33301 -11.333 4 -18l314 -624c162 253.333 243 438 243 554c0 41.333 -12.167 70.666 -36.5 87.999s-66.5 26.333 -126.5 27v48h478v-48
c-38.667 -0.666992 -76.334 -18 -113.001 -52s-78.667 -91.333 -126 -172z" />
    <glyph glyph-name="brokenbar" unicode="&#xa6;" horiz-adv-x="1045" 
d="M468 1416h109v-758h-109v758zM468 333h109v-758h-109v758z" />
    <glyph glyph-name="section" unicode="&#xa7;" horiz-adv-x="853" 
d="M350 762c-89.333 57.333 -149.832 107.164 -181.499 149.497s-47.5 91.5 -47.5 147.5c0 87.333 32 159.666 96 216.999s154.333 86 271 86c74 0 148 -14.667 222 -44v-253h-70c-10.667 76 -35.834 135.5 -75.501 178.5s-88.5 64.5 -146.5 64.5
c-56 0 -100.667 -18.167 -134 -54.5s-50 -77.166 -50 -122.499s14.667 -85 44 -119c29.333 -34.667 88.666 -80 177.999 -136c144 -91.333 231.333 -163.666 262 -216.999c30 -54 45 -109.333 45 -166c0 -137.333 -77.667 -242 -233 -314
c102.667 -71.333 166.667 -127.333 192 -168s38 -85.667 38 -135c0 -94.667 -42 -173 -126 -235s-180.667 -93 -290 -93c-76.667 0 -156 19 -238 57v273h74c1.33301 -83.333 23 -148.666 65 -195.999s94.333 -71 157 -71c62 0 115.667 21.333 161 64s68 92.667 68 150
c0 47.333 -15.333 88.666 -46 123.999c-31.333 34.667 -97.333 82.334 -198 143.001c-130 79.333 -211.167 144.333 -243.5 195s-48.5 103.334 -48.5 158.001c0 71.333 21.333 133.5 64 186.5s106.334 96.5 191.001 130.5zM411.001 714.998
c-58.667 -14.667 -106.832 -40.667 -144.499 -78s-56.5 -83 -56.5 -137c0 -43.333 17.667 -85.5 53 -126.5s107.666 -94.5 216.999 -160.5c119.333 59.333 179 133.333 179 222c0 47.333 -16.667 91.5 -50 132.5s-99.333 90.167 -198 147.5z" />
    <glyph glyph-name="dieresis" unicode="&#xa8;" horiz-adv-x="683" 
d="M160 1322c29.333 0 53.667 -9.83301 73 -29.5s29 -43.167 29 -70.5c0 -28.667 -10 -52.667 -30 -72s-43.667 -29 -71 -29s-50.833 9.83301 -70.5 29.5s-29.5 43.5 -29.5 71.5s10 51.667 30 71s43 29 69 29zM523.001 1322c30 0 54.667 -10 74 -30s29 -43.667 29 -71
c0 -28 -10 -51.833 -30 -71.5s-43.667 -29.5 -71 -29.5c-28 0 -51.833 9.83301 -71.5 29.5s-29.5 43.5 -29.5 71.5c0 28.667 10 52.667 30 72s43 29 69 29z" />
    <glyph glyph-name="copyright" unicode="&#xa9;" horiz-adv-x="1567" 
d="M783 1308c194 0 360.501 -69 499.501 -207s208.5 -305 208.5 -501c0 -194 -69.333 -360.333 -208 -499s-305.334 -208 -500.001 -208c-195.333 0 -362 69.167 -500 207.5s-207 304.833 -207 499.5c0 196 69.333 363 208 501s305 207 499 207zM783.001 1253
c-179.333 0 -333.168 -63.8311 -461.501 -191.498s-192.5 -281.834 -192.5 -462.501c0 -180 63.833 -334 191.5 -462s281.834 -192 462.501 -192c180 0 334 64.167 462 192.5s192 282.166 192 461.499c0 116 -30 226.167 -90 330.5s-141.5 184.333 -244.5 240
s-209.5 83.5 -319.5 83.5zM1099 1068l19 -293h-29c-46.667 164 -141.334 246 -284.001 246c-94 0 -168.333 -39 -223 -117s-82 -174 -82 -288c0 -128 30.167 -225 90.5 -291s137.5 -99 231.5 -99c115.333 0 214 57.333 296 172l22 -15
c-85.333 -145.333 -201.666 -218 -348.999 -218c-118 0 -218.5 40.833 -301.5 122.5s-124.5 188.5 -124.5 320.5s42.833 241.167 128.5 327.5s186.167 129.5 301.5 129.5c54 0 111.333 -12.333 172 -37c25.333 -10 46 -15 62 -15c26 0 39.333 18.333 40 55h30z" />
    <glyph glyph-name="ordfeminine" unicode="&#xaa;" horiz-adv-x="640" 
d="M102 1211c100.667 67.333 196.669 101 288.002 101c40 0 69.667 -9.33301 89 -28c18.667 -18.667 28 -40.334 28 -65.001v-434c0 -25.333 8 -38 24 -38c22 0 54.333 19.333 97 58v-38c-66.667 -66.667 -121.334 -100 -164.001 -100c-38 0 -57 22.667 -57 68v95
c-102.667 -106.667 -184.334 -160 -245.001 -160c-34 0 -63.167 13 -87.5 39s-36.5 57.333 -36.5 94c0 92 123 195.333 369 310v68c0 32 -6.5 55.833 -19.5 71.5s-32.5 23.5 -58.5 23.5c-42 0 -81.5 -19.667 -118.5 -59s-57.833 -93.666 -62.5 -162.999h-46v157z
M413.002 1054c-81.333 -16.667 -147.332 -44.833 -197.999 -84.5s-76 -81.167 -76 -124.5c0 -30 7.66699 -52.5 23 -67.5s38 -22.5 68 -22.5c52 0 95.167 26.667 129.5 80s52.166 126.333 53.499 219z" />
    <glyph glyph-name="guillemotleft" unicode="&#xab;" horiz-adv-x="811" 
d="M441 915v-75l-230 -384l224 -379v-77l-382 456zM747 910v-73l-228 -381l222 -381v-75l-383 456z" />
    <glyph glyph-name="logicalnot" unicode="&#xac;" horiz-adv-x="1365" 
d="M142 935h1080v-574h-108v466h-972v108z" />
    <glyph glyph-name="registered" unicode="&#xae;" horiz-adv-x="1567" 
d="M783 1308c194 0 360.501 -69 499.501 -207s208.5 -305 208.5 -501c0 -194 -69.333 -360.333 -208 -499s-305.334 -208 -500.001 -208c-195.333 0 -362 69.167 -500 207.5s-207 304.833 -207 499.5c0 196 69.333 363 208 501s305 207 499 207zM783.001 1253
c-179.333 0 -333.168 -63.8311 -461.501 -191.498s-192.5 -281.834 -192.5 -462.501c0 -180 63.833 -334 191.5 -462s281.834 -192 462.501 -192c180 0 334 64.167 462 192.5s192 282.166 192 461.499c0 116 -30 226.167 -90 330.5s-141.5 184.333 -244.5 240
s-209.5 83.5 -319.5 83.5zM623.999 580.002l0.000976562 -227.996c0 -58.667 5 -94.167 15 -106.5s20.5 -21 31.5 -26s38.167 -7.83301 81.5 -8.5v-36h-366v36c54.667 0 88.5 8 101.5 24s19.5 54.667 19.5 116v526c0 55.333 -8 91.166 -24 107.499
s-48.333 24.166 -97 23.499v32h254c97.333 0 169.333 -5.16699 216 -15.5s87.167 -34.333 121.5 -72s51.5 -83.167 51.5 -136.5c0 -58.667 -20 -107.334 -60 -146.001s-94.333 -61.334 -163 -68.001l165 -224c44.667 -60.667 80.5 -103.5 107.5 -128.5
s64.167 -37.833 111.5 -38.5v-36h-204c-0.666992 4 -19.334 30.333 -56.001 79l-25 35l-210 291h-71zM624 622.006c13.333 -0.666992 23.333 -1.00195 30 -1.00195c87.333 0 150 19.833 188 59.5s57 88.834 57 147.501c0 50.667 -16 91.334 -48 122.001s-79 46 -141 46
c-30 0 -58.667 -5.66699 -86 -17v-357z" />
    <glyph glyph-name="macron" unicode="&#xaf;" horiz-adv-x="683" 
d="M82 1276h521v-108h-521v108z" />
    <glyph glyph-name="macron" unicode="&#x2c9;" horiz-adv-x="683" 
d="M82 1276h521v-108h-521v108z" />
    <glyph glyph-name="degree" unicode="&#xb0;" horiz-adv-x="768" 
d="M408 1315c82 0 153.333 -29 214 -87s91 -130.667 91 -218c0 -83.333 -29.833 -155 -89.5 -215s-131.5 -90 -215.5 -90s-155.833 29.833 -215.5 89.5s-89.5 131.5 -89.5 215.5s29.833 155.833 89.5 215.5s131.5 89.5 215.5 89.5zM408 1251
c-66 0 -122.667 -23.5 -170 -70.5s-71 -103.833 -71 -170.5s23.5 -123.5 70.5 -170.5s103.833 -70.5 170.5 -70.5c66 0 122.667 23.667 170 71s71 104 71 170c0 68.667 -24 126 -72 172s-104.333 69 -169 69z" />
    <glyph glyph-name="plusminus" unicode="&#xb1;" horiz-adv-x="1365" 
d="M142 862h486v486h108v-486h486v-108h-486v-486h-108v486h-486v108zM142 53h1080v-108h-1080v108z" />
    <glyph glyph-name="twosuperior" unicode="&#xb2;" horiz-adv-x="725" 
d="M139 1324c112 58.667 212.999 88.0029 302.999 88.0029c58 0 101.333 -12.5 130 -37.5s43 -62.833 43 -113.5c0 -32.667 -9.66699 -65.834 -29 -99.501s-67.333 -85.834 -144 -156.501l-254 -234h313c56.667 0 91.334 29.667 104.001 89h35l-48 -239h-33
c-0.666992 18 -6.66699 27 -18 27h-476v37c141.333 156.667 243.333 279.5 306 368.5s94 163.833 94 224.5c0 25.333 -8 47.166 -24 65.499s-37.667 27.5 -65 27.5c-87.333 0 -150 -74 -188 -222h-49v175z" />
    <glyph glyph-name="threesuperior" unicode="&#xb3;" horiz-adv-x="725" 
d="M141 1321c118 60 214.664 90 289.997 90c51.333 0 89.666 -10 114.999 -30s38 -50.333 38 -91c0 -48 -20.667 -88.833 -62 -122.5s-109.666 -68.834 -204.999 -105.501c120.667 0 204.167 -10 250.5 -30s69.5 -61 69.5 -123c0 -66.667 -32 -130.167 -96 -190.5
s-146 -90.5 -246 -90.5c-59.333 0 -122 12 -188 36v228h49c4.66699 -58.667 24.834 -110.334 60.501 -155.001s79.167 -67 130.5 -67c45.333 0 81.833 15 109.5 45s41.5 69.667 41.5 119c0 128 -89 194.667 -267 200v37c65.333 10.667 118 35.334 158 74.001s60 82 60 130
c0 27.333 -8.16699 49.5 -24.5 66.5s-37.166 25.5 -62.499 25.5c-43.333 0 -82.166 -21.667 -116.499 -65s-52.833 -95.666 -55.5 -156.999h-49v176z" />
    <glyph glyph-name="acute" unicode="&#xb4;" horiz-adv-x="683" 
d="M270 1097l128 238c16 29.333 35 44 57 44c18 0 32.667 -6.33301 44 -19s17 -26 17 -40c0 -16 -11.667 -37.333 -35 -64l-169 -188z" />
    <glyph glyph-name="mu" unicode="&#xb5;" horiz-adv-x="1045" 
d="M120 916l135.002 -0.00292969v-610c0 -78.667 12.833 -135.834 38.5 -171.501s68.5 -53.5 128.5 -53.5c34 0 68.167 8.16699 102.5 24.5s84.5 55.833 150.5 118.5v692h132v-636c0 -87.333 6.66699 -144.833 20 -172.5s34.666 -41.5 63.999 -41.5
c46 0 77.667 44.667 95 134h43c-5.33301 -84 -27.333 -143.667 -66 -179s-81 -53 -127 -53c-46.667 0 -83.5 16.333 -110.5 49s-43.833 81.334 -50.5 146.001c-58 -63.333 -113.833 -111 -167.5 -143s-105.167 -48 -154.5 -48c-42 0 -78.167 10.167 -108.5 30.5
s-55.166 50.833 -74.499 91.5c0 -28 0.166992 -58.167 0.5 -90.5s1.16602 -61.333 2.49902 -87s2.83301 -45.5 4.5 -59.5s3 -23.667 4 -29s6.16699 -25 15.5 -59c14.667 -54 22 -92.333 22 -115c0 -28 -7.66699 -51.167 -23 -69.5s-34 -27.5 -56 -27.5
c-22.667 0 -42 9.16699 -58 27.5s-24 40.833 -24 67.5c0 20.667 7 57.334 21 110.001c16.667 60.667 27.167 122.834 31.5 186.501s7.16602 188.834 8.49902 375.501l1 36v556z" />
    <glyph glyph-name="paragraph" unicode="&#xb6;" horiz-adv-x="896" 
d="M706 1225l-186.999 0.00195312v-1682h-59v1011c-158.667 -3.33301 -276.167 26.167 -352.5 88.5s-114.5 148.833 -114.5 259.5c0 88.667 25.5 165 76.5 229s109.833 104.667 176.5 122s157.667 26 273 26h380v-36c-50.667 -2.66699 -85.834 -10.834 -105.501 -24.501
s-29.5 -63.834 -29.5 -150.501v-1525h-58v1682z" />
    <glyph glyph-name="cedilla" unicode="&#xb8;" horiz-adv-x="683" 
d="M278 23l54 0.000976562v-135c16.667 1.33301 29 2 37 2c58 0 101.5 -9.16699 130.5 -27.5s43.5 -45.833 43.5 -82.5c0 -42 -18.5 -76.167 -55.5 -102.5s-79.167 -39.5 -126.5 -39.5c-37.333 0 -85.333 8.33301 -144 25v55c54 -19.333 96.667 -29 128 -29
c23.333 0 43.5 6.66699 60.5 20s25.5 30.666 25.5 51.999c0 22 -9 40.5 -27 55.5s-42 22.5 -72 22.5h-54v184z" />
    <glyph glyph-name="onesuperior" unicode="&#xb9;" horiz-adv-x="725" 
d="M168 1301l308.999 110.001v-30c-7.33301 -1.33301 -14.666 -7.5 -21.999 -18.5s-11 -21.833 -11 -32.5v-588c0 -18.667 6.16699 -34.834 18.5 -48.501s29.5 -20.5 51.5 -20.5h37v-36h-348v36h31c51.333 0 77 23 77 69v467c0 51.333 -18 77 -54 77
c-21.333 0 -51 -6.66699 -89 -20v35z" />
    <glyph glyph-name="ordmasculine" unicode="&#xba;" horiz-adv-x="661" 
d="M361 1308c88 0 156.167 -26.668 204.5 -80.001s72.5 -122.666 72.5 -207.999c0 -101.333 -34.833 -185.5 -104.5 -252.5s-145.5 -100.5 -227.5 -100.5c-80 0 -145.667 25.5 -197 76.5s-77 120.5 -77 208.5c0 99.333 33.833 183.5 101.5 252.5s143.5 103.5 227.5 103.5z
M307 1257c-58.667 0 -104.333 -21.167 -137 -63.5s-49 -95.5 -49 -159.5c0 -82 25.333 -154.167 76 -216.5s108 -93.5 172 -93.5c51.333 0 94 20.833 128 62.5s51 96.167 51 163.5c0 93.333 -26.833 167.833 -80.5 223.5s-107.167 83.5 -160.5 83.5z" />
    <glyph glyph-name="guillemotright" unicode="&#xbb;" horiz-adv-x="811" 
d="M76 913l385 -456l-394 -457v74l232 383l-223 382v74zM382 913l384 -456l-393 -457v74l231 383l-222 382v74z" />
    <glyph glyph-name="onequarter" unicode="&#xbc;" horiz-adv-x="1749" 
d="M175 1301l308.999 111.999v-32c-7.33301 -1.33301 -14.666 -7.66602 -21.999 -18.999s-11 -22 -11 -32v-588c0 -20 6.5 -36.5 19.5 -49.5s29.833 -19.5 50.5 -19.5h37v-36h-348v36h31c51.333 0 77 23 77 69v467c0 51.333 -18 77 -54 77c-21.333 0 -51 -6.66699 -89 -20
v35zM1291 1413h86l-926 -1445h-88zM1499 756.999h52v-489h113v-68h-113v-104c0 -50.667 22 -76 66 -76h23v-35h-331v35h30c52.667 0 79 25.333 79 76v104h-340v36l219 253l9 12c90.667 110 155 195.333 193 256zM1418 543.999c-72.667 -64 -158.333 -156 -257 -276h257v276z
" />
    <glyph glyph-name="onehalf" unicode="&#xbd;" horiz-adv-x="1749" 
d="M175 1301l309 112v-32c-7.33301 -1.33301 -14.666 -7.5 -21.999 -18.5s-11 -21.833 -11 -32.5v-587c0 -20.667 6.5 -37.5 19.5 -50.5s29.833 -19.5 50.5 -19.5h37v-36h-348v36h31c51.333 0 77 23.333 77 70v466c0 51.333 -18 77 -54 77
c-20.667 0 -50.334 -6.66699 -89.001 -20v35zM1291 1413h86l-926 -1448h-88zM1162 673c112 56 213.335 84.001 304.002 84.001c58 0 101.333 -12.667 130 -38s43 -63.333 43 -114c0 -34.667 -10.667 -69.834 -32 -105.501s-84.333 -100.167 -189 -193.5l-207 -191h313
c58.667 0 93.334 29.667 104.001 89h35l-48 -239h-33c-0.666992 18.667 -6.33398 28 -17.001 28h-477v36c148 164 251.833 289.167 311.5 375.5s89.5 158.5 89.5 216.5c0 25.333 -7.83301 47.5 -23.5 66.5s-37.834 28.5 -66.501 28.5
c-86.667 0 -149.334 -74.333 -188.001 -223h-49v180z" />
    <glyph glyph-name="threequarters" unicode="&#xbe;" horiz-adv-x="1749" 
d="M1314 1413h86l-924 -1445h-90zM148 1321c118 60 214.664 90 289.997 90c51.333 0 89.666 -10 114.999 -30s38 -50.333 38 -91c0 -47.333 -20.667 -88.333 -62 -123s-109.666 -69.667 -204.999 -105c120 0 203.333 -10 250 -30s70 -61 70 -123
c0 -66.667 -32.167 -130.167 -96.5 -190.5s-146.166 -90.5 -245.499 -90.5c-60 0 -122.667 12 -188 36v228h49c4.66699 -58.667 24.834 -110.334 60.501 -155.001s79.167 -67 130.5 -67c45.333 0 81.833 15 109.5 45s41.5 69.667 41.5 119c0 128 -89 194.667 -267 200v37
c66 10.667 118.833 35.5 158.5 74.5s59.5 82.167 59.5 129.5c0 27.333 -8 49.5 -24 66.5s-37 25.5 -63 25.5c-43.333 0 -82.166 -21.667 -116.499 -65s-52.833 -95.666 -55.5 -156.999h-49v176zM1499 757h52.001v-489h114v-68h-114v-104c0 -50.667 22 -76 66 -76h23v-35
h-326v35h26c52 0 78 25.333 78 76v104h-340v36l219 253c73.333 84 140.666 173.333 201.999 268zM1418 544c-74 -65.333 -159.667 -157.333 -257 -276h257v276z" />
    <glyph glyph-name="questiondown" unicode="&#xbf;" horiz-adv-x="917" 
d="M481 876c34.667 0 63.667 -11.667 87 -35s35 -51.333 35 -84c0 -33.333 -11.833 -61.666 -35.5 -84.999s-51.834 -35 -84.501 -35s-60.667 11.667 -84 35s-35 51.666 -35 84.999c0 34.667 11.833 63.167 35.5 85.5s50.834 33.5 81.501 33.5zM431 541l100 -0.00292969
c-1.33301 -100.667 -14.333 -184.167 -39 -250.5s-72 -145.5 -142 -237.5c-38 -50 -71.167 -98.667 -99.5 -146s-42.5 -93.333 -42.5 -138c0 -49.333 15.833 -90.333 47.5 -123s75.5 -49 131.5 -49c87.333 0 162.833 38.333 226.5 115s97.834 170.334 102.501 281.001h66
v-302c-182 -100.667 -350.333 -151 -505 -151c-87.333 0 -157 19.833 -209 59.5s-78 94.834 -78 165.501c0 58.667 15.833 112 47.5 160s85.5 108.333 161.5 181c99.333 94.667 162.666 171.834 189.999 231.501s41.333 127.5 42 203.5z" />
    <glyph glyph-name="Agrave" unicode="&#xc0;" horiz-adv-x="1237" 
d="M623 1332l59 -0.00195312l354 -1022c26 -76 54.5 -138.167 85.5 -186.5s68.833 -73.5 113.5 -75.5v-48h-359v48h23c11.333 0 17 11 17 33c0 6.66699 -1.33301 14 -4 22l-120 348h-437c-46 -129.333 -69 -225.666 -69 -288.999c0 -33.333 10.833 -60.666 32.5 -81.999
s50.167 -32 85.5 -32h53v-48h-448v48c74.667 4 142.667 83.667 204 239zM588 1044l-210 -532h392zM689 1387l-138.997 156c-30.667 34 -49.334 55.667 -56.001 65s-10 20 -10 32c0 16 5.66699 30.333 17 43s25.666 19 42.999 19c13.333 0 24.166 -3 32.499 -9
s19.833 -24 34.5 -54l114 -231z" />
    <glyph glyph-name="Aacute" unicode="&#xc1;" horiz-adv-x="1237" 
d="M623 1332l59 -0.00195312l354 -1022c26 -76 54.5 -138.167 85.5 -186.5s68.833 -73.5 113.5 -75.5v-48h-359v48h23c11.333 0 17 11 17 33c0 6.66699 -1.33301 14 -4 22l-120 348h-437c-46 -129.333 -69 -225.666 -69 -288.999c0 -33.333 10.833 -60.666 32.5 -81.999
s50.167 -32 85.5 -32h53v-48h-448v48c74.667 4 142.667 83.667 204 239zM588 1044l-210 -532h392zM550 1420l128 238c16 29.333 35 44 57 44c18 0 32.667 -6.33301 44 -19s17 -26 17 -40c0 -16 -11.667 -37.333 -35 -64l-169 -188z" />
    <glyph glyph-name="Acircumflex" unicode="&#xc2;" horiz-adv-x="1237" 
d="M623 1332l59 -0.00195312l354 -1022c26 -76 54.5 -138.167 85.5 -186.5s68.833 -73.5 113.5 -75.5v-48h-359v48h23c11.333 0 17 11 17 33c0 6.66699 -1.33301 14 -4 22l-120 348h-437c-46 -129.333 -69 -225.666 -69 -288.999c0 -33.333 10.833 -60.666 32.5 -81.999
s50.167 -32 85.5 -32h53v-48h-448v48c74.667 4 142.667 83.667 204 239zM588 1044l-210 -532h392zM646 1670l280 -242h-66l-214 126l-211 -126h-68z" />
    <glyph glyph-name="Atilde" unicode="&#xc3;" horiz-adv-x="1237" 
d="M623 1332l59 -0.00195312l354 -1022c26 -76 54.5 -138.167 85.5 -186.5s68.833 -73.5 113.5 -75.5v-48h-359v48h23c11.333 0 17 11 17 33c0 6.66699 -1.33301 14 -4 22l-120 348h-437c-46 -129.333 -69 -225.666 -69 -288.999c0 -33.333 10.833 -60.666 32.5 -81.999
s50.167 -32 85.5 -32h53v-48h-448v48c74.667 4 142.667 83.667 204 239zM588 1044l-210 -532h392zM378 1492c52.667 92.667 105 139 157 139c28 0 76.667 -14.667 146 -44c54.667 -22 91 -33 109 -33c36.667 0 74 23.667 112 71l37 -23
c-57.333 -90.667 -112.333 -136 -165 -136c-20 0 -61 11.333 -123 34c-66 25.333 -110 38 -132 38c-32.667 0 -67.667 -22.333 -105 -67z" />
    <glyph glyph-name="Adieresis" unicode="&#xc4;" horiz-adv-x="1237" 
d="M623 1332l59 -0.00195312l354 -1022c26 -76 54.5 -138.167 85.5 -186.5s68.833 -73.5 113.5 -75.5v-48h-359v48h23c11.333 0 17 11 17 33c0 6.66699 -1.33301 14 -4 22l-120 348h-437c-46 -129.333 -69 -225.666 -69 -288.999c0 -33.333 10.833 -60.666 32.5 -81.999
s50.167 -32 85.5 -32h53v-48h-448v48c74.667 4 142.667 83.667 204 239zM588 1044l-210 -532h392zM475 1646c29.333 0 53.667 -9.83301 73 -29.5s29 -43.167 29 -70.5c0 -28.667 -10 -52.667 -30 -72s-43.667 -29 -71 -29s-50.833 9.83301 -70.5 29.5s-29.5 43.5 -29.5 71.5
s10 51.667 30 71s43 29 69 29zM838.001 1646c30 0 54.667 -10 74 -30s29 -43.667 29 -71c0 -28 -10 -51.833 -30 -71.5s-43.667 -29.5 -71 -29.5c-28 0 -51.833 9.83301 -71.5 29.5s-29.5 43.5 -29.5 71.5c0 28.667 10 52.667 30 72s43 29 69 29z" />
    <glyph glyph-name="Aring" unicode="&#xc5;" horiz-adv-x="1237" 
d="M623 1332c-36 4.66699 -65.001 21.5 -87.001 50.5s-33 60.833 -33 95.5c0 41.333 14.833 76.5 44.5 105.5s64.834 43.5 105.501 43.5c42 0 77.5 -14.833 106.5 -44.5s43.5 -63.834 43.5 -102.501c0 -36.667 -12 -69.667 -36 -99s-52.333 -45.666 -85 -48.999l354 -1022
c26 -74.667 54.667 -136.834 86 -186.501s69 -74.834 113 -75.501v-48h-359v48h23c11.333 0 17 11 17 33c0 6.66699 -1.33301 14 -4 22l-120 348h-437c-46 -129.333 -69 -225.666 -69 -288.999c0 -33.333 10.833 -60.666 32.5 -81.999s50.167 -32 85.5 -32h53v-48h-448v48
c75.333 4 143.333 83.667 204 239zM652.999 1569c-26.667 0 -48.999 -9.16699 -66.999 -27.5s-27 -39.833 -27 -64.5c0 -25.333 9.16699 -47 27.5 -65s40.166 -27 65.499 -27s47 9 65 27s27 39.667 27 65c0 26 -9.33301 47.833 -28 65.5s-39.667 26.5 -63 26.5zM588 1044
l-210 -532h392z" />
    <glyph glyph-name="AE" unicode="&#xc6;" horiz-adv-x="1557" 
d="M1420 1325l45.999 0.000976562v-381h-69c-0.666992 191.333 -109 287 -325 287h-96c-6.66699 -86 -10 -158 -10 -216c0 -83.333 11.333 -145.333 34 -186s51.834 -72 87.501 -94s120.834 -33 255.501 -33v-71l-367 -9v-574h79c246 0 383 106 411 318h73l-87 -413h-46v11
c0 24 -13 36 -39 36h-727v48c59.333 1.33301 100 13.666 122 36.999s32.667 66 32 128v254h-431l-83 -153c-38.667 -71.333 -58 -129.333 -58 -174c0 -24.667 9.16699 -46.167 27.5 -64.5s41.166 -27.5 68.499 -27.5h45v-48h-463v48c84 5.33301 193.333 118 328 338l545 893
h594c33.333 0 51 15.333 53 46zM793.999 1175l-395 -648h395v648z" />
    <glyph glyph-name="Ccedilla" unicode="&#xc7;" horiz-adv-x="1259" 
d="M600 -26c-90 0 -176.831 26.334 -260.498 79.001s-148.5 126 -194.5 220s-69 199 -69 315c0 144.667 32.667 266.667 98 366s148.166 183.166 248.499 251.499s228.5 102.5 384.5 102.5c112.667 0 236.667 -19.667 372 -59v-304h-70
c-8 101.333 -49.5 177.833 -124.5 229.5s-163.167 77.5 -264.5 77.5c-148 0 -264 -55.333 -348 -166s-126 -240.667 -126 -390c0 -158 47.167 -294.167 141.5 -408.5s215.166 -171.5 362.499 -171.5s299 63 455 189v-64c-194.667 -168 -379.667 -257 -555 -267v-89
c36 4.66699 64.667 7 86 7c41.333 0 76.5 -9.66699 105.5 -29s43.5 -47 43.5 -83c0 -40 -19 -73.667 -57 -101s-82.667 -41 -134 -41s-103.666 11 -156.999 33v49c44 -18 82 -27 114 -27c35.333 0 61.666 6.33301 78.999 19s26 31.667 26 57c0 24.667 -9.83301 43 -29.5 55
s-49.167 18 -88.5 18c-10 0 -22.667 -0.333008 -38 -1v133z" />
    <glyph glyph-name="Egrave" unicode="&#xc8;" horiz-adv-x="981" 
d="M845 1329h47.002v-382h-73c-1.33301 100 -30 172.333 -86 217s-141.333 67 -256 67h-76c-8 -72.667 -12 -137.667 -12 -195c0 -114 22.167 -198 66.5 -252s115.833 -81 214.5 -81h98v-70l-367 -10v-575h106c224 0 352.333 106.667 385 320h71l-82 -412h-50
c-0.666992 29.333 -13.334 44 -38.001 44h-729v48c60 0.666992 100.333 12 121 34s31 63.667 31 125v865c0 65.333 -11.5 107.833 -34.5 127.5s-62.167 30.167 -117.5 31.5v48h714c43.333 0 65.666 16.667 66.999 50zM545.002 1387l-138.997 156
c-30.667 34 -49.334 55.667 -56.001 65s-10 20 -10 32c0 16 5.66699 30.333 17 43s25.666 19 42.999 19c13.333 0 24.166 -3 32.499 -9s19.833 -24 34.5 -54l114 -231z" />
    <glyph glyph-name="Eacute" unicode="&#xc9;" horiz-adv-x="981" 
d="M845 1329h47.002v-382h-73c-1.33301 100 -30 172.333 -86 217s-141.333 67 -256 67h-76c-8 -72.667 -12 -137.667 -12 -195c0 -114 22.167 -198 66.5 -252s115.833 -81 214.5 -81h98v-70l-367 -10v-575h106c224 0 352.333 106.667 385 320h71l-82 -412h-50
c-0.666992 29.333 -13.334 44 -38.001 44h-729v48c60 0.666992 100.333 12 121 34s31 63.667 31 125v865c0 65.333 -11.5 107.833 -34.5 127.5s-62.167 30.167 -117.5 31.5v48h714c43.333 0 65.666 16.667 66.999 50zM442.002 1420l128 238c16 29.333 35 44 57 44
c18 0 32.667 -6.33301 44 -19s17 -26 17 -40c0 -16 -11.667 -37.333 -35 -64l-169 -188z" />
    <glyph glyph-name="Ecircumflex" unicode="&#xca;" horiz-adv-x="981" 
d="M845 1329h47.002v-382h-73c-1.33301 100 -30 172.333 -86 217s-141.333 67 -256 67h-76c-8 -72.667 -12 -137.667 -12 -195c0 -114 22.167 -198 66.5 -252s115.833 -81 214.5 -81h98v-70l-367 -10v-575h106c224 0 352.333 106.667 385 320h71l-82 -412h-50
c-0.666992 29.333 -13.334 44 -38.001 44h-729v48c60 0.666992 100.333 12 121 34s31 63.667 31 125v865c0 65.333 -11.5 107.833 -34.5 127.5s-62.167 30.167 -117.5 31.5v48h714c43.333 0 65.666 16.667 66.999 50zM513.002 1670l280 -242h-66l-214 126l-211 -126h-68z
" />
    <glyph glyph-name="Edieresis" unicode="&#xcb;" horiz-adv-x="981" 
d="M845 1329h47.002v-382h-73c-1.33301 100 -30 172.333 -86 217s-141.333 67 -256 67h-76c-8 -72.667 -12 -137.667 -12 -195c0 -114 22.167 -198 66.5 -252s115.833 -81 214.5 -81h98v-70l-367 -10v-575h106c224 0 352.333 106.667 385 320h71l-82 -412h-50
c-0.666992 29.333 -13.334 44 -38.001 44h-729v48c60 0.666992 100.333 12 121 34s31 63.667 31 125v865c0 65.333 -11.5 107.833 -34.5 127.5s-62.167 30.167 -117.5 31.5v48h714c43.333 0 65.666 16.667 66.999 50zM330.002 1646c29.333 0 53.667 -9.83301 73 -29.5
s29 -43.167 29 -70.5c0 -28.667 -10 -52.667 -30 -72s-43.667 -29 -71 -29s-50.833 9.83301 -70.5 29.5s-29.5 43.5 -29.5 71.5s10 51.667 30 71s43 29 69 29zM693.003 1646c30 0 54.667 -10 74 -30s29 -43.667 29 -71c0 -28 -10 -51.833 -30 -71.5s-43.667 -29.5 -71 -29.5
c-28 0 -51.833 9.83301 -71.5 29.5s-29.5 43.5 -29.5 71.5c0 28.667 10 52.667 30 72s43 29 69 29z" />
    <glyph glyph-name="Igrave" unicode="&#xcc;" horiz-adv-x="619" 
d="M562 1231c-60 -1.33301 -100.333 -12.833 -121 -34.5s-31 -62.834 -31 -123.501v-866c0 -102.667 50.667 -155.667 152 -159v-48h-489v48c60 0.666992 100.333 12.167 121 34.5s31 63.833 31 124.5v866c0 64.667 -11.333 106.834 -34 126.501s-62 30.167 -118 31.5v48
h489v-48zM385 1387l-138.997 156c-30.667 34 -49.334 55.667 -56.001 65s-10 20 -10 32c0 16 5.66699 30.333 17 43s25.666 19 42.999 19c13.333 0 24.166 -3 32.499 -9s19.833 -24 34.5 -54l114 -231z" />
    <glyph glyph-name="Iacute" unicode="&#xcd;" horiz-adv-x="619" 
d="M562 1231c-60 -1.33301 -100.333 -12.833 -121 -34.5s-31 -62.834 -31 -123.501v-866c0 -102.667 50.667 -155.667 152 -159v-48h-489v48c60 0.666992 100.333 12.167 121 34.5s31 63.833 31 124.5v866c0 64.667 -11.333 106.834 -34 126.501s-62 30.167 -118 31.5v48
h489v-48zM246 1420l128 238c16 29.333 35 44 57 44c18 0 32.667 -6.33301 44 -19s17 -26 17 -40c0 -16 -11.667 -37.333 -35 -64l-169 -188z" />
    <glyph glyph-name="Icircumflex" unicode="&#xce;" horiz-adv-x="619" 
d="M562 1231c-60 -1.33301 -100.333 -12.833 -121 -34.5s-31 -62.834 -31 -123.501v-866c0 -102.667 50.667 -155.667 152 -159v-48h-489v48c60 0.666992 100.333 12.167 121 34.5s31 63.833 31 124.5v866c0 64.667 -11.333 106.834 -34 126.501s-62 30.167 -118 31.5v48
h489v-48zM317 1670l280 -242h-66l-214 126l-211 -126h-68z" />
    <glyph glyph-name="Idieresis" unicode="&#xcf;" horiz-adv-x="619" 
d="M562 1231c-60 -1.33301 -100.333 -12.833 -121 -34.5s-31 -62.834 -31 -123.501v-866c0 -102.667 50.667 -155.667 152 -159v-48h-489v48c60 0.666992 100.333 12.167 121 34.5s31 63.833 31 124.5v866c0 64.667 -11.333 106.834 -34 126.501s-62 30.167 -118 31.5v48
h489v-48zM134 1646c29.333 0 53.667 -9.83301 73 -29.5s29 -43.167 29 -70.5c0 -28.667 -10 -52.667 -30 -72s-43.667 -29 -71 -29s-50.833 9.83301 -70.5 29.5s-29.5 43.5 -29.5 71.5s10 51.667 30 71s43 29 69 29zM497.001 1646c30 0 54.667 -10 74 -30s29 -43.667 29 -71
c0 -28 -10 -51.833 -30 -71.5s-43.667 -29.5 -71 -29.5c-28 0 -51.833 9.83301 -71.5 29.5s-29.5 43.5 -29.5 71.5c0 28.667 10 52.667 30 72s43 29 69 29z" />
    <glyph glyph-name="Eth" unicode="&#xd0;" horiz-adv-x="1451" 
d="M216 599l-152 -0.000976562v81h152v393c0 64.667 -11.333 106.834 -34 126.501s-62 30.167 -118 31.5v48h786c176 0 307.833 -42 395.5 -126s131.5 -210.333 131.5 -379c0 -159.333 -38 -299.5 -114 -420.5s-171.5 -210.167 -286.5 -267.5s-244.5 -86 -388.5 -86h-524v48
c60 0.666992 100.333 12.167 121 34.5s31 63.833 31 124.5v392zM401 598.999l0.00195312 -440.999c103.333 -62 207.666 -93 312.999 -93c142 0 256.667 53.667 344 161s131 246.666 131 417.999c0 172 -38 313.333 -114 424s-204 166 -384 166
c-116.667 0 -213.334 -25.667 -290.001 -77v-477h347v-81h-347z" />
    <glyph glyph-name="Ntilde" unicode="&#xd1;" horiz-adv-x="1387" 
d="M66 1279h328l727 -977v297c0 190.667 -14.5 342 -43.5 454s-75.167 171.333 -138.5 178v48h437v-48c-122 -11.333 -183 -211.666 -183 -600.999v-676h-47l-863 1166v-372c0 -235.333 14.5 -408.833 43.5 -520.5s76.167 -171.5 141.5 -179.5v-48h-434v48
c121.333 18.667 182 248.334 182 689.001v345c0 59.333 -11.5 98.666 -34.5 117.999s-61.5 29.666 -115.5 30.999v48zM425 1492c52.667 92.667 105 139 157 139c28 0 76.667 -14.667 146 -44c54.667 -22 91 -33 109 -33c36.667 0 74 23.667 112 71l37 -23
c-57.333 -90.667 -112.333 -136 -165 -136c-20 0 -61 11.333 -123 34c-66 25.333 -110 38 -132 38c-32.667 0 -67.667 -22.333 -105 -67z" />
    <glyph glyph-name="Ograve" unicode="&#xd2;" horiz-adv-x="1493" 
d="M798 1308c112 0 211 -22 297 -66s161.333 -112.667 226 -206s97 -205.333 97 -336c0 -142 -40.167 -271.833 -120.5 -389.5s-174 -203.667 -281 -258s-219.167 -81.5 -336.5 -81.5c-168 0 -310.667 57.833 -428 173.5s-176 259.167 -176 430.5
c0 198 73.333 369.667 220 515s314 218 502 218zM673 1215c-123.333 0 -225.502 -43.167 -306.502 -129.5s-121.5 -200.5 -121.5 -342.5c0 -208.667 60.833 -374.667 182.5 -498s254.834 -185 399.501 -185c115.333 0 214.5 43.333 297.5 130s124.5 198 124.5 334
c0 127.333 -27.667 246.833 -83 358.5s-130.666 195 -225.999 250s-184.333 82.5 -267 82.5zM801.998 1387l-138.997 156c-30.667 34 -49.334 55.667 -56.001 65s-10 20 -10 32c0 16 5.66699 30.333 17 43s25.666 19 42.999 19c13.333 0 24.166 -3 32.499 -9
s19.833 -24 34.5 -54l114 -231z" />
    <glyph glyph-name="Oacute" unicode="&#xd3;" horiz-adv-x="1493" 
d="M798 1308c112 0 211 -22 297 -66s161.333 -112.667 226 -206s97 -205.333 97 -336c0 -142 -40.167 -271.833 -120.5 -389.5s-174 -203.667 -281 -258s-219.167 -81.5 -336.5 -81.5c-168 0 -310.667 57.833 -428 173.5s-176 259.167 -176 430.5
c0 198 73.333 369.667 220 515s314 218 502 218zM673 1215c-123.333 0 -225.502 -43.167 -306.502 -129.5s-121.5 -200.5 -121.5 -342.5c0 -208.667 60.833 -374.667 182.5 -498s254.834 -185 399.501 -185c115.333 0 214.5 43.333 297.5 130s124.5 198 124.5 334
c0 127.333 -27.667 246.833 -83 358.5s-130.666 195 -225.999 250s-184.333 82.5 -267 82.5zM674.998 1420l128 238c16 29.333 35 44 57 44c18 0 32.667 -6.33301 44 -19s17 -26 17 -40c0 -16 -11.667 -37.333 -35 -64l-169 -188z" />
    <glyph glyph-name="Ocircumflex" unicode="&#xd4;" horiz-adv-x="1493" 
d="M798 1308c112 0 211 -22 297 -66s161.333 -112.667 226 -206s97 -205.333 97 -336c0 -142 -40.167 -271.833 -120.5 -389.5s-174 -203.667 -281 -258s-219.167 -81.5 -336.5 -81.5c-168 0 -310.667 57.833 -428 173.5s-176 259.167 -176 430.5
c0 198 73.333 369.667 220 515s314 218 502 218zM673 1215c-123.333 0 -225.502 -43.167 -306.502 -129.5s-121.5 -200.5 -121.5 -342.5c0 -208.667 60.833 -374.667 182.5 -498s254.834 -185 399.501 -185c115.333 0 214.5 43.333 297.5 130s124.5 198 124.5 334
c0 127.333 -27.667 246.833 -83 358.5s-130.666 195 -225.999 250s-184.333 82.5 -267 82.5zM746.998 1670l280 -242h-66l-214 126l-211 -126h-68z" />
    <glyph glyph-name="Otilde" unicode="&#xd5;" horiz-adv-x="1493" 
d="M798 1308c112 0 211 -22 297 -66s161.333 -112.667 226 -206s97 -205.333 97 -336c0 -142 -40.167 -271.833 -120.5 -389.5s-174 -203.667 -281 -258s-219.167 -81.5 -336.5 -81.5c-168 0 -310.667 57.833 -428 173.5s-176 259.167 -176 430.5
c0 198 73.333 369.667 220 515s314 218 502 218zM673 1215c-123.333 0 -225.502 -43.167 -306.502 -129.5s-121.5 -200.5 -121.5 -342.5c0 -208.667 60.833 -374.667 182.5 -498s254.834 -185 399.501 -185c115.333 0 214.5 43.333 297.5 130s124.5 198 124.5 334
c0 127.333 -27.667 246.833 -83 358.5s-130.666 195 -225.999 250s-184.333 82.5 -267 82.5zM466.998 1492c52.667 92.667 105 139 157 139c28 0 76.667 -14.667 146 -44c54.667 -22 91 -33 109 -33c36.667 0 74 23.667 112 71l37 -23
c-57.333 -90.667 -112.333 -136 -165 -136c-20 0 -61 11.333 -123 34c-66 25.333 -110 38 -132 38c-32.667 0 -67.667 -22.333 -105 -67z" />
    <glyph glyph-name="Odieresis" unicode="&#xd6;" horiz-adv-x="1493" 
d="M798 1308c112 0 211 -22 297 -66s161.333 -112.667 226 -206s97 -205.333 97 -336c0 -142 -40.167 -271.833 -120.5 -389.5s-174 -203.667 -281 -258s-219.167 -81.5 -336.5 -81.5c-168 0 -310.667 57.833 -428 173.5s-176 259.167 -176 430.5
c0 198 73.333 369.667 220 515s314 218 502 218zM673 1215c-123.333 0 -225.502 -43.167 -306.502 -129.5s-121.5 -200.5 -121.5 -342.5c0 -208.667 60.833 -374.667 182.5 -498s254.834 -185 399.501 -185c115.333 0 214.5 43.333 297.5 130s124.5 198 124.5 334
c0 127.333 -27.667 246.833 -83 358.5s-130.666 195 -225.999 250s-184.333 82.5 -267 82.5zM563.998 1646c29.333 0 53.667 -9.83301 73 -29.5s29 -43.167 29 -70.5c0 -28.667 -10 -52.667 -30 -72s-43.667 -29 -71 -29s-50.833 9.83301 -70.5 29.5s-29.5 43.5 -29.5 71.5
s10 51.667 30 71s43 29 69 29zM926.999 1646c30 0 54.667 -10 74 -30s29 -43.667 29 -71c0 -28 -10 -51.833 -30 -71.5s-43.667 -29.5 -71 -29.5c-28 0 -51.833 9.83301 -71.5 29.5s-29.5 43.5 -29.5 71.5c0 28.667 10 52.667 30 72s43 29 69 29z" />
    <glyph glyph-name="multiply" unicode="&#xd7;" horiz-adv-x="1365" 
d="M682 719l418 419l75 -77l-417 -418l413 -414l-76 -76l-413 414l-413 -414l-76 76l413 414l-417 418l76 77z" />
    <glyph glyph-name="Oslash" unicode="&#xd8;" horiz-adv-x="1493" 
d="M1192 1342h87l-101 -147c162.667 -132 244 -296 244 -492c0 -190 -71.5 -359.5 -214.5 -508.5s-317.833 -223.5 -524.5 -223.5c-99.333 0 -199.333 25.667 -300 77l-77 -106h-86l102 145c-160.667 129.333 -241 294 -241 494c0 190 72.333 358.667 217 506
s315.667 221 513 221c96 0 198 -25.667 306 -77zM1013 1085c-108.667 87.333 -224.667 131 -348 131c-111.333 0 -208.333 -42.833 -291 -128.5s-124 -200.5 -124 -344.5c0 -190.667 60.667 -355.667 182 -495zM1066 1036l-582.001 -837.001c110 -90 220.333 -135 331 -135
c122.667 0 226.334 42.333 311.001 127s127 197.334 127 338.001c0 206 -62.333 375 -187 507z" />
    <glyph glyph-name="Ugrave" unicode="&#xd9;" horiz-adv-x="1387" 
d="M925 1279h441v-48c-124.667 -18.667 -187 -227 -187 -625c0 -138 -2.83301 -236.5 -8.5 -295.5s-25.834 -114.333 -60.501 -166s-87.667 -93.5 -159 -125.5s-157 -48 -257 -48c-104.667 0 -193.834 15.333 -267.501 46s-130 74.834 -169 132.501s-58.5 128.5 -58.5 212.5
v710c0 65.333 -11.5 107.833 -34.5 127.5s-62.167 30.167 -117.5 31.5v48h489v-48c-59.333 -1.33301 -99.5 -12.833 -120.5 -34.5s-31.5 -63.167 -31.5 -124.5v-702c0 -66.667 10.333 -121.834 31 -165.501s58.834 -83 114.501 -118s124.834 -52.5 207.501 -52.5
s152.5 15 209.5 45s98.333 74.833 124 134.5s38.5 149.5 38.5 269.5c0 263.333 -13.833 452.333 -41.5 567s-75.167 175 -142.5 181v48zM762 1387l-138.997 156c-30.667 34 -49.334 55.667 -56.001 65s-10 20 -10 32c0 16 5.66699 30.333 17 43s25.666 19 42.999 19
c13.333 0 24.166 -3 32.499 -9s19.833 -24 34.5 -54l114 -231z" />
    <glyph glyph-name="Uacute" unicode="&#xda;" horiz-adv-x="1387" 
d="M925 1279h441v-48c-124.667 -18.667 -187 -227 -187 -625c0 -138 -2.83301 -236.5 -8.5 -295.5s-25.834 -114.333 -60.501 -166s-87.667 -93.5 -159 -125.5s-157 -48 -257 -48c-104.667 0 -193.834 15.333 -267.501 46s-130 74.834 -169 132.501s-58.5 128.5 -58.5 212.5
v710c0 65.333 -11.5 107.833 -34.5 127.5s-62.167 30.167 -117.5 31.5v48h489v-48c-59.333 -1.33301 -99.5 -12.833 -120.5 -34.5s-31.5 -63.167 -31.5 -124.5v-702c0 -66.667 10.333 -121.834 31 -165.501s58.834 -83 114.501 -118s124.834 -52.5 207.501 -52.5
s152.5 15 209.5 45s98.333 74.833 124 134.5s38.5 149.5 38.5 269.5c0 263.333 -13.833 452.333 -41.5 567s-75.167 175 -142.5 181v48zM647 1420l128 238c16 29.333 35 44 57 44c18 0 32.667 -6.33301 44 -19s17 -26 17 -40c0 -16 -11.667 -37.333 -35 -64l-169 -188z" />
    <glyph glyph-name="Ucircumflex" unicode="&#xdb;" horiz-adv-x="1387" 
d="M925 1279h441v-48c-124.667 -18.667 -187 -227 -187 -625c0 -138 -2.83301 -236.5 -8.5 -295.5s-25.834 -114.333 -60.501 -166s-87.667 -93.5 -159 -125.5s-157 -48 -257 -48c-104.667 0 -193.834 15.333 -267.501 46s-130 74.834 -169 132.501s-58.5 128.5 -58.5 212.5
v710c0 65.333 -11.5 107.833 -34.5 127.5s-62.167 30.167 -117.5 31.5v48h489v-48c-59.333 -1.33301 -99.5 -12.833 -120.5 -34.5s-31.5 -63.167 -31.5 -124.5v-702c0 -66.667 10.333 -121.834 31 -165.501s58.834 -83 114.501 -118s124.834 -52.5 207.501 -52.5
s152.5 15 209.5 45s98.333 74.833 124 134.5s38.5 149.5 38.5 269.5c0 263.333 -13.833 452.333 -41.5 567s-75.167 175 -142.5 181v48zM706 1670l280 -242h-66l-214 126l-211 -126h-68z" />
    <glyph glyph-name="Udieresis" unicode="&#xdc;" horiz-adv-x="1387" 
d="M925 1279h441v-48c-124.667 -18.667 -187 -227 -187 -625c0 -138 -2.83301 -236.5 -8.5 -295.5s-25.834 -114.333 -60.501 -166s-87.667 -93.5 -159 -125.5s-157 -48 -257 -48c-104.667 0 -193.834 15.333 -267.501 46s-130 74.834 -169 132.501s-58.5 128.5 -58.5 212.5
v710c0 65.333 -11.5 107.833 -34.5 127.5s-62.167 30.167 -117.5 31.5v48h489v-48c-59.333 -1.33301 -99.5 -12.833 -120.5 -34.5s-31.5 -63.167 -31.5 -124.5v-702c0 -66.667 10.333 -121.834 31 -165.501s58.834 -83 114.501 -118s124.834 -52.5 207.501 -52.5
s152.5 15 209.5 45s98.333 74.833 124 134.5s38.5 149.5 38.5 269.5c0 263.333 -13.833 452.333 -41.5 567s-75.167 175 -142.5 181v48zM523 1646c29.333 0 53.667 -9.83301 73 -29.5s29 -43.167 29 -70.5c0 -28.667 -10 -52.667 -30 -72s-43.667 -29 -71 -29
s-50.833 9.83301 -70.5 29.5s-29.5 43.5 -29.5 71.5s10 51.667 30 71s43 29 69 29zM886.001 1646c30 0 54.667 -10 74 -30s29 -43.667 29 -71c0 -28 -10 -51.833 -30 -71.5s-43.667 -29.5 -71 -29.5c-28 0 -51.833 9.83301 -71.5 29.5s-29.5 43.5 -29.5 71.5
c0 28.667 10 52.667 30 72s43 29 69 29z" />
    <glyph glyph-name="Yacute" unicode="&#xdd;" horiz-adv-x="1195" 
d="M35 1279l363.001 0.000976562v-48c-25.333 -0.666992 -38 -9.66699 -38 -27c0 -5.33301 1.33301 -11.333 4 -18l314 -624c162 253.333 243 438 243 554c0 41.333 -12.167 70.666 -36.5 87.999s-66.5 26.333 -126.5 27v48h478v-48
c-38.667 -0.666992 -76.334 -18 -113.001 -52s-78.667 -91.333 -126 -172l-303 -516v-284c0 -102.667 50.667 -155.667 152 -159v-48h-489v48c59.333 0.666992 99.5 12.167 120.5 34.5s31.5 63.833 31.5 124.5v284l-250 502c-38 76 -74.167 134.5 -108.5 175.5
s-72.833 61.833 -115.5 62.5v48zM564.001 1420l128 238c16 29.333 35 44 57 44c18 0 32.667 -6.33301 44 -19s17 -26 17 -40c0 -16 -11.667 -37.333 -35 -64l-169 -188z" />
    <glyph glyph-name="Thorn" unicode="&#xde;" horiz-adv-x="981" 
d="M396 1076l-0.00195312 -95h296c115.333 0 197.333 -22.167 246 -66.5s73 -98.5 73 -162.5c0 -113.333 -51.333 -217.333 -154 -312s-205.667 -142 -309 -142c-23.333 0 -47.666 3.16699 -72.999 9.5s-51.666 15.5 -78.999 27.5v-128c0 -102.667 50.667 -155.667 152 -159
v-48h-489v48c60 0.666992 100.333 12 121 34s31 63.667 31 125v865c0 102.667 -50.667 155.667 -152 159v48h489v-48c-58.667 -1.33301 -98.667 -12.5 -120 -33.5s-32 -61.5 -32 -121.5zM395.998 868l0.000976562 -400c42.667 -31.333 83.167 -55 121.5 -71
s74.166 -24 107.499 -24c62.667 0 109.667 21 141 63s47 105 47 189c0 86.667 -20 159.5 -60 218.5s-98.667 88.5 -176 88.5c-62 0 -122.333 -21.333 -181 -64z" />
    <glyph glyph-name="germandbls" unicode="&#xdf;" horiz-adv-x="1088" 
d="M49 838c51.333 0.666992 88.168 8.83496 110.501 24.502s50.666 64 84.999 145s68 144.333 101 190s81 86 144 121s134.5 52.5 214.5 52.5c64.667 0 120.167 -14.5 166.5 -43.5s69.5 -75.5 69.5 -139.5c0 -46 -12.833 -85.5 -38.5 -118.5s-77.167 -78.833 -154.5 -137.5
c-68 -52 -109.667 -89.167 -125 -111.5s-23 -41.833 -23 -58.5c0 -22 10.667 -42 32 -60c21.333 -18.667 79 -57.334 173 -116.001c113.333 -71.333 184.333 -122 213 -152c14.667 -15.333 25.5 -33.833 32.5 -55.5s10.5 -46.834 10.5 -75.501
c0 -84 -37.5 -160.333 -112.5 -229s-158.5 -103 -250.5 -103c-42 0 -86.333 8.16699 -133 24.5s-95.667 40.5 -147 72.5l111 217l42 -23c-6.66699 -29.333 -10 -51.333 -10 -66c0 -50 15.833 -90.167 47.5 -120.5s74.5 -45.5 128.5 -45.5c57.333 0 103.333 18.333 138 55
s52 81.334 52 134.001c0 52 -14.333 93.333 -43 124s-96 78.334 -202 143.001c-88.667 53.333 -144.667 92 -168 116c-24 23.333 -36 51.666 -36 84.999c0 28 8.5 54.5 25.5 79.5s54.167 65.833 111.5 122.5c72 70 116.333 122.5 133 157.5s25 70.167 25 105.5
c0 45.333 -15.167 81.666 -45.5 108.999s-68.833 41 -115.5 41c-72.667 0 -133.5 -33.333 -182.5 -100s-73.5 -163 -73.5 -289v-913h-306v48h28c83.333 0 125 50 125 150v592h-153v48z" />
    <glyph glyph-name="agrave" unicode="&#xe0;" horiz-adv-x="960" 
d="M155 792c153.333 101.333 297.667 152 433 152c63.333 0 109 -14 137 -42s41.667 -75.333 41 -142v-625c0 -30 13.667 -45 41 -45c26.667 0 73.667 30.667 141 92v-62c-101.333 -99.333 -184 -149 -248 -149c-57.333 0 -86 32 -86 96v148
c-83.333 -85.333 -153.833 -147.333 -211.5 -186s-112.167 -58 -163.5 -58c-50 0 -92.667 19.5 -128 58.5s-53 86.5 -53 142.5c0 144.667 185.333 300.667 556 468v120c0 36.667 -11 67 -33 91s-52.333 36 -91 36c-66 0 -124.667 -32 -176 -96s-82 -143.667 -92 -239h-67
v240zM625.001 559c-123.333 -25.333 -223.333 -68.832 -300 -130.499s-115 -124.834 -115 -189.501c0 -41.333 12.833 -74.333 38.5 -99s59.167 -37 100.5 -37c76.667 0 141.5 40.5 194.5 121.5s80.167 192.5 81.5 334.5zM559.001 1064l-138.997 156
c-30.667 34 -49.334 55.667 -56.001 65s-10 20 -10 32c0 16 5.66699 30.333 17 43s25.666 19 42.999 19c13.333 0 24.166 -3 32.499 -9s19.833 -24 34.5 -54l114 -231z" />
    <glyph glyph-name="aacute" unicode="&#xe1;" horiz-adv-x="960" 
d="M155 792c153.333 101.333 297.667 152 433 152c63.333 0 109 -14 137 -42s41.667 -75.333 41 -142v-625c0 -30 13.667 -45 41 -45c26.667 0 73.667 30.667 141 92v-62c-101.333 -99.333 -184 -149 -248 -149c-57.333 0 -86 32 -86 96v148
c-83.333 -85.333 -153.833 -147.333 -211.5 -186s-112.167 -58 -163.5 -58c-50 0 -92.667 19.5 -128 58.5s-53 86.5 -53 142.5c0 144.667 185.333 300.667 556 468v120c0 36.667 -11 67 -33 91s-52.333 36 -91 36c-66 0 -124.667 -32 -176 -96s-82 -143.667 -92 -239h-67
v240zM625.001 559c-123.333 -25.333 -223.333 -68.832 -300 -130.499s-115 -124.834 -115 -189.501c0 -41.333 12.833 -74.333 38.5 -99s59.167 -37 100.5 -37c76.667 0 141.5 40.5 194.5 121.5s80.167 192.5 81.5 334.5zM431.001 1097l128 238c16 29.333 35 44 57 44
c18 0 32.667 -6.33301 44 -19s17 -26 17 -40c0 -16 -11.667 -37.333 -35 -64l-169 -188z" />
    <glyph glyph-name="acircumflex" unicode="&#xe2;" horiz-adv-x="960" 
d="M155 792c153.333 101.333 297.667 152 433 152c63.333 0 109 -14 137 -42s41.667 -75.333 41 -142v-625c0 -30 13.667 -45 41 -45c26.667 0 73.667 30.667 141 92v-62c-101.333 -99.333 -184 -149 -248 -149c-57.333 0 -86 32 -86 96v148
c-83.333 -85.333 -153.833 -147.333 -211.5 -186s-112.167 -58 -163.5 -58c-50 0 -92.667 19.5 -128 58.5s-53 86.5 -53 142.5c0 144.667 185.333 300.667 556 468v120c0 36.667 -11 67 -33 91s-52.333 36 -91 36c-66 0 -124.667 -32 -176 -96s-82 -143.667 -92 -239h-67
v240zM625.001 559c-123.333 -25.333 -223.333 -68.832 -300 -130.499s-115 -124.834 -115 -189.501c0 -41.333 12.833 -74.333 38.5 -99s59.167 -37 100.5 -37c76.667 0 141.5 40.5 194.5 121.5s80.167 192.5 81.5 334.5zM503.001 1347l280 -242h-66l-214 126l-211 -126h-68
z" />
    <glyph glyph-name="atilde" unicode="&#xe3;" horiz-adv-x="960" 
d="M155 792c153.333 101.333 297.667 152 433 152c63.333 0 109 -14 137 -42s41.667 -75.333 41 -142v-625c0 -30 13.667 -45 41 -45c26.667 0 73.667 30.667 141 92v-62c-101.333 -99.333 -184 -149 -248 -149c-57.333 0 -86 32 -86 96v148
c-83.333 -85.333 -153.833 -147.333 -211.5 -186s-112.167 -58 -163.5 -58c-50 0 -92.667 19.5 -128 58.5s-53 86.5 -53 142.5c0 144.667 185.333 300.667 556 468v120c0 36.667 -11 67 -33 91s-52.333 36 -91 36c-66 0 -124.667 -32 -176 -96s-82 -143.667 -92 -239h-67
v240zM625.001 559c-123.333 -25.333 -223.333 -68.832 -300 -130.499s-115 -124.834 -115 -189.501c0 -41.333 12.833 -74.333 38.5 -99s59.167 -37 100.5 -37c76.667 0 141.5 40.5 194.5 121.5s80.167 192.5 81.5 334.5zM199.001 1169c52.667 92.667 105 139 157 139
c28 0 76.667 -14.667 146 -44c54.667 -22 91 -33 109 -33c36.667 0 74 23.667 112 71l37 -23c-57.333 -90.667 -112.333 -136 -165 -136c-20 0 -61 11.333 -123 34c-66 25.333 -110 38 -132 38c-32.667 0 -67.667 -22.333 -105 -67z" />
    <glyph glyph-name="adieresis" unicode="&#xe4;" horiz-adv-x="960" 
d="M155 792c153.333 101.333 297.667 152 433 152c63.333 0 109 -14 137 -42s41.667 -75.333 41 -142v-625c0 -30 13.667 -45 41 -45c26.667 0 73.667 30.667 141 92v-62c-101.333 -99.333 -184 -149 -248 -149c-57.333 0 -86 32 -86 96v148
c-83.333 -85.333 -153.833 -147.333 -211.5 -186s-112.167 -58 -163.5 -58c-50 0 -92.667 19.5 -128 58.5s-53 86.5 -53 142.5c0 144.667 185.333 300.667 556 468v120c0 36.667 -11 67 -33 91s-52.333 36 -91 36c-66 0 -124.667 -32 -176 -96s-82 -143.667 -92 -239h-67
v240zM625.001 559c-123.333 -25.333 -223.333 -68.832 -300 -130.499s-115 -124.834 -115 -189.501c0 -41.333 12.833 -74.333 38.5 -99s59.167 -37 100.5 -37c76.667 0 141.5 40.5 194.5 121.5s80.167 192.5 81.5 334.5zM308.001 1323c29.333 0 53.667 -9.83301 73 -29.5
s29 -43.167 29 -70.5c0 -28.667 -10 -52.667 -30 -72s-43.667 -29 -71 -29s-50.833 9.83301 -70.5 29.5s-29.5 43.5 -29.5 71.5s10 51.667 30 71s43 29 69 29zM671.002 1323c30 0 54.667 -10 74 -30s29 -43.667 29 -71c0 -28 -10 -51.833 -30 -71.5s-43.667 -29.5 -71 -29.5
c-28 0 -51.833 9.83301 -71.5 29.5s-29.5 43.5 -29.5 71.5c0 28.667 10 52.667 30 72s43 29 69 29z" />
    <glyph glyph-name="aring" unicode="&#xe5;" horiz-adv-x="960" 
d="M155 792c153.333 101.333 297.667 152 433 152c63.333 0 109 -14 137 -42s41.667 -75.333 41 -142v-625c0 -30 13.667 -45 41 -45c26.667 0 73.667 30.667 141 92v-62c-101.333 -99.333 -184 -149 -248 -149c-57.333 0 -86 32 -86 96v148
c-83.333 -85.333 -153.833 -147.333 -211.5 -186s-112.167 -58 -163.5 -58c-50 0 -92.667 19.5 -128 58.5s-53 86.5 -53 142.5c0 144.667 185.333 300.667 556 468v120c0 36.667 -11 67 -33 91s-52.333 36 -91 36c-66 0 -124.667 -32 -176 -96s-82 -143.667 -92 -239h-67
v240zM625.001 559c-123.333 -25.333 -223.333 -68.832 -300 -130.499s-115 -124.834 -115 -189.501c0 -41.333 12.833 -74.333 38.5 -99s59.167 -37 100.5 -37c76.667 0 141.5 40.5 194.5 121.5s80.167 192.5 81.5 334.5zM500.001 1375
c44 0 80.499 -14.8311 109.499 -44.498s43.5 -64.834 43.5 -105.501s-14.667 -75.834 -44 -105.501s-64.666 -44.5 -105.999 -44.5c-42 0 -77.5 14.833 -106.5 44.5s-43.5 64.834 -43.5 105.501c0 43.333 15 79.166 45 107.499s64 42.5 102 42.5zM505 1318
c-27.333 0 -49.832 -9.16699 -67.499 -27.5s-26.5 -39.833 -26.5 -64.5c0 -25.333 9 -47 27 -65s39.667 -27 65 -27s47 9 65 27s27 39.667 27 65c0 26.667 -9.33301 48.667 -28 66s-39.334 26 -62.001 26z" />
    <glyph glyph-name="ae" unicode="&#xe6;" horiz-adv-x="1515" 
d="M175 789c174 104 318.333 156 433 156c55.333 0 97.5 -13.5 126.5 -40.5s44.833 -67.5 47.5 -121.5c94.667 108 197.334 162 308.001 162c94 0 172.333 -34.167 235 -102.5s95.334 -156.166 98.001 -263.499h-647c-0.666992 -23.333 -1 -41.666 -1 -54.999
c0 -128 32.667 -229.167 98 -303.5s142 -111.5 230 -111.5c61.333 0 118.666 16.667 171.999 50s113.666 85 180.999 155v-68c-88 -97.333 -165.833 -167.5 -233.5 -210.5s-135.5 -64.5 -203.5 -64.5c-74 0 -144.167 25.333 -210.5 76s-114.5 122 -144.5 214
c-65.333 -84 -135 -153.333 -209 -208s-136.667 -82 -188 -82c-45.333 0 -87 19.5 -125 58.5s-57 86.167 -57 141.5c0 69.333 42.667 140.666 128 213.999s224.333 160.666 417 261.999v108c0 44 -9.83301 76.833 -29.5 98.5s-49.167 32.5 -88.5 32.5
c-63.333 0 -122.5 -31.667 -177.5 -95s-85.5 -144 -91.5 -242h-68v240zM1257 630c-1.33301 72.667 -23.833 132.332 -67.5 178.999s-94.5 70 -152.5 70c-58.667 0 -112.5 -23.167 -161.5 -69.5s-79.167 -106.166 -90.5 -179.499h472zM646 561.998
c-120 -30 -218.5 -73.499 -295.5 -130.499s-115.5 -121.833 -115.5 -194.5c0 -42 12.5 -75.333 37.5 -100s58.167 -37 99.5 -37c73.333 0 135.333 36.667 186 110c60.667 87.333 90 204.666 88 351.999z" />
    <glyph glyph-name="ccedilla" unicode="&#xe7;" horiz-adv-x="917" 
d="M412 -27c-86 0 -167.5 38.6689 -244.5 116.002s-115.5 182.666 -115.5 315.999c0 108 24.833 200.333 74.5 277s109.334 139 179.001 187s149.834 72 240.501 72c83.333 0 174.666 -22 273.999 -66v-259h-72c-2 79.333 -28.333 143.833 -79 193.5s-111 74.5 -181 74.5
c-90 0 -161.167 -39.167 -213.5 -117.5s-78.5 -169.5 -78.5 -273.5c0 -111.333 28.667 -204.333 86 -279s129.333 -112 216 -112c99.333 0 215.333 69.667 348 209v-70c-132.667 -164.667 -261 -254 -385 -268v-88c24 2.66699 43.333 4 58 4
c40.667 0 75.167 -9.5 103.5 -28.5s42.5 -46.5 42.5 -82.5c0 -42.667 -19.167 -77 -57.5 -103s-82.166 -39 -131.499 -39c-40 0 -82.667 10 -128 30v56c41.333 -20.667 80.666 -31 117.999 -31c27.333 0 50.5 6.66699 69.5 20s28.5 31.333 28.5 54
c0 23.333 -10.5 41.666 -31.5 54.999s-47.5 20 -79.5 20c-10.667 0 -24.334 -0.666992 -41.001 -2v135z" />
    <glyph glyph-name="egrave" unicode="&#xe8;" horiz-adv-x="896" 
d="M856 251c-148.667 -186.667 -293.667 -280.001 -435 -280.001c-99.333 0 -187 43.167 -263 129.5s-114 188.833 -114 307.5c0 136.667 45.167 259.834 135.5 369.501s196.833 164.5 319.5 164.5c98.667 0 177 -35 235 -105s88.667 -155.333 92 -256h-645
c-1.33301 -26 -2 -45 -2 -57c0 -118 31.333 -216.5 94 -295.5s140 -118.5 232 -118.5c114.667 0 231.667 69 351 207v-66zM662 630.999c-8 78.667 -33 139.667 -75 183s-91.667 65 -149 65c-60 0 -113.667 -23.5 -161 -70.5s-76.333 -106.167 -87 -177.5h472zM530 1064
l-138.997 156c-30.667 34 -49.334 55.667 -56.001 65s-10 20 -10 32c0 16 5.66699 30.333 17 43s25.666 19 42.999 19c13.333 0 24.166 -3 32.499 -9s19.833 -24 34.5 -54l114 -231z" />
    <glyph glyph-name="eacute" unicode="&#xe9;" horiz-adv-x="896" 
d="M856 251c-148.667 -186.667 -293.667 -280.001 -435 -280.001c-99.333 0 -187 43.167 -263 129.5s-114 188.833 -114 307.5c0 136.667 45.167 259.834 135.5 369.501s196.833 164.5 319.5 164.5c98.667 0 177 -35 235 -105s88.667 -155.333 92 -256h-645
c-1.33301 -26 -2 -45 -2 -57c0 -118 31.333 -216.5 94 -295.5s140 -118.5 232 -118.5c114.667 0 231.667 69 351 207v-66zM662 630.999c-8 78.667 -33 139.667 -75 183s-91.667 65 -149 65c-60 0 -113.667 -23.5 -161 -70.5s-76.333 -106.167 -87 -177.5h472zM378 1097
l128 238c16 29.333 35 44 57 44c18 0 32.667 -6.33301 44 -19s17 -26 17 -40c0 -16 -11.667 -37.333 -35 -64l-169 -188z" />
    <glyph glyph-name="ecircumflex" unicode="&#xea;" horiz-adv-x="896" 
d="M856 251c-148.667 -186.667 -293.667 -280.001 -435 -280.001c-99.333 0 -187 43.167 -263 129.5s-114 188.833 -114 307.5c0 136.667 45.167 259.834 135.5 369.501s196.833 164.5 319.5 164.5c98.667 0 177 -35 235 -105s88.667 -155.333 92 -256h-645
c-1.33301 -26 -2 -45 -2 -57c0 -118 31.333 -216.5 94 -295.5s140 -118.5 232 -118.5c114.667 0 231.667 69 351 207v-66zM662 630.999c-8 78.667 -33 139.667 -75 183s-91.667 65 -149 65c-60 0 -113.667 -23.5 -161 -70.5s-76.333 -106.167 -87 -177.5h472zM474 1347
l280 -242h-66l-214 126l-211 -126h-68z" />
    <glyph glyph-name="edieresis" unicode="&#xeb;" horiz-adv-x="896" 
d="M856 251c-148.667 -186.667 -293.667 -280.001 -435 -280.001c-99.333 0 -187 43.167 -263 129.5s-114 188.833 -114 307.5c0 136.667 45.167 259.834 135.5 369.501s196.833 164.5 319.5 164.5c98.667 0 177 -35 235 -105s88.667 -155.333 92 -256h-645
c-1.33301 -26 -2 -45 -2 -57c0 -118 31.333 -216.5 94 -295.5s140 -118.5 232 -118.5c114.667 0 231.667 69 351 207v-66zM662 630.999c-8 78.667 -33 139.667 -75 183s-91.667 65 -149 65c-60 0 -113.667 -23.5 -161 -70.5s-76.333 -106.167 -87 -177.5h472zM303 1323
c29.333 0 53.667 -9.83301 73 -29.5s29 -43.167 29 -70.5c0 -28.667 -10 -52.667 -30 -72s-43.667 -29 -71 -29s-50.833 9.83301 -70.5 29.5s-29.5 43.5 -29.5 71.5s10 51.667 30 71s43 29 69 29zM666.001 1323c30 0 54.667 -10 74 -30s29 -43.667 29 -71
c0 -28 -10 -51.833 -30 -71.5s-43.667 -29.5 -71 -29.5c-28 0 -51.833 9.83301 -71.5 29.5s-29.5 43.5 -29.5 71.5c0 28.667 10 52.667 30 72s43 29 69 29z" />
    <glyph glyph-name="igrave" unicode="&#xec;" horiz-adv-x="555" 
d="M59 48c56.667 1.33301 96.501 14 119.501 38s34.167 63.333 33.5 118v547c0 42 -24 63 -72 63c-17.333 0 -36.333 -4.33301 -57 -13c-10.667 -4.66699 -18.667 -7.66699 -24 -9v51l256 101h49v-740c0 -58.667 12.167 -99 36.5 -121s63.166 -33.667 116.499 -35v-48h-458
v48zM319.001 1064l-138.997 156c-30.667 34 -49.334 55.667 -56.001 65s-10 20 -10 32c0 16 5.66699 30.333 17 43s25.666 19 42.999 19c13.333 0 24.166 -3 32.499 -9s19.833 -24 34.5 -54l114 -231z" />
    <glyph glyph-name="iacute" unicode="&#xed;" horiz-adv-x="555" 
d="M59 48c56.667 1.33301 96.501 14 119.501 38s34.167 63.333 33.5 118v547c0 42 -24 63 -72 63c-17.333 0 -36.333 -4.33301 -57 -13c-10.667 -4.66699 -18.667 -7.66699 -24 -9v51l256 101h49v-740c0 -58.667 12.167 -99 36.5 -121s63.166 -33.667 116.499 -35v-48h-458
v48zM216.001 1097l128 238c16 29.333 35 44 57 44c18 0 32.667 -6.33301 44 -19s17 -26 17 -40c0 -16 -11.667 -37.333 -35 -64l-169 -188z" />
    <glyph glyph-name="icircumflex" unicode="&#xee;" horiz-adv-x="555" 
d="M59 48c56.667 1.33301 96.501 14 119.501 38s34.167 63.333 33.5 118v547c0 42 -24 63 -72 63c-17.333 0 -36.333 -4.33301 -57 -13c-10.667 -4.66699 -18.667 -7.66699 -24 -9v51l256 101h49v-740c0 -58.667 12.167 -99 36.5 -121s63.166 -33.667 116.499 -35v-48h-458
v48zM263.001 1347l280 -242h-66l-214 126l-211 -126h-68z" />
    <glyph glyph-name="idieresis" unicode="&#xef;" horiz-adv-x="555" 
d="M60 48c56.667 1.33301 96.501 14 119.501 38s34.167 63.333 33.5 118v547c0 42 -24 63 -72 63c-17.333 0 -36.333 -4.33301 -57 -13c-10.667 -4.66699 -18.667 -7.66699 -24 -9v51l256 101h49v-740c0 -58.667 12.167 -99 36.5 -121s63.166 -33.667 116.499 -35v-48h-458
v48zM93.001 1323c29.333 0 53.667 -9.83301 73 -29.5s29 -43.167 29 -70.5c0 -28.667 -10 -52.667 -30 -72s-43.667 -29 -71 -29s-50.833 9.83301 -70.5 29.5s-29.5 43.5 -29.5 71.5s10 51.667 30 71s43 29 69 29zM456.002 1323c30 0 54.667 -10 74 -30s29 -43.667 29 -71
c0 -28 -10 -51.833 -30 -71.5s-43.667 -29.5 -71 -29.5c-28 0 -51.833 9.83301 -71.5 29.5s-29.5 43.5 -29.5 71.5c0 28.667 10 52.667 30 72s43 29 69 29z" />
    <glyph glyph-name="eth" unicode="&#xf0;" horiz-adv-x="1003" 
d="M680 1320l21 -49l-173 -78c144 -112 252 -225.5 324 -340.5s108 -231.167 108 -348.5c0 -147.333 -51.5 -273.333 -154.5 -378s-221.5 -157 -355.5 -157c-116 0 -212.833 39 -290.5 117s-116.5 184.667 -116.5 320c0 136 45.167 256 135.5 360s198.5 156 324.5 156
c30.667 0 65 -5.33301 103 -16c-70.667 90.667 -141 166.667 -211 228l-271 -120l-25 48l254 112c-68.667 65.333 -123.667 113.333 -165 144l241 100l1 -46c-24.667 -12 -37 -28 -37 -48s27.667 -51.333 83 -94zM694 778c-74.667 55.333 -152.334 82.999 -233.001 82.999
c-98.667 0 -170.5 -32.5 -215.5 -97.5s-67.5 -144.167 -67.5 -237.5c0 -114 37 -220.167 111 -318.5s162.667 -147.5 266 -147.5c72.667 0 135.334 30.667 188.001 92s79 141 79 239c0 56.667 -10.667 117.334 -32 182.001s-53.333 133 -96 205z" />
    <glyph glyph-name="ntilde" unicode="&#xf1;" 
d="M52 839l260.001 106.001h42v-329c96 128 175 214.833 237 260.5s120.667 68.5 176 68.5c112.667 0 169 -72.333 169 -217v-524c0 -59.333 12.167 -99.833 36.5 -121.5s63.166 -33.167 116.499 -34.5v-48h-348v48c28 1.33301 42 17.666 42 48.999v618
c0 34.667 -9 62.5 -27 83.5s-41.333 31.5 -70 31.5c-84 0 -162.167 -59.5 -234.5 -178.5s-108.5 -255.5 -108.5 -409.5c0 -78 12 -129.5 36 -154.5s66.667 -38.167 128 -39.5v-48h-455v48c54 1.33301 92.833 13 116.5 35s35.5 62.333 35.5 121v511c0 66 -22 99 -66 99
c-16 0 -44.667 -8.33301 -86 -25v50zM290.001 1169c52.667 92.667 105 139 157 139c28 0 76.667 -14.667 146 -44c54.667 -22 91 -33 109 -33c36.667 0 74 23.667 112 71l37 -23c-57.333 -90.667 -112.333 -136 -165 -136c-20 0 -61 11.333 -123 34
c-66 25.333 -110 38 -132 38c-32.667 0 -67.667 -22.333 -105 -67z" />
    <glyph glyph-name="ograve" unicode="&#xf2;" horiz-adv-x="1003" 
d="M542 942c126 0 226.833 -39.499 302.5 -118.499s113.5 -184.167 113.5 -315.5c0 -156 -52.667 -284.5 -158 -385.5s-221.333 -151.5 -348 -151.5s-226.667 40.167 -300 120.5s-110 184.833 -110 313.5c0 153.333 52.167 281.166 156.5 383.499s218.833 153.5 343.5 153.5
zM457 864.001c-90.667 0 -160.003 -32.335 -208.003 -97.002s-72 -145.667 -72 -243c0 -120 37.833 -227.167 113.5 -321.5s163.834 -141.5 264.501 -141.5c74.667 0 137.834 31 189.501 93s77.5 143 77.5 243c0 92.667 -20.667 175.834 -62 249.501
s-88.666 128.334 -141.999 164.001s-107 53.5 -161 53.5zM530.997 1064l-138.997 156c-30.667 34 -49.334 55.667 -56.001 65s-10 20 -10 32c0 16 5.66699 30.333 17 43s25.666 19 42.999 19c13.333 0 24.166 -3 32.499 -9s19.833 -24 34.5 -54l114 -231z" />
    <glyph glyph-name="oacute" unicode="&#xf3;" horiz-adv-x="1003" 
d="M542 942c126 0 226.833 -39.499 302.5 -118.499s113.5 -184.167 113.5 -315.5c0 -156 -52.667 -284.5 -158 -385.5s-221.333 -151.5 -348 -151.5s-226.667 40.167 -300 120.5s-110 184.833 -110 313.5c0 153.333 52.167 281.166 156.5 383.499s218.833 153.5 343.5 153.5
zM457 864.001c-90.667 0 -160.003 -32.335 -208.003 -97.002s-72 -145.667 -72 -243c0 -120 37.833 -227.167 113.5 -321.5s163.834 -141.5 264.501 -141.5c74.667 0 137.834 31 189.501 93s77.5 143 77.5 243c0 92.667 -20.667 175.834 -62 249.501
s-88.666 128.334 -141.999 164.001s-107 53.5 -161 53.5zM427.997 1097l128 238c16 29.333 35 44 57 44c18 0 32.667 -6.33301 44 -19s17 -26 17 -40c0 -16 -11.667 -37.333 -35 -64l-169 -188z" />
    <glyph glyph-name="ocircumflex" unicode="&#xf4;" horiz-adv-x="1003" 
d="M542 942c126 0 226.833 -39.499 302.5 -118.499s113.5 -184.167 113.5 -315.5c0 -156 -52.667 -284.5 -158 -385.5s-221.333 -151.5 -348 -151.5s-226.667 40.167 -300 120.5s-110 184.833 -110 313.5c0 153.333 52.167 281.166 156.5 383.499s218.833 153.5 343.5 153.5
zM457 864.001c-90.667 0 -160.003 -32.335 -208.003 -97.002s-72 -145.667 -72 -243c0 -120 37.833 -227.167 113.5 -321.5s163.834 -141.5 264.501 -141.5c74.667 0 137.834 31 189.501 93s77.5 143 77.5 243c0 92.667 -20.667 175.834 -62 249.501
s-88.666 128.334 -141.999 164.001s-107 53.5 -161 53.5zM499.997 1347l280 -242h-66l-214 126l-211 -126h-68z" />
    <glyph glyph-name="otilde" unicode="&#xf5;" horiz-adv-x="1003" 
d="M542 942c126 0 226.833 -39.499 302.5 -118.499s113.5 -184.167 113.5 -315.5c0 -156 -52.667 -284.5 -158 -385.5s-221.333 -151.5 -348 -151.5s-226.667 40.167 -300 120.5s-110 184.833 -110 313.5c0 153.333 52.167 281.166 156.5 383.499s218.833 153.5 343.5 153.5
zM457 864.001c-90.667 0 -160.003 -32.335 -208.003 -97.002s-72 -145.667 -72 -243c0 -120 37.833 -227.167 113.5 -321.5s163.834 -141.5 264.501 -141.5c74.667 0 137.834 31 189.501 93s77.5 143 77.5 243c0 92.667 -20.667 175.834 -62 249.501
s-88.666 128.334 -141.999 164.001s-107 53.5 -161 53.5zM219.997 1169c52.667 92.667 105 139 157 139c28 0 76.667 -14.667 146 -44c54.667 -22 91 -33 109 -33c36.667 0 74 23.667 112 71l37 -23c-57.333 -90.667 -112.333 -136 -165 -136c-20 0 -61 11.333 -123 34
c-66 25.333 -110 38 -132 38c-32.667 0 -67.667 -22.333 -105 -67z" />
    <glyph glyph-name="odieresis" unicode="&#xf6;" horiz-adv-x="1003" 
d="M542 942c126 0 226.833 -39.499 302.5 -118.499s113.5 -184.167 113.5 -315.5c0 -156 -52.667 -284.5 -158 -385.5s-221.333 -151.5 -348 -151.5s-226.667 40.167 -300 120.5s-110 184.833 -110 313.5c0 153.333 52.167 281.166 156.5 383.499s218.833 153.5 343.5 153.5
zM457 864.001c-90.667 0 -160.003 -32.335 -208.003 -97.002s-72 -145.667 -72 -243c0 -120 37.833 -227.167 113.5 -321.5s163.834 -141.5 264.501 -141.5c74.667 0 137.834 31 189.501 93s77.5 143 77.5 243c0 92.667 -20.667 175.834 -62 249.501
s-88.666 128.334 -141.999 164.001s-107 53.5 -161 53.5zM316.997 1323c29.333 0 53.667 -9.83301 73 -29.5s29 -43.167 29 -70.5c0 -28.667 -10 -52.667 -30 -72s-43.667 -29 -71 -29s-50.833 9.83301 -70.5 29.5s-29.5 43.5 -29.5 71.5s10 51.667 30 71s43 29 69 29z
M679.998 1323c30 0 54.667 -10 74 -30s29 -43.667 29 -71c0 -28 -10 -51.833 -30 -71.5s-43.667 -29.5 -71 -29.5c-28 0 -51.833 9.83301 -71.5 29.5s-29.5 43.5 -29.5 71.5c0 28.667 10 52.667 30 72s43 29 69 29z" />
    <glyph glyph-name="divide" unicode="&#xf7;" horiz-adv-x="1365" 
d="M754 1059c0 -20 -7 -37 -21 -51s-31 -21 -51 -21s-37 7 -51 21s-21 31 -21 51s7 37 21 51s31 21 51 21s37 -7 51 -21s21 -31 21 -51zM142 696h1080v-108h-1080v108zM754 225c0 -20 -7 -37.166 -21 -51.499s-31 -21.5 -51 -21.5s-37 7.16699 -51 21.5s-21 31.5 -21 51.5
c0 19.333 7 36.166 21 50.499s31 21.5 51 21.5s37 -7 51 -21s21 -31 21 -51z" />
    <glyph glyph-name="oslash" unicode="&#xf8;" horiz-adv-x="1003" 
d="M778 973h79l-62 -104c110 -84 165 -204.667 165 -362c0 -107.333 -26.833 -202.166 -80.5 -284.499s-119 -144.833 -196 -187.5s-152.833 -64 -227.5 -64c-58 0 -121.333 14.333 -190 43l-46 -72h-76l64 106c-50 32.667 -90.333 82 -121 148s-46 135.667 -46 209
c0 139.333 49.833 263.666 149.5 372.999s219.167 164 358.5 164c65.333 0 127.333 -12.667 186 -38zM297 191l360 589.001c-65.333 56 -134 84 -206 84c-80 0 -145.667 -30.833 -197 -92.5s-77 -140.5 -77 -236.5c0 -130.667 40 -245.334 120 -344.001zM708 729.001
l-362.001 -584.999c68.667 -55.333 138.334 -83 209.001 -83c77.333 0 141 30.667 191 92s75 144 75 248c0 113.333 -37.667 222.666 -113 327.999z" />
    <glyph glyph-name="ugrave" unicode="&#xf9;" 
d="M31 880l343 61v-39c-28 -8 -42 -31 -42 -69v-619c0 -40.667 9 -72.667 27 -96s42 -35 72 -35c76.667 0 153 57.667 229 173s114 251 114 407c0 60 -7.83301 104.667 -23.5 134s-43.5 44 -83.5 44c-12.667 0 -31.667 -2.66699 -57 -8v47l348 61v-39
c-29.333 -4.66699 -44 -27.667 -44 -69v-643c0 -62 23 -93 69 -93c27.333 0 62.333 10 105 30v-49l-276 -110h-49v332c-104.667 -142.667 -187.5 -233.167 -248.5 -271.5s-117.5 -57.5 -169.5 -57.5c-110 0 -165 78 -165 234v547c0 58 -31 87 -93 87
c-13.333 0 -32 -2 -56 -6v47zM591 1064l-138.997 156c-30.667 34 -49.334 55.667 -56.001 65s-10 20 -10 32c0 16 5.66699 30.333 17 43s25.666 19 42.999 19c13.333 0 24.166 -3 32.499 -9s19.833 -24 34.5 -54l114 -231z" />
    <glyph glyph-name="uacute" unicode="&#xfa;" 
d="M31 880l343 61v-39c-28 -8 -42 -31 -42 -69v-619c0 -40.667 9 -72.667 27 -96s42 -35 72 -35c76.667 0 153 57.667 229 173s114 251 114 407c0 60 -7.83301 104.667 -23.5 134s-43.5 44 -83.5 44c-12.667 0 -31.667 -2.66699 -57 -8v47l348 61v-39
c-29.333 -4.66699 -44 -27.667 -44 -69v-643c0 -62 23 -93 69 -93c27.333 0 62.333 10 105 30v-49l-276 -110h-49v332c-104.667 -142.667 -187.5 -233.167 -248.5 -271.5s-117.5 -57.5 -169.5 -57.5c-110 0 -165 78 -165 234v547c0 58 -31 87 -93 87
c-13.333 0 -32 -2 -56 -6v47zM488 1097l128 238c16 29.333 35 44 57 44c18 0 32.667 -6.33301 44 -19s17 -26 17 -40c0 -16 -11.667 -37.333 -35 -64l-169 -188z" />
    <glyph glyph-name="ucircumflex" unicode="&#xfb;" 
d="M31 880l343 61v-39c-28 -8 -42 -31 -42 -69v-619c0 -40.667 9 -72.667 27 -96s42 -35 72 -35c76.667 0 153 57.667 229 173s114 251 114 407c0 60 -7.83301 104.667 -23.5 134s-43.5 44 -83.5 44c-12.667 0 -31.667 -2.66699 -57 -8v47l348 61v-39
c-29.333 -4.66699 -44 -27.667 -44 -69v-643c0 -62 23 -93 69 -93c27.333 0 62.333 10 105 30v-49l-276 -110h-49v332c-104.667 -142.667 -187.5 -233.167 -248.5 -271.5s-117.5 -57.5 -169.5 -57.5c-110 0 -165 78 -165 234v547c0 58 -31 87 -93 87
c-13.333 0 -32 -2 -56 -6v47zM559 1347l280 -242h-66l-214 126l-211 -126h-68z" />
    <glyph glyph-name="udieresis" unicode="&#xfc;" 
d="M31 880l343 61v-39c-28 -8 -42 -31 -42 -69v-619c0 -40.667 9 -72.667 27 -96s42 -35 72 -35c76.667 0 153 57.667 229 173s114 251 114 407c0 60 -7.83301 104.667 -23.5 134s-43.5 44 -83.5 44c-12.667 0 -31.667 -2.66699 -57 -8v47l348 61v-39
c-29.333 -4.66699 -44 -27.667 -44 -69v-643c0 -62 23 -93 69 -93c27.333 0 62.333 10 105 30v-49l-276 -110h-49v332c-104.667 -142.667 -187.5 -233.167 -248.5 -271.5s-117.5 -57.5 -169.5 -57.5c-110 0 -165 78 -165 234v547c0 58 -31 87 -93 87
c-13.333 0 -32 -2 -56 -6v47zM376 1323c29.333 0 53.667 -9.83301 73 -29.5s29 -43.167 29 -70.5c0 -28.667 -10 -52.667 -30 -72s-43.667 -29 -71 -29s-50.833 9.83301 -70.5 29.5s-29.5 43.5 -29.5 71.5s10 51.667 30 71s43 29 69 29zM739.001 1323
c30 0 54.667 -10 74 -30s29 -43.667 29 -71c0 -28 -10 -51.833 -30 -71.5s-43.667 -29.5 -71 -29.5c-28 0 -51.833 9.83301 -71.5 29.5s-29.5 43.5 -29.5 71.5c0 28.667 10 52.667 30 72s43 29 69 29z" />
    <glyph glyph-name="yacute" unicode="&#xfd;" horiz-adv-x="960" 
d="M-2 916l323.998 0.00195312v-48c-25.333 -1.33301 -38 -9.33301 -38 -24c0 -8 2 -16.333 6 -25l248 -617l98 261c44 117.333 66 214.666 66 291.999c0 40.667 -11.167 69.667 -33.5 87s-58.833 26 -109.5 26v48h417v-48c-42.667 -2.66699 -75.5 -16.5 -98.5 -41.5
s-52.5 -79.833 -88.5 -164.5l-343 -890c-52.667 -136.667 -152 -211.334 -298 -224.001l-162 191l54 43c52.667 -65.333 111.334 -98 176.001 -98c34 0 65.333 10.667 94 32s50.334 46.5 65.001 75.5s37 82.833 67 161.5l16 41l-273 679c-29.333 73.333 -57.333 124 -84 152
s-61 42.333 -103 43v48zM408.998 1097l128 238c16 29.333 35 44 57 44c18 0 32.667 -6.33301 44 -19s17 -26 17 -40c0 -16 -11.667 -37.333 -35 -64l-169 -188z" />
    <glyph glyph-name="thorn" unicode="&#xfe;" horiz-adv-x="1088" 
d="M188 -218l-0.00195312 1409c0 39.333 -21.667 59 -65 59c-24.667 0 -53 -6.33301 -85 -19v48l341 137v-43c-27.333 -10.667 -41 -34.667 -41 -72v-684c94.667 130 171.834 217 231.501 261s119.834 66 180.501 66c80 0 148.833 -33.833 206.5 -101.5
s86.5 -157.5 86.5 -269.5c0 -157.333 -52.167 -297 -156.5 -419s-221.5 -183 -351.5 -183c-30 0 -61.5 4 -94.5 12s-67.167 19.667 -102.5 35v-236c0 -58.667 12 -99.5 36 -122.5s63.667 -34.833 119 -35.5v-49h-457v49c56 0.666992 95.333 13 118 37s34 64.333 34 121z
M337.998 146c46.667 -38 90.667 -66.501 132 -85.501s80 -28.5 116 -28.5c84 0 156 42.333 216 127s90 192.334 90 323.001c0 102 -19.5 185.333 -58.5 250s-91.5 97 -157.5 97c-86.667 0 -166.5 -56.333 -239.5 -169s-109.5 -242 -109.5 -388
c0 -31.333 3.66699 -73.333 11 -126z" />
    <glyph glyph-name="ydieresis" unicode="&#xff;" horiz-adv-x="960" 
d="M-2 916l323.998 0.00195312v-48c-25.333 -1.33301 -38 -9.33301 -38 -24c0 -8 2 -16.333 6 -25l248 -617l98 261c44 117.333 66 214.666 66 291.999c0 40.667 -11.167 69.667 -33.5 87s-58.833 26 -109.5 26v48h417v-48c-42.667 -2.66699 -75.5 -16.5 -98.5 -41.5
s-52.5 -79.833 -88.5 -164.5l-343 -890c-52.667 -136.667 -152 -211.334 -298 -224.001l-162 191l54 43c52.667 -65.333 111.334 -98 176.001 -98c34 0 65.333 10.667 94 32s50.334 46.5 65.001 75.5s37 82.833 67 161.5l16 41l-273 679c-29.333 73.333 -57.333 124 -84 152
s-61 42.333 -103 43v48zM297.998 1323c29.333 0 53.667 -9.83301 73 -29.5s29 -43.167 29 -70.5c0 -28.667 -10 -52.667 -30 -72s-43.667 -29 -71 -29s-50.833 9.83301 -70.5 29.5s-29.5 43.5 -29.5 71.5s10 51.667 30 71s43 29 69 29zM660.999 1323c30 0 54.667 -10 74 -30
s29 -43.667 29 -71c0 -28 -10 -51.833 -30 -71.5s-43.667 -29.5 -71 -29.5c-28 0 -51.833 9.83301 -71.5 29.5s-29.5 43.5 -29.5 71.5c0 28.667 10 52.667 30 72s43 29 69 29z" />
    <glyph glyph-name="dotlessi" unicode="&#x131;" horiz-adv-x="555" 
d="M59 48c56.667 1.33301 96.501 14 119.501 38s34.167 63.333 33.5 118v547c0 42 -24 63 -72 63c-17.333 0 -36.333 -4.33301 -57 -13c-10.667 -4.66699 -18.667 -7.66699 -24 -9v51l256 101h49v-740c0 -58.667 12.167 -99 36.5 -121s63.166 -33.667 116.499 -35v-48h-458
v48z" />
    <glyph glyph-name="OE" unicode="&#x152;" horiz-adv-x="1771" 
d="M1622 1327l48.999 -0.000976562v-383h-73c0 107.333 -30.5 182 -91.5 224s-134.833 63 -221.5 63h-106c-8 -48.667 -12 -115.334 -12 -200.001c0 -118 23.333 -202.667 70 -254s120.334 -77 221.001 -77h89v-70l-368 -8v-574h112c207.333 0 330 95.333 368 286h76
l-76 -381h-51l1 10c0 24.667 -14.667 37 -44 37h-512c-24.667 0 -76 -4.66699 -154 -14c-88.667 -10 -151.334 -15 -188.001 -15c-110 0 -210.833 21.833 -302.5 65.5s-169.5 113.334 -233.5 209.001s-96 205.167 -96 328.5c0 104 20.833 201.5 62.5 292.5
s102.834 173.333 183.501 247s160.167 122.834 238.5 147.501s165.833 37 262.5 37c24 0 58.667 -2.33301 104 -7c68.667 -8 124.667 -12 168 -12h467c38 0 57 16 57 48zM996.999 1125c-83.333 67.333 -181.333 101.001 -294 101.001c-132 0 -241.333 -44.333 -328 -133
s-130 -208.334 -130 -359.001c0 -124 29.333 -242 88 -354s139.667 -197 243 -255s208 -87 314 -87c44 0 79.667 3.33301 107 10v1077z" />
    <glyph glyph-name="oe" unicode="&#x153;" horiz-adv-x="1685" 
d="M908 737c102.667 138.667 219.001 207.998 349.001 207.998c101.333 0 180.666 -33.5 237.999 -100.5s88.333 -153.5 93 -259.5h-644c-1.33301 -22.667 -2 -39 -2 -49c0 -121.333 31 -222.666 93 -303.999s141.333 -122 238 -122c111.333 0 228.333 70 351 210v-70
c-159.333 -186 -305.666 -279 -438.999 -279c-66.667 0 -127.334 18.667 -182.001 56s-103.667 93 -147 167c-54.667 -74 -115.5 -129.667 -182.5 -167s-139.833 -56 -218.5 -56c-118.667 0 -216.334 40.167 -293.001 120.5s-115 185.833 -115 316.5
c0 146.667 50.333 272.834 151 378.501s219.334 158.5 356.001 158.5c80 0 149.5 -17.333 208.5 -52s107.5 -86.667 145.5 -156zM951.001 633.998h472c-4 71.333 -27 130.5 -69 177.5s-93.667 70.5 -155 70.5c-57.333 0 -109.5 -23.333 -156.5 -70s-77.5 -106 -91.5 -178z
M456.001 863.998c-88 0 -156.167 -33 -204.5 -99s-72.5 -144.667 -72.5 -236c0 -116 37 -222.667 111 -320s160.667 -146 260 -146c80 0 144.833 30.333 194.5 91s74.5 142 74.5 244c0 139.333 -40 251.833 -120 337.5s-161 128.5 -243 128.5z" />
    <glyph glyph-name="Scaron" unicode="&#x160;" horiz-adv-x="917" 
d="M220 749c-30.667 29.333 -53.8359 60.6709 -69.5029 94.0039s-23.5 68.333 -23.5 105c0 96 44 180 132 252s191 108 309 108c59.333 0 138.333 -17 237 -51v-314h-73c-5.33301 87.333 -32 158.666 -80 213.999s-106.667 83 -176 83c-56.667 0 -103.5 -17.5 -140.5 -52.5
s-55.5 -79.167 -55.5 -132.5c0 -51.333 18.333 -99.333 55 -144c36 -44.667 123 -113.334 261 -206.001c104.667 -70 175.334 -126.667 212.001 -170c36 -44 54 -98 54 -162c0 -104.667 -48.167 -197.834 -144.5 -279.501s-205.5 -122.5 -327.5 -122.5
c-87.333 0 -185.333 21 -294 63v360h71c0 -101.333 29.333 -186 88 -254s128.334 -102 209.001 -102c74 0 132.5 21.667 175.5 65s64.5 98.333 64.5 165c0 58 -17.667 109 -53 153c-35.333 43.333 -115.666 106.666 -240.999 189.999c-68.667 45.333 -132 91.333 -190 138z
M246.998 1670h68l213 -132l214 132h66l-280 -242z" />
    <glyph glyph-name="scaron" unicode="&#x161;" horiz-adv-x="747" 
d="M150 308c5.33301 -86.667 30.167 -154.003 74.5 -202.003s97.5 -72 159.5 -72c51.333 0 93.333 15.667 126 47s49 71 49 119c0 42.667 -12.333 78.667 -37 108c-25.333 28.667 -75 66.334 -149 113.001l-144 93.5c-43.333 29 -73.333 58.5 -90 88.5
c-17.333 30 -26 60.667 -26 92c0 64.667 29.833 122.334 89.5 173.001s138.834 76 237.501 76c60.667 0 126 -13.333 196 -40v-262h-72c-0.666992 74 -21.334 133.333 -62.001 178s-87.334 67 -140.001 67c-37.333 0 -66.5 -11.833 -87.5 -35.5s-31.5 -51.5 -31.5 -83.5
c0 -36 12 -67 36 -93c23.333 -26.667 70.333 -62 141 -106c121.333 -76.667 197.333 -130.667 228 -162c30.667 -32 46 -74.333 46 -127c0 -83.333 -36.833 -155.666 -110.5 -216.999s-158.5 -92 -254.5 -92c-71.333 0 -153.666 20 -246.999 60v277h68zM108.001 1347h68
l213 -132l214 132h66l-280 -242z" />
    <glyph glyph-name="Ydieresis" unicode="&#x178;" horiz-adv-x="1195" 
d="M35 1279l363.001 0.000976562v-48c-25.333 -0.666992 -38 -9.66699 -38 -27c0 -5.33301 1.33301 -11.333 4 -18l314 -624c162 253.333 243 438 243 554c0 41.333 -12.167 70.666 -36.5 87.999s-66.5 26.333 -126.5 27v48h478v-48
c-38.667 -0.666992 -76.334 -18 -113.001 -52s-78.667 -91.333 -126 -172l-303 -516v-284c0 -102.667 50.667 -155.667 152 -159v-48h-489v48c59.333 0.666992 99.5 12.167 120.5 34.5s31.5 63.833 31.5 124.5v284l-250 502c-38 76 -74.167 134.5 -108.5 175.5
s-72.833 61.833 -115.5 62.5v48zM452.001 1646c29.333 0 53.667 -9.83301 73 -29.5s29 -43.167 29 -70.5c0 -28.667 -10 -52.667 -30 -72s-43.667 -29 -71 -29s-50.833 9.83301 -70.5 29.5s-29.5 43.5 -29.5 71.5s10 51.667 30 71s43 29 69 29zM815.002 1646
c30 0 54.667 -10 74 -30s29 -43.667 29 -71c0 -28 -10 -51.833 -30 -71.5s-43.667 -29.5 -71 -29.5c-28 0 -51.833 9.83301 -71.5 29.5s-29.5 43.5 -29.5 71.5c0 28.667 10 52.667 30 72s43 29 69 29z" />
    <glyph glyph-name="florin" unicode="&#x192;" horiz-adv-x="1088" 
d="M639 1241c96.667 90.667 192.332 135.999 286.999 135.999c70 0 124 -25 162 -75l-162 -174l-34 30c7.33301 15.333 11 29.333 11 42c0 24.667 -9 45 -27 61s-37.667 24 -59 24c-57.333 0 -108.5 -35.5 -153.5 -106.5s-67.5 -140.833 -67.5 -209.5
c0 -44 13.667 -76.167 41 -96.5s76 -30.5 146 -30.5h95l-11 -47h-312l-181 -720c-30 -120.667 -66.667 -214.5 -110 -281.5s-108.333 -140.5 -195 -220.5h-69c95.333 82.667 161.833 163 199.5 241s64.834 171.667 81.501 281l107 700h-140l13 47
c46 0.666992 83 11.834 111 33.501s63.333 69.167 106 142.5c54 92.667 107.667 167 161 223z" />
    <glyph glyph-name="circumflex" unicode="&#x2c6;" horiz-adv-x="683" 
d="M340 1347l280 -242h-66l-214 126l-211 -126h-68z" />
    <glyph glyph-name="caron" unicode="&#x2c7;" horiz-adv-x="683" 
d="M56 1344h68l213 -132l214 132h66l-280 -242z" />
    <glyph glyph-name="breve" unicode="&#x2d8;" horiz-adv-x="683" 
d="M78 1335h43c39.333 -81.333 111 -122 215 -122c100.667 0 173 40.667 217 122h44c-44 -147.333 -130.333 -221 -259 -221c-135.333 0 -222 73.667 -260 221z" />
    <glyph glyph-name="dotaccent" unicode="&#x2d9;" horiz-adv-x="683" 
d="M329 1322c29.333 0 53.667 -9.83301 73 -29.5s29 -43.167 29 -70.5c0 -28.667 -10 -52.667 -30 -72s-43.667 -29 -71 -29s-50.833 9.83301 -70.5 29.5s-29.5 43.5 -29.5 71.5s10 51.667 30 71s43 29 69 29z" />
    <glyph glyph-name="ring" unicode="&#x2da;" horiz-adv-x="683" 
d="M338 1375c44 0 80.499 -14.8311 109.499 -44.498s43.5 -64.834 43.5 -105.501s-14.667 -75.834 -44 -105.501s-64.666 -44.5 -105.999 -44.5c-42 0 -77.5 14.833 -106.5 44.5s-43.5 64.834 -43.5 105.501c0 43.333 15 79.166 45 107.499s64 42.5 102 42.5zM342.999 1318
c-27.333 0 -49.832 -9.16699 -67.499 -27.5s-26.5 -39.833 -26.5 -64.5c0 -25.333 9 -47 27 -65s39.667 -27 65 -27s47 9 65 27s27 39.667 27 65c0 26.667 -9.33301 48.667 -28 66s-39.334 26 -62.001 26z" />
    <glyph glyph-name="ogonek" unicode="&#x2db;" horiz-adv-x="683" 
d="M273 22h68.999c-15.333 -78 -23 -132.333 -23 -163c0 -54.667 8.83301 -95.667 26.5 -123s44.167 -41 79.5 -41c13.333 0 30.333 3 51 9l18 -44c-32.667 -15.333 -66 -23 -100 -23c-51.333 0 -94.666 14 -129.999 42s-53 67.667 -53 119c0 45.333 20.667 120 62 224z" />
    <glyph glyph-name="tilde" unicode="&#x2dc;" horiz-adv-x="683" 
d="M58 1169c52.667 92.667 105 139 157 139c28 0 76.667 -14.667 146 -44c54.667 -22 91 -33 109 -33c36.667 0 74 23.667 112 71l37 -23c-57.333 -90.667 -112.333 -136 -165 -136c-20 0 -61 11.333 -123 34c-66 25.333 -110 38 -132 38
c-32.667 0 -67.667 -22.333 -105 -67z" />
    <glyph glyph-name="hungarumlaut" unicode="&#x2dd;" horiz-adv-x="683" 
d="M173 1097l128 238c16 29.333 35 44 57 44c18 0 32.667 -6.33301 44 -19s17 -26 17 -40c0 -16 -11.667 -37.333 -35 -64l-169 -188zM390 1097l128 238c16 29.333 35 44 57 44c18 0 32.667 -6.33301 44 -19s17 -26 17 -40c0 -16 -11.667 -37.333 -35 -64l-169 -188z" />
    <glyph glyph-name="pi" unicode="&#x3c0;" horiz-adv-x="1124" 
d="M1024 916l0.00390625 -146.001h-232c-26 -157.333 -39 -310.333 -39 -459c0 -62 12.333 -106.167 37 -132.5s54 -39.5 88 -39.5c65.333 0 102 37 110 111h36c-12 -96.667 -36.833 -167.167 -74.5 -211.5s-81.5 -66.5 -131.5 -66.5c-48 0 -89.167 22.5 -123.5 67.5
s-51.5 138.167 -51.5 279.5c0 130 12.667 280.333 38 451h-235l-17 -245c-6 -86 -17.5 -177.667 -34.5 -275s-33.333 -162.666 -49 -195.999s-31.167 -55.333 -46.5 -66s-31 -16 -47 -16c-24.667 0 -45.834 8.16699 -63.501 24.5s-26.5 35.833 -26.5 58.5
c0 20 2.83301 36.5 8.5 49.5s24.5 41.5 56.5 85.5c34.667 47.333 58 103.5 70 168.5s24.667 202.167 38 411.5h-29c-44.667 0 -81.834 -9 -111.501 -27s-61.834 -56 -96.501 -114h-36c20 75.333 46 135.5 78 180.5s64.167 74 96.5 87s82.166 19.5 149.499 19.5h638z" />
    <glyph glyph-name="endash" unicode="&#x2013;" horiz-adv-x="1024" 
d="M-12 550h1048v-61h-1048v61z" />
    <glyph glyph-name="emdash" unicode="&#x2014;" horiz-adv-x="2048" 
d="M-12 550h2072v-61h-2072v61z" />
    <glyph glyph-name="quoteleft" unicode="&#x2018;" horiz-adv-x="491" 
d="M467 1412l0.000976562 -55c-78 -52 -135.833 -109.667 -173.5 -173s-56.5 -118.333 -56.5 -165c0 -36.667 10.667 -69.334 32 -98.001c13.333 16 27.5 27.833 42.5 35.5s30.833 11.5 47.5 11.5c68 0 102 -33.333 102 -100c0 -38.667 -15.167 -68.667 -45.5 -90
s-65.833 -32 -106.5 -32c-58 0 -103.167 18 -135.5 54s-48.5 79 -48.5 129c0 90.667 33.667 181.334 101 272.001s147.666 161 240.999 211z" />
    <glyph glyph-name="quoteright" unicode="&#x2019;" horiz-adv-x="491" 
d="M105 743l0.00195312 56c76 54 133 109.167 171 165.5s57 113.833 57 172.5c0 41.333 -11 75 -33 101c-10.667 -16 -23.834 -28.167 -39.501 -36.5s-34.167 -12.5 -55.5 -12.5c-28 0 -51.333 9.5 -70 28.5s-28 41.833 -28 68.5c0 31.333 13.5 59.833 40.5 85.5
s64.5 38.5 112.5 38.5c58 0 103.167 -17 135.5 -51s48.5 -79 48.5 -135c0 -86.667 -30.833 -173.5 -92.5 -260.5s-143.834 -160.5 -246.501 -220.5z" />
    <glyph glyph-name="quotesinglbase" unicode="&#x201a;" horiz-adv-x="491" 
d="M119 -445l0.00292969 56c76 54 133 109 171 165s57 113.333 57 172c0 40.667 -11 74 -33 100c-10.667 -16 -23.834 -28 -39.501 -36s-34.167 -12 -55.5 -12c-28 0 -51.333 9.66699 -70 29s-28 42 -28 68c0 30.667 13.167 59.167 39.5 85.5s64.166 39.5 113.499 39.5
c57.333 0 102.333 -16.833 135 -50.5s49 -79.167 49 -136.5c0 -86 -30.833 -172.5 -92.5 -259.5s-143.834 -160.5 -246.501 -220.5z" />
    <glyph glyph-name="quotedblleft" unicode="&#x201c;" horiz-adv-x="939" 
d="M421 1412l0.000976562 -55c-78 -52 -135.833 -109.667 -173.5 -173s-56.5 -118.333 -56.5 -165c0 -36.667 10.667 -69.334 32 -98.001c13.333 16 27.5 27.833 42.5 35.5s30.833 11.5 47.5 11.5c68 0 102 -33.333 102 -100c0 -38.667 -15.167 -68.667 -45.5 -90
s-65.833 -32 -106.5 -32c-58 0 -103.167 18 -135.5 54s-48.5 79 -48.5 129c0 90.667 33.667 181.334 101 272.001s147.666 161 240.999 211zM875.001 1412v-55c-78 -52 -135.833 -109.667 -173.5 -173s-56.5 -118.333 -56.5 -165c0 -36.667 11 -69.334 33 -98.001
c13.333 16 27.5 27.833 42.5 35.5s30.833 11.5 47.5 11.5c67.333 0 101 -33.333 101 -100c0 -38.667 -15 -68.667 -45 -90s-65.333 -32 -106 -32c-58 0 -103.167 18 -135.5 54s-48.5 79 -48.5 129c0 86 33.5 176.333 100.5 271s147.167 165.334 240.5 212.001z" />
    <glyph glyph-name="quotedblright" unicode="&#x201d;" horiz-adv-x="939" 
d="M82 743l0.000976562 57.002c76 54 133 109.167 171 165.5s57 113.833 57 172.5c0 40.667 -11 74 -33 100c-10.667 -16 -23.834 -28.167 -39.501 -36.5s-33.834 -12.5 -54.501 -12.5c-31.333 0 -55.666 10.167 -72.999 30.5s-26 42.166 -26 65.499
c0 30.667 13.833 59.167 41.5 85.5s65.5 39.5 113.5 39.5c56 0 100.333 -16.667 133 -50s49 -79 49 -137c0 -90.667 -30.5 -177.334 -91.5 -260.001s-143.5 -156 -247.5 -220zM718.001 1239c-12 -16.667 -26.001 -29.1699 -42.001 -37.5029s-33.667 -12.5 -53 -12.5
c-28.667 0 -52.5 9.16699 -71.5 27.5s-28.5 40.833 -28.5 67.5c0 32.667 13.833 61.834 41.5 87.501s65.167 38.5 112.5 38.5c58.667 0 103.834 -17.333 135.501 -52s47.5 -78.667 47.5 -132c0 -87.333 -30.833 -175.166 -92.5 -263.499s-143.5 -161.166 -245.5 -218.499v55
c76 55.333 133 111 171 167s57 112.667 57 170c0 36 -10.667 70.333 -32 103z" />
    <glyph glyph-name="quotedblbase" unicode="&#x201e;" horiz-adv-x="939" 
d="M78 -447v57.998c62.667 37.333 115.834 87.5 159.501 150.5s65.5 124.5 65.5 184.5c0 36 -9.66699 70 -29 102c-11.333 -16 -24.666 -28 -39.999 -36s-32.666 -12 -51.999 -12c-31.333 0 -56 10 -74 30s-27 43.333 -27 70c0 34.667 14.167 63.5 42.5 86.5
s65.166 34.5 110.499 34.5c55.333 0 99.166 -17 131.499 -51s48.5 -78 48.5 -132c0 -93.333 -30.833 -182.166 -92.5 -266.499s-142.834 -157.166 -243.501 -218.499zM723 47.998c-11.333 -16 -24.666 -27.998 -39.999 -35.998s-32.333 -12 -51 -12
c-28 0 -51.833 9.5 -71.5 28.5s-29.5 42.5 -29.5 70.5c0 30.667 12.5 58.667 37.5 84s63.167 38 114.5 38c59.333 0 104.333 -17.5 135 -52.5s46 -79.833 46 -134.5c0 -86.667 -29.833 -172.834 -89.5 -258.501s-141.834 -159.834 -246.501 -222.501v56
c75.333 53.333 131.833 108.5 169.5 165.5s56.5 116.167 56.5 177.5c0 33.333 -10.333 65.333 -31 96z" />
    <glyph glyph-name="dagger" unicode="&#x2020;" horiz-adv-x="896" 
d="M266 1365l359.996 0.000976562v-45c-32.667 0 -57.167 -13.5 -73.5 -40.5s-31.166 -81.833 -44.499 -164.5l-34 -203l121 30c55.333 14 96.5 29.5 123.5 46.5s41.833 38.5 44.5 64.5h45v-338h-45c-3.33301 42.667 -42.666 74 -117.999 94l-171 47
c13.333 -108 45 -219.333 95 -334c-52.667 -208.667 -84.334 -534.667 -95.001 -978h-53c-12 417.333 -43.667 743.333 -95 978c48 109.333 79.667 220.666 95 333.999l-134 -36c-37.333 -10.667 -72.166 -22.667 -104.499 -36s-50.166 -36.333 -53.499 -69h-42v338h42
c5.33301 -46 55 -81 149 -105l143 -36l-34 192c-17.333 96 -33.666 155.5 -48.999 178.5s-39.333 35.5 -72 37.5v45z" />
    <glyph glyph-name="daggerdbl" unicode="&#x2021;" horiz-adv-x="896" 
d="M266 1364l362.999 -0.00195312v-45c-34 -1.33301 -58.333 -13 -73 -35s-30 -75.667 -46 -161l-40 -211l105 27c76.667 20 126.5 37.5 149.5 52.5s35.167 36.5 36.5 64.5h56v-341h-56c-3.33301 21.333 -12.5 38.833 -27.5 52.5s-47.833 27.5 -98.5 41.5l-157 48
c30.667 -166.667 63 -299.667 97 -399c-42.667 -139.333 -75 -276 -97 -410l157 50l13 6l36 12c30 10.667 50.833 21.334 62.5 32.001s18.834 26.667 21.501 48h49v-346h-49c-2.66699 22 -10.667 38.667 -24 50s-38.666 24.666 -75.999 39.999l-190 54l49 -251
c13.333 -67.333 26.666 -109.333 39.999 -126s36 -25.334 68 -26.001v-46h-369v46c31.333 0.666992 54.333 10.834 69 30.501s27.667 60.167 39 121.5l46 257l-187 -60l-9 -2c-56 -15.333 -86 -44.666 -90 -87.999h-51v346h51c4 -25.333 14.667 -44.666 32 -57.999
s54.333 -28.666 111 -45.999l143 -44c-13.333 100 -46 236.667 -98 410c31.333 91.333 64 224.333 98 399l-170 -48c-79.333 -22 -120.333 -53.333 -123 -94h-44v341h44c6 -26.667 14.833 -44.5 26.5 -53.5s41.167 -22.833 88.5 -41.5l178 -49l-55 281
c-8 39.333 -18 69.666 -30 90.999s-35 33 -69 35v45z" />
    <glyph glyph-name="bullet" unicode="&#x2022;" horiz-adv-x="576" 
d="M288 869c62 0 115.667 -21.833 161 -65.5s68 -98.5 68 -164.5c0 -62.667 -22.333 -116.5 -67 -161.5s-98.667 -67.5 -162 -67.5c-62.667 0 -116.5 22.5 -161.5 67.5s-67.5 98.833 -67.5 161.5c0 65.333 22.833 120 68.5 164s99.167 66 160.5 66z" />
    <glyph glyph-name="ellipsis" unicode="&#x2026;" horiz-adv-x="2048" 
d="M339 208c35.333 0 64.668 -11.667 88.001 -35s35 -51 35 -83c0 -32.667 -11.833 -60.667 -35.5 -84s-52.167 -35 -85.5 -35c-32.667 0 -60.834 11.667 -84.501 35s-35.5 51.333 -35.5 84c0 33.333 12 61.333 36 84s51.333 34 82 34zM1704 208
c35.333 0 64.668 -11.667 88.001 -35s35 -51 35 -83c0 -32.667 -11.833 -60.667 -35.5 -84s-51.834 -35 -84.501 -35c-33.333 0 -61.833 11.667 -85.5 35s-35.5 51.333 -35.5 84c0 33.333 12.167 61.333 36.5 84s51.5 34 81.5 34zM1022 208c34.667 0 63.667 -11.667 87 -35
s35 -51 35 -83c0 -32.667 -11.833 -60.667 -35.5 -84s-51.834 -35 -84.501 -35c-33.333 0 -61.666 11.667 -84.999 35s-35 51.333 -35 84c0 34 12 62.167 36 84.5s51.333 33.5 82 33.5z" />
    <glyph glyph-name="perthousand" unicode="&#x2030;" horiz-adv-x="2069" 
d="M1098 1335h85l-887 -1396h-86zM414 1295c79.333 0 144.499 -28.3311 195.499 -84.998s76.5 -130.334 76.5 -221.001c0 -104 -33.333 -193.667 -100 -269s-146 -113 -238 -113c-77.333 0 -141.166 28.167 -191.499 84.5s-75.5 128.166 -75.5 215.499
c0 106.667 33.5 198 100.5 274s144.5 114 232.5 114zM353.999 1229c-48.667 0 -86.668 -19.333 -114.001 -58s-41 -91 -41 -157c0 -88 20.167 -167.167 60.5 -237.5s92.5 -105.5 156.5 -105.5c48.667 0 86 20.333 112 61s39 95.667 39 165
c0 83.333 -20.167 159.5 -60.5 228.5s-91.166 103.5 -152.499 103.5zM1043 670.002c81.333 0 146.832 -29.333 196.499 -88s74.5 -131 74.5 -217c0 -99.333 -31.167 -188.333 -93.5 -267s-142.166 -118 -239.499 -118c-79.333 0 -144.5 28.667 -195.5 86
s-76.5 128 -76.5 212c0 105.333 32.333 197 97 275s143.667 117 237 117zM981.997 604.002c-50.667 0 -89.001 -20.332 -115.001 -60.999s-39 -90 -39 -148c0 -86.667 19.833 -166 59.5 -238s90.167 -108 151.5 -108c54.667 0 94.834 21 120.501 63s38.5 93 38.5 153
c0 95.333 -21.5 175.666 -64.5 240.999s-93.5 98 -151.5 98zM1719 670.003c81.333 0 146.835 -29.333 196.502 -88s74.5 -131 74.5 -217c0 -105.333 -32.833 -195.833 -98.5 -271.5s-143.834 -113.5 -234.501 -113.5c-82.667 0 -148.834 29.167 -198.501 87.5
s-74.5 128.5 -74.5 210.5c0 101.333 31.333 192 94 272s143 120 241 120zM1657 604.003c-50 0 -88.002 -19.832 -114.002 -59.499s-39 -89.5 -39 -149.5c0 -86.667 19.833 -166 59.5 -238s89.834 -108 150.501 -108c54.667 0 94.834 21 120.501 63s38.5 93 38.5 153
c0 95.333 -21.5 175.666 -64.5 240.999s-93.5 98 -151.5 98z" />
    <glyph glyph-name="guilsinglleft" unicode="&#x2039;" horiz-adv-x="512" 
d="M457 912v-75l-228 -382l222 -380v-75l-383 455z" />
    <glyph glyph-name="guilsinglright" unicode="&#x203a;" horiz-adv-x="512" 
d="M73 915l384 -458l-393 -457v75l231 382l-222 381v77z" />
    <glyph glyph-name="trademark" unicode="&#x2122;" horiz-adv-x="1856" 
d="M200 469l0.00195312 33c49.333 -0.666992 81.166 7.83301 95.499 25.5s21.5 62.834 21.5 135.501v566h-92c-54.667 0 -93 -10.167 -115 -30.5s-36.333 -56.833 -43 -109.5h-26v190h675v-190h-26c-4.66699 48.667 -16.167 84.167 -34.5 106.5s-59.5 33.5 -123.5 33.5h-92
v-566c0 -72.667 7.16699 -117.834 21.5 -135.501s46.166 -26.167 95.499 -25.5v-33h-357zM787.002 1279h237.003l295 -636l287 636h227v-33c-50.667 -2.66699 -82.334 -11.167 -95.001 -25.5s-19 -48.833 -19 -103.5v-474c0 -61.333 6.66699 -99.833 20 -115.5
s44.666 -24.167 93.999 -25.5v-33h-345v33c50.667 0 83 8 97 24s21 55 21 117v515l-310 -689h-18l-322 676v-508c0 -61.333 5.5 -99.166 16.5 -113.499s44.833 -21.5 101.5 -21.5v-33h-287v33c54 0 86.5 7.66699 97.5 23s16.5 54.666 16.5 117.999v460
c0 58 -6.33301 95.333 -19 112s-44.334 27 -95.001 31v33z" />
    <glyph glyph-name="Omega" unicode="&#x2126;" horiz-adv-x="1573" 
d="M86 313l36.001 0.000976562c2 -36 13.167 -66.167 33.5 -90.5s63.5 -36.5 129.5 -36.5h270v67c-110.667 21.333 -210.667 80.833 -300 178.5s-134 219.5 -134 365.5c0 170.667 63.667 311.667 191 423s286.666 167 477.999 167c190 0 348 -54.5 474 -163.5
s189 -250.167 189 -423.5c0 -140 -39.5 -257 -118.5 -351s-184.833 -159.333 -317.5 -196v-67h275c53.333 0 92 9.5 116 28.5s38 51.833 42 98.5h36v-313h-559l22 302c172 54.667 258 213.667 258 477c0 172 -42 303.833 -126 395.5s-182.667 137.5 -296 137.5
c-120.667 0 -220.667 -48.5 -300 -145.5s-119 -221.5 -119 -373.5c0 -127.333 19.667 -232.333 59 -315s105 -141.334 197 -176.001l23 -302h-559v313z" />
    <glyph glyph-name="partialdiff" unicode="&#x2202;" horiz-adv-x="1003" 
d="M925 717c8 72 11.999 134.332 11.999 186.999c0 118 -31.333 210.167 -94 276.5s-146.667 99.5 -252 99.5c-63.333 0 -120.166 -13.167 -170.499 -39.5s-93.833 -66.166 -130.5 -119.499h-46c45.333 100.667 99.833 176 163.5 226s136.167 75 217.5 75
c103.333 0 190.166 -41 260.499 -123s105.5 -208.667 105.5 -380c0 -240.667 -55.333 -459.167 -166 -655.5s-252.667 -294.5 -426 -294.5c-98 0 -179 28.667 -243 86s-96 140.333 -96 249c0 159.333 54.833 299.833 164.5 421.5s238.834 182.5 387.501 182.5
c68 0 130.667 -17.5 188 -52.5s99 -81.167 125 -138.5zM907.999 627.999c-24.667 75.333 -64.0029 131.667 -118.003 169s-110.333 56 -169 56c-62.667 0 -124.5 -22.833 -185.5 -68.5s-110.667 -122 -149 -229s-57.5 -204.5 -57.5 -292.5c0 -70 17.333 -127 52 -171
s82.334 -66 143.001 -66c90.667 0 183.834 54.5 279.501 163.5s163.834 255.167 204.501 438.5z" />
    <glyph glyph-name="Delta" unicode="&#x2206;" horiz-adv-x="1259" 
d="M1229 0h-1200l628 1387zM993 82l-399 967l-440 -967h839z" />
    <glyph glyph-name="product" unicode="&#x220f;" horiz-adv-x="1685" 
d="M1239 1438h-795.001v-1449c0 -56.667 13 -96.667 39 -120s67 -35 123 -35h36v-38h-597v38h35c58 0 99.667 12 125 36s38 63.667 38 119v1334c0 57.333 -13.167 97.5 -39.5 120.5s-67.5 34.5 -123.5 34.5h-35v38h1594v-38h-35c-61.333 0 -103.666 -12.5 -126.999 -37.5
s-35 -64.167 -35 -117.5v-1334c0 -56.667 13 -96.667 39 -120s67 -35 123 -35h35v-38h-597v38h35c58 0 99.5 12 124.5 36s37.5 63.667 37.5 119v1449z" />
    <glyph glyph-name="summation" unicode="&#x2211;" horiz-adv-x="1451" 
d="M1351 -204h-1313v36l669 831l-669 817v37h1278l27 -337h-40c-18 170.667 -101 256 -249 256h-740l562 -687l-629 -777h818c44.667 0 91 7.66699 139 23s84.333 39.5 109 72.5s45.334 83.167 62.001 150.5l40 -7z" />
    <glyph glyph-name="fraction" unicode="&#x2215;" horiz-adv-x="299" 
d="M568 1413h86l-923 -1445h-91z" />
    <glyph glyph-name="periodcentered" unicode="&#x2219;" horiz-adv-x="405" 
d="M203 760c35.333 0 64.668 -12 88.001 -36s35 -52.333 35 -85s-11.833 -60.834 -35.5 -84.501s-52.167 -35.5 -85.5 -35.5c-32.667 0 -60.834 11.833 -84.501 35.5s-35.5 51.834 -35.5 84.501c0 34.667 12.167 63.5 36.5 86.5s51.5 34.5 81.5 34.5z" />
    <glyph glyph-name="radical" unicode="&#x221a;" horiz-adv-x="1124" 
d="M1050 1869h74l-312 -1947l-496 1021l-198 -91l-34 64l301 151l405 -823z" />
    <glyph glyph-name="infinity" unicode="&#x221e;" horiz-adv-x="1460" 
d="M654 667c46.667 112.667 99.3311 187 157.998 223s129.334 54 212.001 54c64.667 0 124.667 -14.5 180 -43.5s103 -75.5 143 -139.5s60 -142 60 -234c0 -82 -16.333 -154 -49 -216s-76.834 -111.5 -132.501 -148.5s-111.5 -55.5 -167.5 -55.5
c-65.333 0 -121.666 20.167 -168.999 60.5s-103.333 115.5 -168 225.5c-37.333 -77.333 -83 -135.5 -137 -174.5s-116.333 -58.5 -187 -58.5c-72 0 -132.667 17.333 -182 52s-88.5 77.167 -117.5 127.5s-43.5 113.5 -43.5 189.5c0 104.667 29.5 192 88.5 262
s131.833 105 218.5 105c63.333 0 116.333 -16.5 159 -49.5s87.334 -92.833 134.001 -179.5zM749.997 464c46 -98 93.499 -166.331 142.499 -204.998s105.5 -58 169.5 -58c90 0 160.5 31.833 211.5 95.5s76.5 140.5 76.5 230.5c0 95.333 -28.667 175.666 -86 240.999
s-122.666 98 -195.999 98c-56.667 0 -106.667 -19.333 -150 -58s-99.333 -153.334 -168 -344.001zM624.996 590.002c-30 71.333 -67.168 124.833 -111.501 160.5s-96.166 53.5 -155.499 53.5c-64 0 -121.5 -23.167 -172.5 -69.5s-76.5 -114.5 -76.5 -204.5
c0 -91.333 24.167 -162.833 72.5 -214.5s100.833 -77.5 157.5 -77.5c42 0 86.333 17 133 51s94 123 142 267z" />
    <glyph glyph-name="integral" unicode="&#x222b;" horiz-adv-x="561" 
d="M200 895l11.999 444.998c6 229.333 31 373.833 75 433.5s93.333 89.5 148 89.5c28.667 0 56.667 -10.167 84 -30.5s41 -45.833 41 -76.5c0 -29.333 -8.5 -54 -25.5 -74s-39.167 -30 -66.5 -30c-23.333 0 -48.666 12 -75.999 36c-15.333 13.333 -28.666 20 -39.999 20
c-26.667 0 -40 -21 -40 -63c0 -28 3 -76.667 9 -146c24.667 -274 37 -495.667 37 -665c0 -45.333 -4 -202.166 -12 -470.499s-33.667 -432.666 -77 -492.999s-93.666 -90.5 -150.999 -90.5c-32.667 0 -60.5 10.833 -83.5 32.5s-34.5 51.167 -34.5 88.5
c0 28.667 8.16699 52.334 24.5 71.001s38.166 28 65.499 28c26.667 0 50 -11 70 -33c18.667 -20.667 34.667 -31 48 -31s23.166 5.16699 29.499 15.5s9.5 25.5 9.5 45.5c0 28 -3 68 -9 120c-25.333 211.333 -38 470.666 -38 777.999z" />
    <glyph glyph-name="approxequal" unicode="&#x2248;" horiz-adv-x="1365" 
d="M1171 1036l47.998 0.000976562c-2 -88 -26.667 -158 -74 -210s-105.666 -78 -174.999 -78c-35.333 0 -72.166 6 -110.499 18s-126.5 46.333 -264.5 103c-101.333 42 -174.333 63 -219 63c-98 0 -158.667 -60.667 -182 -182h-47c3.33301 97.333 29.333 169.666 78 216.999
s102.667 71 162 71c63.333 0 190.333 -41 381 -123c100.667 -43.333 174 -65 220 -65c50.667 0 92.667 16.5 126 49.5s52.333 78.5 57 136.5zM1171 540.001h47.9961c-2 -87.333 -26.667 -157 -74 -209s-105.666 -78 -174.999 -78c-35.333 0 -72.166 6 -110.499 18
s-126.5 46.333 -264.5 103c-101.333 41.333 -174.333 62 -219 62c-98 0 -158.667 -60.667 -182 -182h-47c3.33301 98 29.5 170.5 78.5 217.5s102.833 70.5 161.5 70.5c63.333 0 190.333 -40.667 381 -122c101.333 -43.333 174.333 -65 219 -65
c50.667 0 92.834 16.333 126.501 49s52.834 78 57.501 136z" />
    <glyph glyph-name="notequal" unicode="&#x2260;" horiz-adv-x="1365" 
d="M143 934h602l209 532h91l-204 -532h380v-108h-424l-139 -357h563v-108h-604l-211 -530h-92l209 530h-380v108h422l139 357h-561v108z" />
    <glyph glyph-name="lessequal" unicode="&#x2264;" horiz-adv-x="1365" 
d="M1222 347l-1080 456v97l1080 454v-117l-936 -385l936 -388v-117zM142 46h1080v-108h-1080v108z" />
    <glyph glyph-name="greaterequal" unicode="&#x2265;" horiz-adv-x="1365" 
d="M142 347v117l937 388l-937 385v117l1080 -454v-97zM1222 46v-108h-1080v108h1080z" />
    <glyph glyph-name="lozenge" unicode="&#x25ca;" horiz-adv-x="1012" 
d="M549 1422l418 -713l-418 -709h-111l-391 709l391 713h111zM495 1325l-340 -616l340 -615l359 615z" />
    <glyph glyph-name="fi" unicode="&#xf001;" horiz-adv-x="1195" 
d="M1008 941v-737.001c0 -59.333 12.333 -99.833 37 -121.5s63.334 -33.167 116.001 -34.5v-48h-458v48c53.333 1.33301 92.166 12.833 116.499 34.5s36.5 62.167 36.5 121.5v539c0.666992 18.667 -5.5 34 -18.5 46s-31.167 18 -54.5 18c-8.66699 0 -23 -1.33301 -43 -4
c-60.667 -9.33301 -119.334 -14 -176.001 -14h-206v-585c0 -59.333 12.5 -99.833 37.5 -121.5s63.5 -33.167 115.5 -34.5v-48h-454v48c50.667 1.33301 88.167 12.5 112.5 33.5s36.5 61.833 36.5 122.5v585h-149v48c48.667 0 83.167 8 103.5 24s41.5 58.333 63.5 127
c82 251.333 204 377 366 377c40 0 74.333 -6 103 -18v-250h-71c-18.667 120 -58.667 180 -120 180c-48 0 -85.667 -25.333 -113 -76s-41 -112 -41 -184c0 -53.333 14.667 -96.666 44 -129.999s89 -50 179 -50c56.667 0 106.334 5.16699 149.001 15.5
s122.667 39.833 240 88.5h48zM929 1354c27.333 0 49.832 -9.16699 67.499 -27.5s26.5 -39.833 26.5 -64.5c0 -25.333 -9 -47.166 -27 -65.499s-39.667 -27.5 -65 -27.5s-47.166 9.16699 -65.499 27.5s-27.5 40.166 -27.5 65.499c0 26 9.33301 47.833 28 65.5
s39.667 26.5 63 26.5z" />
    <glyph glyph-name="fl" unicode="&#xf002;" horiz-adv-x="1195" 
d="M1046 1373c-28.667 -18 -43.002 -45.334 -43.002 -82.001v-1087c0 -56 11.5 -95.667 34.5 -119s62.5 -35.666 118.5 -36.999v-48h-459v48c54.667 1.33301 94.167 13.166 118.5 35.499s36.5 62.5 36.5 120.5v938c0 82.667 -27.333 124 -82 124
c-48.667 0 -73 -32.333 -73 -97v-78h-72c-7.33301 70.667 -21.166 118.667 -41.499 144s-48.166 38 -83.499 38c-50 0 -87.5 -25.167 -112.5 -75.5s-37.5 -111.166 -37.5 -182.499c0 -121.333 67 -182 201 -182h51v-48h-242v-581c0 -60 12.5 -100.667 37.5 -122
s63.5 -32.666 115.5 -33.999v-48h-458v48c54.667 1.33301 93.834 13.166 117.501 35.499s35.5 62.5 35.5 120.5v581h-145v48c44.667 0 77.167 8 97.5 24s40.833 56.333 61.5 121c82.667 254 198.667 381 348 381c26 0 61.333 -6.33301 106 -19
c42.667 -12.667 74.667 -19 96 -19c45.333 0 136.666 31.667 273.999 95v-43z" />
    <glyph glyph-name="glyph1" horiz-adv-x="0" 
 />
    <glyph glyph-name="glyph2" horiz-adv-x="512" 
 />
    </font>
</defs>
</svg>
